# 3D Model: building_villa
mtllib building_villa.mtl

v 2.2497 0.7192 3.9569
v 2.3533 0.7192 3.9569
v 2.3533 2.4883 3.9569
v 2.2497 2.4883 3.9569
v 2.2497 2.4883 3.8610
v 2.2497 0.7192 3.8610
v 2.3533 0.7192 3.8610
v 2.3533 2.4883 3.8610
v 2.9597 0.7192 3.9569
v 3.0633 0.7192 3.9569
v 3.0633 2.4883 3.9569
v 2.9597 2.4883 3.9569
v 2.9597 2.4883 3.8610
v 2.9597 0.7192 3.8610
v -3.1050 2.4309 3.9569
v -3.1050 2.3273 3.9569
v 3.1008 2.3273 3.9569
v 3.1008 2.4309 3.9569
v -3.1050 2.3273 3.8610
v 3.1008 2.3273 3.8610
v -1.0332 0.7192 3.9569
v -0.9297 0.7192 3.9569
v -0.9297 2.4883 3.9569
v -1.0332 2.4883 3.9569
v -1.0332 2.4883 3.8610
v -1.0332 0.7192 3.8610
v -0.9297 0.7192 3.8610
v -0.9297 2.4883 3.8610
v -2.2709 0.7192 3.9569
v -2.1673 0.7192 3.9569
v -2.1673 2.4883 3.9569
v -2.2709 2.4883 3.9569
v -2.2709 2.4883 3.8610
v -2.2709 0.7192 3.8610
v -2.1673 0.7192 3.8610
v -2.1673 2.4883 3.8610
v 0.2368 2.4883 3.9569
v -0.2407 2.4883 3.9569
v -0.2407 0.7192 3.9569
v 0.2368 0.7192 3.9569
v -0.2407 2.4883 3.8610
v -0.2407 0.7192 3.8610
v 0.2368 0.7192 3.8610
v 0.2368 2.4883 3.8610
v -3.0239 0.7192 3.9569
v -2.9203 0.7192 3.9569
v -2.9203 2.4883 3.9569
v -3.0239 2.4883 3.9569
v -2.9203 0.7192 3.8610
v -2.9203 2.4883 3.8610
v -3.6455 4.0174 3.9915
v -3.6455 4.0174 -4.2250
v -3.6455 0.0309 -4.2250
v -3.6455 0.0309 3.9915
v -3.3102 3.7672 -3.9008
v -3.3102 3.7672 3.8372
v 3.3102 3.7672 3.8372
v 3.3102 3.7672 -3.9008
v 3.6455 4.0174 -4.2250
v 3.6455 4.0174 3.9915
v 3.6455 0.0309 3.9915
v 3.6455 0.0309 -4.2250
v 3.3102 4.0174 -3.9008
v 3.3102 4.0174 3.8372
v -3.3102 4.0174 -3.9008
v -3.3102 4.0174 3.8372
v -3.0118 2.4214 3.9915
v 3.0526 2.4214 3.9915
v -3.0118 2.4214 3.4379
v 3.0526 2.4214 3.4379
v -3.0118 0.7482 3.9915
v 2.2006 0.0309 3.9915
v 2.2006 0.7482 3.9915
v 2.2006 0.7482 3.4422
v 2.2006 0.0309 3.4464
v 3.0526 0.7482 3.9915
v -2.1261 0.7482 3.4422
v -2.1261 0.7482 3.9915
v -2.1261 0.0309 3.9915
v -2.1261 0.0309 3.4464
v 3.0526 0.7482 3.4379
v -3.0118 0.7482 3.4379
v -0.3159 5.3533 -2.1984
v -0.3159 5.3533 -1.5638
v -0.0562 5.3533 -1.5638
v -0.0562 5.3533 -2.1984
v -0.3159 5.1646 -2.1984
v -0.3159 5.1646 -1.5638
v -0.0562 5.1646 -1.5638
v -0.0562 5.1646 -2.1984
v -0.3798 3.2667 -2.2749
v -0.3798 3.2667 -1.4873
v -0.3798 5.2638 -1.4873
v -0.3798 5.2638 -2.2749
v 0.0077 5.2638 -2.2749
v 0.0077 5.2638 -1.4873
v 0.0077 3.2667 -1.4873
v 0.0077 3.2667 -2.2749
v 3.3144 0.0000 4.1043
v 3.3144 3.0682 4.1043
v 3.0608 2.8636 4.1043
v 3.0608 0.0000 4.1043
v -3.3144 3.0682 4.1043
v -3.3144 0.0000 4.1043
v -3.0386 0.0000 4.1043
v -3.0386 2.8636 4.1043
v -0.1519 2.8636 4.1043
v 0.1519 2.8636 4.1043
v -0.1519 0.0000 4.1043
v 0.1519 0.0000 4.1043
v -3.3144 3.0682 3.8668
v -3.3144 0.0000 3.8668
v 3.3144 0.0000 3.8668
v 3.3144 3.0682 3.8668
v 3.0608 2.8636 3.8668
v 3.0608 0.0000 3.8668
v -3.0386 0.0000 3.8668
v -3.0386 2.8636 3.8668
v -0.1519 2.8636 3.8668
v -0.1519 0.0000 3.8668
v 0.1519 0.0000 3.8668
v 0.1519 2.8636 3.8668
v -2.2121 2.6821 3.9161
v -2.2121 0.0552 3.9161
v -1.0007 0.0552 3.9161
v -1.0007 2.6821 3.9161
v -3.7732 2.9326 3.7660
v -3.7732 2.9326 4.0722
v -3.7732 4.4291 4.0722
v -3.7732 4.4291 3.7660
v 3.7732 4.4291 3.7660
v 3.7732 4.4291 4.0722
v 3.7732 2.9326 4.0722
v 3.7732 2.9326 3.7660
v 3.1443 4.1982 4.0722
v 3.1443 4.1982 3.7660
v 3.1443 4.4291 3.7660
v 3.1443 4.4291 4.0722
v -3.1443 4.1982 3.7660
v -3.1443 4.4291 4.0722
v -3.1443 4.4291 3.7660
v -3.1443 4.1982 4.0722
v -0.3299 4.1982 3.7660
v 0.3299 4.1982 3.7660
v 0.3299 4.4291 3.7660
v -0.3299 4.4291 3.7660
v -0.3299 4.4291 4.0722
v 0.3299 4.4291 4.0722
v 0.3299 4.1982 4.0722
v -0.3299 4.1982 4.0722
v 0.7791 4.1982 3.7660
v 2.6622 4.1982 3.7660
v 2.6622 4.4291 3.7660
v 0.7791 4.4291 3.7660
v 0.7791 4.4291 4.0722
v 2.6622 4.4291 4.0722
v 2.6622 4.1982 4.0722
v 0.7791 4.1982 4.0722
v -2.6622 4.1982 3.7660
v -0.7791 4.1982 3.7660
v -0.7791 4.4291 3.7660
v -2.6622 4.4291 3.7660
v -2.6622 4.4291 4.0722
v -0.7791 4.4291 4.0722
v -0.7791 4.1982 4.0722
v -2.6622 4.1982 4.0722
v -3.2875 4.3293 3.7281
v -3.2875 4.5289 3.7281
v -3.2875 4.5289 4.1005
v -3.2875 4.3293 4.1005
v -3.4603 4.6287 3.7281
v -3.4603 4.6287 4.1005
v -3.6332 4.5289 3.7281
v -3.6332 4.5289 4.1005
v -3.6332 4.3293 3.7281
v -3.6332 4.3293 4.1005
v -3.4603 4.2295 3.7281
v -3.4603 4.2295 4.1005
v 0.1626 4.3293 3.7281
v 0.1626 4.5289 3.7281
v 0.1626 4.5289 4.1005
v 0.1626 4.3293 4.1005
v -0.0103 4.6287 3.7281
v -0.0103 4.6287 4.1005
v -0.1831 4.5289 3.7281
v -0.1831 4.5289 4.1005
v -0.1831 4.3293 3.7281
v -0.1831 4.3293 4.1005
v -0.0103 4.2296 3.7281
v -0.0103 4.2296 4.1005
v 3.6456 4.3293 3.7281
v 3.6456 4.5289 3.7281
v 3.6456 4.5289 4.1005
v 3.6456 4.3293 4.1005
v 3.4728 4.6287 3.7281
v 3.4728 4.6287 4.1005
v 3.2999 4.5289 3.7281
v 3.2999 4.5289 4.1005
v 3.2999 4.3293 3.7281
v 3.2999 4.3293 4.1005
v 3.4728 4.2296 3.7281
v 3.4728 4.2296 4.1005
v -3.6229 3.4136 4.2250
v 3.6229 3.4136 4.2250
v 3.6229 3.4846 4.2250
v -3.6229 3.4846 4.2250
v 3.6229 3.2104 4.1777
v -3.6229 3.2104 4.1777
v -3.6229 3.2104 4.0089
v 3.6229 3.2104 4.0089
v -3.6229 3.4846 4.0089
v 3.6229 3.4846 4.0089
v -3.6229 3.3563 4.1777
v 3.6229 3.3563 4.1777
v 0.9870 3.6766 4.1580
v 2.4800 3.6766 4.1580
v 2.4800 4.1098 4.1580
v 0.9870 4.1098 4.1580
v 0.9870 3.6766 4.0309
v 2.4800 3.6766 4.0309
v 0.9870 4.1098 4.0309
v 2.4800 4.1098 4.0309
v -2.4800 3.6766 4.1580
v -0.9869 3.6766 4.1580
v -0.9869 4.1098 4.1580
v -2.4800 4.1098 4.1580
v -2.4800 3.6766 4.0309
v -0.9869 3.6766 4.0309
v -2.4800 4.1098 4.0309
v -0.9869 4.1098 4.0309
v 0.9730 0.7192 3.9569
v 1.0766 0.7192 3.9569
v 1.0766 2.4883 3.9569
v 0.9730 2.4883 3.9569
v 0.9730 2.4883 3.8610
v 0.9730 0.7192 3.8610
v 1.0766 0.7192 3.8610
v 1.0766 2.4883 3.8610
v -3.7502 0.8665 1.6491
v -3.7502 1.3730 1.4600
v -3.7502 1.4153 1.3891
v -3.7502 0.9088 1.5782
v -3.7502 1.7208 1.5312
v -3.7502 1.7820 1.4784
v -3.7502 1.9437 1.7376
v -3.7502 2.0048 1.6848
v -3.7502 2.0317 2.0613
v -3.7502 2.0856 2.0011
v -3.7502 2.6186 0.9815
v -3.7502 3.1137 0.8953
v -3.7502 3.0292 0.8084
v -3.7502 2.6374 0.9117
v -3.7502 2.5261 0.9951
v -3.7502 2.3672 1.2009
v -3.7502 2.4221 1.2767
v -3.7502 2.0463 1.3426
v -3.7502 2.0772 1.4309
v -3.7502 1.6319 1.3273
v -3.7502 1.5923 1.4120
v -3.7502 1.4086 1.2500
v -3.7502 1.3455 1.3190
v -3.7502 1.0654 0.9919
v -3.7502 0.9778 1.0246
v -3.7502 2.6539 0.7404
v -3.7502 2.5743 0.7583
v -3.7502 2.5715 0.5309
v -3.7502 2.4567 0.4591
v -3.7502 2.6972 0.4614
v -3.7502 2.7679 0.3704
v -3.7502 2.5627 -0.1028
v -3.7502 2.9236 0.0754
v -3.7502 2.8973 0.0018
v -3.7502 2.5065 -0.2477
v -3.7502 2.4260 -0.2523
v -3.7502 2.4686 -0.1098
v -3.7502 2.4179 0.2803
v -3.7502 2.4965 0.3309
v -3.7502 2.1209 0.6308
v -3.7502 2.1861 0.6978
v -3.7502 1.7219 0.7770
v -3.7502 1.7653 0.8598
v -3.7502 1.4533 0.7298
v -3.7502 1.4009 0.8072
v -3.7502 1.0898 0.5062
v -3.7502 1.0079 0.5513
v -3.7502 2.4477 -0.3654
v -3.7502 2.0191 -0.1643
v -3.7502 1.9456 -0.0551
v -3.7502 1.5978 -0.0915
v -3.7502 1.5248 0.0180
v -3.7502 1.0771 -0.1573
v -3.7502 0.9862 -0.0621
v -3.7502 2.8370 -1.2026
v -3.7502 2.8320 -1.1246
v -3.7502 3.1248 -1.1712
v -3.7502 3.0986 -1.2448
v -3.7502 2.5935 -1.2119
v -3.7502 2.5682 -1.1417
v -3.7502 2.5175 -1.1826
v -3.7502 2.4786 -1.1147
v -3.7502 2.6622 -1.0476
v -3.7502 2.7518 -1.0746
v -3.7502 2.6905 -0.9623
v -3.7502 2.7691 -0.9117
v -3.7502 2.5224 -0.9174
v -3.7502 2.5877 -0.8504
v -3.7502 2.3784 -0.9202
v -3.7502 2.4430 -0.8526
v -3.7502 2.3181 -0.7961
v -3.7502 2.3615 -0.7133
v -3.7502 2.0801 -0.6163
v -3.7502 2.0721 -0.5231
v -3.7502 1.7011 -0.5656
v -3.7502 1.6486 -0.4881
v -3.7502 1.1179 -0.7546
v -3.7502 1.0360 -0.7094
v -3.7502 2.1770 -1.7769
v -3.7502 2.2785 -1.8007
v -3.7444 2.0632 -2.0788
v -3.7373 1.9400 -2.0579
v -3.7502 2.2275 -1.5513
v -3.7502 2.3096 -1.5096
v -3.7502 2.1960 -1.2940
v -3.7502 2.2361 -1.2269
v -3.7502 1.9892 -1.0973
v -3.7502 1.9418 -1.0351
v -3.6969 3.1115 -1.3556
v -3.6969 3.0743 -0.8435
v -3.6969 3.2977 -1.0111
v -3.6969 3.2419 -1.2299
v -3.6969 2.8694 -0.0520
v -3.6969 3.0696 0.7813
v -3.6969 3.2545 0.4842
v -3.6969 3.2279 0.1900
v -3.6969 2.8229 1.5261
v -3.6969 3.2567 0.9675
v -3.6969 2.3946 1.8194
v -3.6969 2.7903 1.8287
v -3.6969 2.9067 1.6937
v -3.6969 3.1115 1.4563
v -3.6969 3.3489 1.2328
v -3.6969 3.1083 -0.4772
v -3.6969 2.5482 -2.0073
v -3.6969 2.9067 -2.0352
v -3.6969 1.0306 -0.8900
v -3.6969 3.2047 -1.5232
v -3.6969 3.1581 -1.8444
v -3.6969 0.9933 -0.2429
v -3.6969 0.9980 0.4368
v -3.6969 0.8630 -0.5548
v -3.6969 0.8536 0.0830
v -3.6969 0.9700 0.9675
v -3.6969 0.8769 0.7021
v -3.6969 0.9002 1.3399
v -3.6969 0.8630 1.1630
v -3.6969 1.3704 2.3362
v -3.6969 0.7885 1.6286
v -3.6969 1.0166 2.1360
v -3.6969 1.8359 2.2896
v -3.6969 2.1851 2.0895
v -3.6969 1.5240 -2.2913
v -3.6969 2.4412 -2.1749
v -3.6969 2.2224 -2.2448
v -3.6969 1.1050 -2.1144
v -3.6969 0.8676 -1.8025
v -3.6969 0.8210 -1.2904
v 3.0148 3.6978 -1.1514
v 3.0148 3.8503 -1.1514
v 3.0148 3.8503 0.3631
v 3.0148 3.6978 0.3631
v 1.5002 3.8503 -1.1514
v 1.5002 3.6978 -1.1514
v 1.5002 3.6978 0.3631
v 1.5002 3.8503 0.3631
v 2.8823 3.8503 -1.0189
v 2.8823 3.8503 0.2307
v 1.6327 3.8503 0.2307
v 1.6327 3.8503 -1.0189
v 2.8823 3.6978 -1.0189
v 2.8823 3.6978 0.2307
v 1.6327 3.6978 0.2307
v 1.6327 3.6978 -1.0189
v 1.2977 0.4817 3.8343
v 1.2082 0.4817 3.9303
v 1.2082 0.4817 3.8343
v 2.0819 0.4817 3.9303
v 1.9894 0.4817 3.8343
v 2.0819 0.4817 3.8343
v 1.9894 0.5889 3.9303
v 1.2977 0.5889 3.9303
v 1.2977 0.5889 3.8343
v 1.9894 0.5889 3.8343
v 1.2977 2.1768 3.9303
v 1.2082 2.2883 3.9303
v 1.2977 2.1768 3.8343
v 1.2082 2.2883 3.8343
v 1.9894 2.1768 3.9303
v 1.9894 2.1768 3.8343
v 2.0819 2.2883 3.9303
v 2.0819 2.2883 3.8343
v -3.4028 0.0381 4.1426
v -2.9500 0.0381 4.1426
v -2.9500 0.2109 4.1426
v -3.4028 0.2109 4.1426
v -3.4028 0.2109 3.9321
v -3.4028 0.0381 3.9321
v -2.9500 0.0381 3.9321
v -2.9500 0.2109 3.9321
v -3.1764 0.3284 4.0373
v -0.2282 0.0381 4.1426
v 0.2245 0.0381 4.1426
v 0.2245 0.2109 4.1426
v -0.2282 0.2109 4.1426
v -0.2282 0.2109 3.9321
v -0.2282 0.0381 3.9321
v 0.2245 0.0381 3.9321
v 0.2245 0.2109 3.9321
v -0.0018 0.3284 4.0373
v 2.9623 0.0381 4.1426
v 3.4150 0.0381 4.1426
v 3.4150 0.2109 4.1426
v 2.9623 0.2109 4.1426
v 2.9623 0.2109 3.9321
v 2.9623 0.0381 3.9321
v 3.4150 0.0381 3.9321
v 3.4150 0.2109 3.9321
v 3.1886 0.3284 4.0373
v 1.1175 0.7482 3.4422
v 1.1175 0.7482 3.9915
v 1.1175 0.0309 3.9915
v 1.1175 0.0309 3.4464
v -1.0744 0.0309 3.9915
v -1.0744 0.7482 3.9915
v -1.0744 0.7482 3.4422
v -1.0744 0.0309 3.4464
v -0.1930 2.6857 4.1465
v 0.1877 2.6857 4.1465
v 0.1877 3.0952 4.1465
v -0.1930 3.0952 4.1465
v -0.1930 2.6857 3.9055
v 0.1877 2.6857 3.9055
v -0.1930 3.0952 3.9055
v 0.1877 3.0952 3.9055
v -3.3653 2.6857 4.1465
v -2.9846 2.6857 4.1465
v -2.9846 3.0952 4.1465
v -3.3653 3.0952 4.1465
v -3.3653 2.6857 3.9055
v -2.9846 2.6857 3.9055
v -3.3653 3.0952 3.9055
v -2.9846 3.0952 3.9055
v 2.9966 2.6857 4.1465
v 3.3773 2.6857 4.1465
v 3.3773 3.0952 4.1465
v 2.9966 3.0952 4.1465
v 2.9966 2.6857 3.9055
v 3.3773 2.6857 3.9055
v 2.9966 3.0952 3.9055
v 3.3773 3.0952 3.9055
v -3.1327 2.6821 3.8785
v -3.1327 0.0552 3.8785
v 3.2439 0.0552 3.8785
v 3.2439 2.6821 3.8785
v -1.9413 0.4817 3.8343
v -2.0308 0.4817 3.9303
v -2.0308 0.4817 3.8343
v -1.1572 0.4817 3.9303
v -1.2497 0.4817 3.8343
v -1.1572 0.4817 3.8343
v -1.2497 0.5889 3.9303
v -1.9413 0.5889 3.9303
v -1.9413 0.5889 3.8343
v -1.2497 0.5889 3.8343
v -1.9413 2.1768 3.9303
v -2.0308 2.2883 3.9303
v -1.9413 2.1768 3.8343
v -2.0308 2.2883 3.8343
v -1.2497 2.1768 3.9303
v -1.2497 2.1768 3.8343
v -1.1572 2.2883 3.9303
v -1.1572 2.2883 3.8343
v 1.0782 2.6821 3.9161
v 1.0782 0.0552 3.9161
v 2.2896 0.0552 3.9161
v 2.2896 2.6821 3.9161
v -3.7181 3.0449 -1.1585
v -3.7181 3.0109 -0.6915
v -3.7181 3.2147 -0.8443
v -3.7181 3.1638 -1.0439
v -3.7181 2.8241 0.0304
v -3.7181 3.0067 0.7905
v -3.7181 3.1752 0.5195
v -3.7181 3.1511 0.2512
v -3.7181 2.7816 1.4699
v -3.7181 3.1773 0.9603
v -3.7181 2.3910 1.7374
v -3.7181 2.7519 1.7459
v -3.7181 2.8581 1.6227
v -3.7181 3.0449 1.4062
v -3.7181 3.2614 1.2024
v -3.7181 3.0419 -0.3574
v -3.7181 2.5311 -1.7530
v -3.7181 2.8581 -1.7785
v -3.7181 1.1469 -0.7339
v -3.7181 3.1298 -1.3114
v -3.7181 3.0873 -1.6044
v -3.7181 1.1129 -0.1437
v -3.7181 1.1171 0.4763
v -3.7181 0.9940 -0.4282
v -3.7181 0.9855 0.1535
v -3.7181 1.0916 0.9603
v -3.7181 1.0067 0.7183
v -3.7181 1.0280 1.3000
v -3.7181 0.9940 1.1387
v -3.7181 1.4568 2.2087
v -3.7181 0.9260 1.5633
v -3.7181 1.1341 2.0261
v -3.7181 1.8814 2.1662
v -3.7181 2.1999 1.9837
v -3.7181 1.5969 -2.0120
v -3.7181 2.4334 -1.9059
v -3.7181 2.2338 -1.9696
v -3.7181 1.2148 -1.8507
v -3.7181 0.9982 -1.5662
v -3.7181 0.9558 -1.0991
v -3.7368 2.4921 1.6203
v -3.7368 2.5735 1.6232
v -3.7368 2.5085 1.5646
v -3.7368 2.4271 1.5618
v -3.7368 2.8253 1.5556
v -3.7368 2.7896 1.4831
vn -0.7071 0.0000 0.7071
vn 0.7071 0.0000 0.7071
vn 0.7071 0.0000 0.7071
vn -0.7071 0.0000 0.7071
vn -1.0000 0.0000 0.0000
vn -1.0000 0.0000 0.0000
vn 1.0000 0.0000 0.0000
vn 1.0000 0.0000 0.0000
vn -0.7071 0.0000 0.7071
vn 0.0000 0.0000 1.0000
vn 0.0000 0.0000 1.0000
vn -0.7071 0.0000 0.7071
vn -1.0000 0.0000 0.0000
vn -1.0000 0.0000 0.0000
vn 0.0000 0.0000 1.0000
vn 0.0000 -0.7071 0.7071
vn 0.0000 -0.7071 0.7071
vn 0.0000 0.0000 1.0000
vn 0.0000 -1.0000 0.0000
vn 0.0000 -1.0000 0.0000
vn -0.7071 0.0000 0.7071
vn 0.7071 0.0000 0.7071
vn 0.7071 0.0000 0.7071
vn -0.7071 0.0000 0.7071
vn -1.0000 0.0000 0.0000
vn -1.0000 0.0000 0.0000
vn 1.0000 0.0000 0.0000
vn 1.0000 0.0000 0.0000
vn -0.7071 0.0000 0.7071
vn 0.7071 0.0000 0.7071
vn 0.7071 0.0000 0.7071
vn -0.7071 0.0000 0.7071
vn -1.0000 0.0000 0.0000
vn -1.0000 0.0000 0.0000
vn 1.0000 0.0000 0.0000
vn 1.0000 0.0000 0.0000
vn 0.7071 0.0000 0.7071
vn -0.7071 0.0000 0.7071
vn -0.7071 0.0000 0.7071
vn 0.7071 0.0000 0.7071
vn -1.0000 0.0000 0.0000
vn -1.0000 0.0000 0.0000
vn 1.0000 0.0000 0.0000
vn 1.0000 0.0000 0.0000
vn 0.0000 0.0000 1.0000
vn 0.7071 0.0000 0.7071
vn 0.7071 0.0000 0.7071
vn 0.0000 0.0000 1.0000
vn 1.0000 0.0000 0.0000
vn 1.0000 0.0000 0.0000
vn -0.5345 0.2673 0.8018
vn -0.2673 0.8018 -0.5345
vn -0.8944 0.0000 -0.4472
vn -0.3162 0.0000 0.9487
vn 0.3333 0.6667 0.6667
vn 0.8944 0.4472 0.0000
vn -0.4472 0.8944 0.0000
vn -0.8165 0.4082 0.4082
vn 0.5345 0.8018 -0.2673
vn 0.2673 0.5345 0.8018
vn 0.4472 0.0000 0.8944
vn 0.4472 0.0000 -0.8944
vn -0.2673 0.8018 0.5345
vn -0.8944 0.4472 0.0000
vn 0.5345 0.8018 0.2673
vn 0.4472 0.8944 0.0000
vn 0.5345 -0.2673 0.8018
vn -0.2673 -0.5345 0.8018
vn 0.4472 -0.8944 0.0000
vn -0.8944 -0.4472 0.0000
vn 0.2673 0.5345 0.8018
vn -0.8944 0.0000 0.4472
vn -0.3333 0.6667 0.6667
vn -0.8944 0.4472 0.0000
vn -1.0000 0.0000 0.0000
vn -0.6667 0.3333 0.6667
vn 0.7071 0.7071 0.0000
vn 0.4082 0.4082 0.8165
vn 0.8944 0.0000 0.4472
vn 1.0000 0.0000 0.0000
vn -0.4472 0.8944 0.0000
vn 0.8944 0.4472 0.0000
vn -0.3333 0.6667 -0.6667
vn -0.8165 0.4082 0.4082
vn 0.3333 0.6667 0.6667
vn 0.8165 0.4082 -0.4082
vn -0.8944 0.0000 -0.4472
vn -0.4472 0.0000 0.8944
vn 0.8944 0.0000 0.4472
vn 0.4472 0.0000 -0.8944
vn -0.8944 0.0000 -0.4472
vn -0.4472 0.0000 0.8944
vn -0.8165 0.4082 0.4082
vn -0.3333 0.6667 -0.6667
vn 0.8165 0.4082 -0.4082
vn 0.3333 0.6667 0.6667
vn 0.8944 0.0000 0.4472
vn 0.4472 0.0000 -0.8944
vn 0.4472 0.0000 0.8944
vn 0.4364 0.2182 0.8729
vn -0.2673 -0.5345 0.8018
vn -0.8944 -0.0000 0.4472
vn -0.2182 0.4364 0.8729
vn -0.8944 0.0000 0.4472
vn 0.4472 0.0000 0.8944
vn 0.6667 -0.3333 0.6667
vn -0.2182 -0.4364 0.8729
vn 0.4364 -0.2182 0.8729
vn -0.7071 0.0000 0.7071
vn 0.7071 0.0000 0.7071
vn -0.8944 0.4472 0.0000
vn -1.0000 0.0000 0.0000
vn 1.0000 0.0000 0.0000
vn 0.4472 0.8944 0.0000
vn -0.8944 -0.4472 0.0000
vn -1.0000 -0.0000 0.0000
vn 1.0000 0.0000 0.0000
vn 0.4472 -0.8944 0.0000
vn -0.8944 -0.4472 0.0000
vn -1.0000 0.0000 0.0000
vn 1.0000 0.0000 0.0000
vn 0.4472 -0.8944 0.0000
vn 0.0000 0.0000 1.0000
vn 0.0000 0.0000 1.0000
vn 0.0000 0.0000 1.0000
vn 0.0000 0.0000 1.0000
vn -0.3482 -0.3482 -0.8704
vn -0.1622 -0.1622 0.9733
vn -0.6667 0.3333 0.6667
vn -0.3333 0.6667 -0.6667
vn 0.6667 0.3333 -0.6667
vn 0.3333 0.6667 0.6667
vn 0.3482 -0.3482 0.8704
vn 0.1622 -0.1622 -0.9733
vn -0.2673 0.5345 0.8018
vn -0.5345 0.2673 -0.8018
vn -0.4082 0.8165 -0.4082
vn -0.8165 0.4082 0.4082
vn 0.3015 0.3015 -0.9045
vn 0.4082 0.8165 0.4082
vn 0.8165 0.4082 -0.4082
vn 0.4851 0.4851 0.7276
vn -0.4364 0.2182 -0.8729
vn 0.2182 0.4364 -0.8729
vn 0.6667 0.6667 -0.3333
vn -0.4082 0.4082 -0.8165
vn -0.6667 0.6667 0.3333
vn 0.4082 0.4082 0.8165
vn 0.4364 0.2182 0.8729
vn -0.2182 0.4364 0.8729
vn -0.5345 0.2673 -0.8018
vn 0.2182 0.4364 -0.8729
vn 0.6667 0.6667 -0.3333
vn -0.4082 0.4082 -0.8165
vn -0.6667 0.6667 0.3333
vn 0.4082 0.4082 0.8165
vn 0.5345 0.2673 0.8018
vn -0.2182 0.4364 0.8729
vn -0.4851 0.4851 -0.7276
vn 0.2182 0.4364 -0.8729
vn 0.6667 0.6667 -0.3333
vn -0.4082 0.4082 -0.8165
vn -0.6667 0.6667 0.3333
vn 0.4082 0.4082 0.8165
vn 0.5345 0.2673 0.8018
vn -0.2357 0.2357 0.9428
vn 0.7538 -0.2611 -0.6030
vn 0.7071 0.6124 -0.3536
vn 0.8839 0.3062 0.3536
vn 0.6030 -0.5223 0.6030
vn -0.1042 0.5417 -0.8341
vn 0.1042 0.5417 0.8341
vn -0.8839 0.3062 -0.3536
vn -0.7071 0.6124 0.3536
vn -0.6030 -0.5223 -0.6030
vn -0.7538 -0.2611 0.6030
vn 0.1507 -0.7834 -0.6030
vn -0.1507 -0.7834 0.6030
vn 0.7537 -0.2612 -0.6031
vn 0.7071 0.6124 -0.3536
vn 0.8839 0.3062 0.3536
vn 0.6029 -0.5224 0.6031
vn -0.1043 0.5417 -0.8341
vn 0.1042 0.5418 0.8341
vn -0.8839 0.3062 -0.3536
vn -0.7071 0.6124 0.3536
vn -0.6029 -0.5223 -0.6030
vn -0.7537 -0.2612 0.6030
vn 0.1506 -0.7834 -0.6030
vn -0.1507 -0.7834 0.6030
vn 0.7537 -0.2612 -0.6031
vn 0.7071 0.6124 -0.3536
vn 0.8839 0.3062 0.3536
vn 0.6029 -0.5224 0.6031
vn -0.1042 0.5417 -0.8341
vn 0.1042 0.5417 0.8341
vn -0.8839 0.3062 -0.3536
vn -0.7071 0.6124 0.3536
vn -0.6029 -0.5224 -0.6031
vn -0.7537 -0.2612 0.6031
vn 0.1507 -0.7834 -0.6030
vn -0.1507 -0.7834 0.6030
vn -0.5753 -0.1832 0.7972
vn 0.5753 -0.3663 0.7313
vn 0.4082 0.4082 0.8165
vn -0.4082 0.8165 0.4082
vn 0.6667 -0.6667 0.3333
vn -0.6667 -0.3333 0.6667
vn -0.4472 -0.8944 0.0000
vn 0.7071 -0.7071 0.0000
vn -0.9701 0.2425 0.0000
vn 0.8944 0.4472 0.0000
vn -0.5753 -0.3663 0.7313
vn 0.5753 -0.1832 0.7972
vn -0.6667 -0.3333 0.6667
vn 0.4082 -0.8165 0.4082
vn 0.6667 0.3333 0.6667
vn -0.4082 0.8165 0.4082
vn -0.4472 -0.8944 0.0000
vn 0.8944 -0.4472 0.0000
vn -0.8944 0.4472 0.0000
vn 0.4472 0.8944 0.0000
vn -0.6667 -0.3333 0.6667
vn 0.4082 -0.8165 0.4082
vn 0.6667 0.3333 0.6667
vn -0.4082 0.8165 0.4082
vn -0.4472 -0.8944 0.0000
vn 0.8944 -0.4472 0.0000
vn -0.8944 0.4472 0.0000
vn 0.4472 0.8944 0.0000
vn -0.7071 0.0000 0.7071
vn 0.7071 0.0000 0.7071
vn 0.7071 0.0000 0.7071
vn -0.7071 0.0000 0.7071
vn -1.0000 0.0000 0.0000
vn -1.0000 0.0000 0.0000
vn 1.0000 0.0000 0.0000
vn 1.0000 0.0000 0.0000
vn -1.0000 0.0000 0.0000
vn -1.0000 0.0000 0.0000
vn -1.0000 0.0000 0.0000
vn -1.0000 0.0000 0.0000
vn -1.0000 0.0000 0.0000
vn -1.0000 0.0000 0.0000
vn -1.0000 0.0000 0.0000
vn -1.0000 0.0000 0.0000
vn -1.0000 0.0000 0.0000
vn -1.0000 0.0000 0.0000
vn -1.0000 0.0000 0.0000
vn -1.0000 0.0000 0.0000
vn -1.0000 0.0000 0.0000
vn -1.0000 0.0000 0.0000
vn -1.0000 0.0000 0.0000
vn -1.0000 0.0000 0.0000
vn -1.0000 0.0000 0.0000
vn -1.0000 0.0000 0.0000
vn -1.0000 0.0000 0.0000
vn -1.0000 0.0000 0.0000
vn -1.0000 0.0000 0.0000
vn -1.0000 0.0000 0.0000
vn -1.0000 0.0000 0.0000
vn -1.0000 0.0000 0.0000
vn -1.0000 0.0000 0.0000
vn -1.0000 0.0000 0.0000
vn -1.0000 0.0000 0.0000
vn -1.0000 0.0000 0.0000
vn -1.0000 0.0000 0.0000
vn -1.0000 0.0000 0.0000
vn -1.0000 0.0000 0.0000
vn -1.0000 0.0000 0.0000
vn -1.0000 0.0000 0.0000
vn -1.0000 0.0000 0.0000
vn -1.0000 0.0000 0.0000
vn -1.0000 0.0000 0.0000
vn -1.0000 0.0000 0.0000
vn -1.0000 0.0000 0.0000
vn -1.0000 0.0000 0.0000
vn -1.0000 0.0000 0.0000
vn -1.0000 0.0000 0.0000
vn -1.0000 0.0000 0.0000
vn -1.0000 0.0000 0.0000
vn -1.0000 0.0000 0.0000
vn -1.0000 0.0000 0.0000
vn -1.0000 0.0000 0.0000
vn -1.0000 0.0000 0.0000
vn -1.0000 0.0000 0.0000
vn -1.0000 0.0000 0.0000
vn -1.0000 0.0000 0.0000
vn -1.0000 0.0000 0.0000
vn -1.0000 0.0000 0.0000
vn -1.0000 0.0000 0.0000
vn -1.0000 0.0000 0.0000
vn -1.0000 0.0000 0.0000
vn -1.0000 0.0000 0.0000
vn -1.0000 0.0000 0.0000
vn -1.0000 0.0000 0.0000
vn -1.0000 0.0000 0.0000
vn -1.0000 0.0000 0.0000
vn -1.0000 0.0000 0.0000
vn -1.0000 0.0000 0.0000
vn -1.0000 0.0000 0.0000
vn -1.0000 0.0000 0.0000
vn -1.0000 0.0000 0.0000
vn -1.0000 0.0000 0.0000
vn -1.0000 0.0000 0.0000
vn -1.0000 0.0000 0.0000
vn -1.0000 0.0000 0.0000
vn -1.0000 0.0000 0.0000
vn -1.0000 0.0000 0.0000
vn -1.0000 0.0000 0.0000
vn -1.0000 0.0000 0.0000
vn -1.0000 0.0000 0.0000
vn -1.0000 0.0000 0.0000
vn -1.0000 0.0000 0.0000
vn -1.0000 0.0000 0.0000
vn -1.0000 0.0000 0.0000
vn -0.9998 -0.0205 -0.0050
vn -1.0000 -0.0014 -0.0058
vn -0.9995 -0.0307 -0.0075
vn -0.9984 -0.0573 0.0025
vn -1.0000 0.0000 0.0000
vn -1.0000 0.0000 0.0000
vn -1.0000 0.0000 0.0000
vn -1.0000 0.0000 0.0000
vn -1.0000 0.0000 0.0000
vn -1.0000 0.0000 0.0000
vn -1.0000 0.0000 0.0000
vn -1.0000 0.0000 0.0000
vn -1.0000 0.0000 0.0000
vn -1.0000 0.0000 0.0000
vn -1.0000 0.0000 0.0000
vn -1.0000 0.0000 0.0000
vn -1.0000 0.0000 0.0000
vn -1.0000 0.0000 0.0000
vn -1.0000 0.0000 0.0000
vn -1.0000 0.0000 0.0000
vn -1.0000 0.0000 0.0000
vn -1.0000 0.0000 0.0000
vn -1.0000 0.0000 0.0000
vn -1.0000 0.0000 0.0000
vn -1.0000 0.0000 0.0000
vn -1.0000 0.0000 0.0000
vn -1.0000 0.0000 0.0000
vn -1.0000 0.0000 0.0000
vn -1.0000 0.0000 0.0000
vn -1.0000 0.0000 0.0000
vn -1.0000 0.0000 0.0000
vn -1.0000 0.0000 0.0000
vn -1.0000 0.0000 0.0000
vn -1.0000 0.0000 0.0000
vn -1.0000 0.0000 0.0000
vn -1.0000 0.0000 0.0000
vn -1.0000 0.0000 0.0000
vn -1.0000 0.0000 0.0000
vn -1.0000 0.0000 0.0000
vn -1.0000 0.0000 0.0000
vn -1.0000 0.0000 0.0000
vn -1.0000 0.0000 0.0000
vn -1.0000 0.0000 0.0000
vn -1.0000 0.0000 0.0000
vn -1.0000 0.0000 0.0000
vn -1.0000 0.0000 0.0000
vn -1.0000 0.0000 0.0000
vn -1.0000 0.0000 0.0000
vn -1.0000 0.0000 0.0000
vn -1.0000 0.0000 0.0000
vn 0.8944 0.0000 -0.4472
vn 0.2673 0.8018 -0.5345
vn 0.5345 0.8018 0.2673
vn 0.4472 0.0000 0.8944
vn -0.5345 0.8018 -0.2673
vn -0.4472 0.0000 -0.8944
vn -0.8944 0.0000 0.4472
vn -0.2673 0.8018 0.5345
vn -0.5345 0.8018 0.2673
vn -0.2673 0.8018 -0.5345
vn 0.5345 0.8018 -0.2673
vn 0.2673 0.8018 0.5345
vn -0.4472 0.0000 0.8944
vn -0.8944 0.0000 -0.4472
vn 0.4472 0.0000 -0.8944
vn 0.8944 0.0000 0.4472
vn 0.0000 -1.0000 0.0000
vn -0.2294 -0.6882 0.6882
vn -0.8944 -0.4472 0.0000
vn 0.4851 -0.4851 0.7276
vn 0.0000 -1.0000 0.0000
vn 0.7071 -0.7071 0.0000
vn -0.2673 0.5345 0.8018
vn 0.5345 0.2673 0.8018
vn 0.4472 0.8944 0.0000
vn -0.8944 0.4472 0.0000
vn 0.3162 0.0000 0.9487
vn -0.5345 0.2673 0.8018
vn 1.0000 0.0000 0.0000
vn -0.4472 0.8944 0.0000
vn -0.5547 0.0000 0.8321
vn -1.0000 0.0000 0.0000
vn 0.2673 0.5345 0.8018
vn 0.8944 0.4472 0.0000
vn -0.7071 0.0000 0.7071
vn 0.7071 0.0000 0.7071
vn 0.6151 0.3885 0.6861
vn -0.5301 0.5640 0.6332
vn -0.8191 0.5174 -0.2480
vn -1.0000 0.0000 0.0000
vn 1.0000 0.0000 0.0000
vn 0.6465 0.6880 -0.3297
vn -0.0000 1.0000 0.0000
vn -0.7071 0.0000 0.7071
vn 0.7071 0.0000 0.7071
vn 0.6151 0.3885 0.6861
vn -0.5301 0.5640 0.6332
vn -0.8190 0.5174 -0.2480
vn -1.0000 0.0000 0.0000
vn 1.0000 0.0000 0.0000
vn 0.6465 0.6880 -0.3297
vn 0.0000 1.0000 0.0000
vn -0.7071 0.0000 0.7071
vn 0.7071 0.0000 0.7071
vn 0.6151 0.3885 0.6861
vn -0.5301 0.5640 0.6332
vn -0.8190 0.5174 -0.2480
vn -1.0000 0.0000 0.0000
vn 1.0000 0.0000 0.0000
vn 0.6465 0.6880 -0.3297
vn 0.0000 1.0000 0.0000
vn 0.7071 0.7071 0.0000
vn 0.5774 0.5774 0.5774
vn 0.7071 0.0000 0.7071
vn 1.0000 0.0000 0.0000
vn -0.8944 0.0000 0.4472
vn -0.3333 0.6667 0.6667
vn -0.8944 0.4472 0.0000
vn -1.0000 0.0000 0.0000
vn -0.6667 -0.3333 0.6667
vn 0.4082 -0.8165 0.4082
vn 0.6667 0.3333 0.6667
vn -0.4082 0.8165 0.4082
vn -0.4472 -0.8944 0.0000
vn 0.8944 -0.4472 0.0000
vn -0.8944 0.4472 0.0000
vn 0.4472 0.8944 0.0000
vn -0.6667 -0.3333 0.6667
vn 0.4082 -0.8165 0.4082
vn 0.6667 0.3333 0.6667
vn -0.4082 0.8165 0.4082
vn -0.4472 -0.8944 0.0000
vn 0.8944 -0.4472 0.0000
vn -0.8944 0.4472 0.0000
vn 0.4472 0.8944 0.0000
vn -0.6667 -0.3333 0.6667
vn 0.4082 -0.8165 0.4082
vn 0.6667 0.3333 0.6667
vn -0.4082 0.8165 0.4082
vn -0.4472 -0.8944 0.0000
vn 0.8944 -0.4472 0.0000
vn -0.8944 0.4472 0.0000
vn 0.4472 0.8944 0.0000
vn 0.0000 0.0000 1.0000
vn 0.0000 0.0000 1.0000
vn 0.0000 0.0000 1.0000
vn 0.0000 0.0000 1.0000
vn 0.0000 -1.0000 0.0000
vn -0.2294 -0.6882 0.6882
vn -0.8944 -0.4472 0.0000
vn 0.4851 -0.4851 0.7276
vn 0.0000 -1.0000 0.0000
vn 0.7071 -0.7071 0.0000
vn -0.2673 0.5345 0.8018
vn 0.5345 0.2673 0.8018
vn 0.4472 0.8944 0.0000
vn -0.8944 0.4472 0.0000
vn 0.3162 0.0000 0.9487
vn -0.5345 0.2673 0.8018
vn 1.0000 0.0000 0.0000
vn -0.4472 0.8944 0.0000
vn -0.5547 0.0000 0.8321
vn -1.0000 0.0000 0.0000
vn 0.2673 0.5345 0.8018
vn 0.8944 0.4472 0.0000
vn 0.0000 0.0000 1.0000
vn 0.0000 0.0000 1.0000
vn 0.0000 0.0000 1.0000
vn 0.0000 0.0000 1.0000
vn -1.0000 0.0000 0.0000
vn -1.0000 0.0000 0.0000
vn -1.0000 0.0000 0.0000
vn -1.0000 0.0000 0.0000
vn -1.0000 0.0000 0.0000
vn -1.0000 0.0000 0.0000
vn -1.0000 0.0000 0.0000
vn -1.0000 0.0000 0.0000
vn -1.0000 0.0000 0.0000
vn -1.0000 0.0000 0.0000
vn -1.0000 0.0000 0.0000
vn -1.0000 0.0000 0.0000
vn -1.0000 0.0000 0.0000
vn -1.0000 0.0000 0.0000
vn -1.0000 0.0000 0.0000
vn -1.0000 0.0000 0.0000
vn -1.0000 0.0000 0.0000
vn -1.0000 0.0000 0.0000
vn -1.0000 0.0000 0.0000
vn -1.0000 0.0000 0.0000
vn -1.0000 0.0000 0.0000
vn -1.0000 0.0000 0.0000
vn -1.0000 0.0000 0.0000
vn -1.0000 0.0000 0.0000
vn -1.0000 0.0000 0.0000
vn -1.0000 0.0000 0.0000
vn -1.0000 0.0000 0.0000
vn -1.0000 0.0000 0.0000
vn -1.0000 0.0000 0.0000
vn -1.0000 0.0000 0.0000
vn -1.0000 0.0000 0.0000
vn -1.0000 0.0000 0.0000
vn -1.0000 0.0000 0.0000
vn -1.0000 0.0000 0.0000
vn -1.0000 0.0000 0.0000
vn -1.0000 0.0000 0.0000
vn -1.0000 0.0000 0.0000
vn -1.0000 0.0000 0.0000
vn -1.0000 0.0000 0.0000
vn -1.0000 0.0000 0.0000
vn -1.0000 0.0000 0.0000
vn -1.0000 0.0000 0.0000
vn -1.0000 0.0000 0.0000
vn -1.0000 0.0000 0.0000
vn -1.0000 0.0000 0.0000
vn -1.0000 0.0000 0.0000
vt 0.0000 0.0000

usemtl mat_walls
f 1/1/1 3/1/3 4/1/4
f 1/1/1 4/1/4 5/1/5
f 3/1/3 2/1/2 7/1/7
f 3/1/3 7/1/7 8/1/8
f 9/1/9 11/1/11 12/1/12
f 9/1/9 12/1/12 13/1/13
f 15/1/15 16/1/16 17/1/17
f 15/1/15 17/1/17 18/1/18
f 17/1/17 19/1/19 20/1/20
f 21/1/21 22/1/22 23/1/23
f 21/1/21 24/1/24 25/1/25
f 21/1/21 25/1/25 26/1/26
f 23/1/23 27/1/27 28/1/28
f 29/1/29 30/1/30 31/1/31
f 29/1/29 32/1/32 33/1/33
f 29/1/29 33/1/33 34/1/34
f 31/1/31 35/1/35 36/1/36
f 37/1/37 38/1/38 39/1/39
f 39/1/39 38/1/38 41/1/41
f 39/1/39 41/1/41 42/1/42
f 37/1/37 43/1/43 44/1/44
f 45/1/45 46/1/46 47/1/47
f 47/1/47 46/1/46 49/1/49
f 47/1/47 49/1/49 50/1/50
f 51/1/51 53/1/53 54/1/54
f 59/1/59 60/1/60 61/1/61
f 59/1/59 61/1/61 62/1/62
f 62/1/62 52/1/52 59/1/59
f 65/1/65 66/1/66 56/1/56
f 65/1/65 56/1/56 55/1/55
f 64/1/64 63/1/63 58/1/58
f 64/1/64 58/1/58 57/1/57
f 63/1/63 65/1/65 55/1/55
f 63/1/63 55/1/55 58/1/58
f 60/1/60 67/1/67 68/1/68
f 68/1/68 67/1/67 69/1/69
f 71/1/71 51/1/51 54/1/54
f 72/1/72 73/1/73 74/1/74
f 72/1/72 74/1/74 75/1/75
f 61/1/61 76/1/76 73/1/73
f 61/1/61 73/1/73 72/1/72
f 77/1/77 78/1/78 79/1/79
f 77/1/77 79/1/79 80/1/80
f 78/1/78 71/1/71 54/1/54
f 78/1/78 54/1/54 79/1/79
f 68/1/68 76/1/76 61/1/61
f 68/1/68 61/1/61 60/1/60
f 73/1/73 76/1/76 81/1/81
f 73/1/73 81/1/81 74/1/74
f 71/1/71 78/1/78 77/1/77
f 71/1/71 77/1/77 82/1/82
f 67/1/67 71/1/71 82/1/82
f 67/1/67 82/1/82 69/1/69
f 76/1/76 70/1/70 81/1/81
f 87/1/87 88/1/88 84/1/84
f 87/1/87 84/1/84 83/1/83
f 88/1/88 89/1/89 85/1/85
f 88/1/88 85/1/85 84/1/84
f 89/1/89 90/1/90 86/1/86
f 89/1/89 86/1/86 85/1/85
f 90/1/90 87/1/87 83/1/83
f 90/1/90 83/1/83 86/1/86
f 91/1/91 92/1/92 93/1/93
f 91/1/91 93/1/93 94/1/94
f 95/1/95 96/1/96 97/1/97
f 95/1/95 97/1/97 98/1/98
f 92/1/92 97/1/97 96/1/96
f 92/1/92 96/1/96 93/1/93
f 98/1/98 91/1/91 94/1/94
f 98/1/98 94/1/94 95/1/95
f 99/1/99 100/1/100 101/1/101
f 99/1/99 101/1/101 102/1/102
f 103/1/103 104/1/104 105/1/105
f 103/1/103 105/1/105 106/1/106
f 100/1/100 103/1/103 107/1/107
f 108/1/108 107/1/107 109/1/109
f 108/1/108 109/1/109 110/1/110
f 107/1/107 103/1/103 106/1/106
f 104/1/104 103/1/103 111/1/111
f 104/1/104 111/1/111 112/1/112
f 100/1/100 99/1/99 113/1/113
f 100/1/100 113/1/113 114/1/114
f 102/1/102 115/1/115 116/1/116
f 106/1/106 105/1/105 117/1/117
f 103/1/103 100/1/100 114/1/114
f 103/1/103 114/1/114 111/1/111
f 109/1/109 119/1/119 120/1/120
f 108/1/108 110/1/110 121/1/121
f 101/1/101 108/1/108 122/1/122
f 101/1/101 122/1/122 115/1/115
f 107/1/107 118/1/118 119/1/119
f 123/1/123 124/1/124 125/1/125
f 127/1/127 128/1/128 129/1/129
f 127/1/127 129/1/129 130/1/130
f 131/1/131 132/1/132 133/1/133
f 131/1/131 133/1/133 134/1/134
f 135/1/135 133/1/133 132/1/132
f 134/1/134 136/1/136 131/1/131
f 139/1/139 127/1/127 130/1/130
f 128/1/128 142/1/142 129/1/129
f 134/1/134 127/1/127 143/1/143
f 134/1/134 143/1/143 144/1/144
f 149/1/149 150/1/150 128/1/128
f 131/1/131 136/1/136 137/1/137
f 136/1/136 135/1/135 138/1/138
f 136/1/136 138/1/138 137/1/137
f 135/1/135 132/1/132 138/1/138
f 142/1/142 139/1/139 141/1/141
f 142/1/142 141/1/141 140/1/140
f 139/1/139 130/1/130 141/1/141
f 129/1/129 142/1/142 140/1/140
f 144/1/144 143/1/143 146/1/146
f 144/1/144 146/1/146 145/1/145
f 143/1/143 150/1/150 147/1/147
f 143/1/143 147/1/147 146/1/146
f 150/1/150 149/1/149 148/1/148
f 150/1/150 148/1/148 147/1/147
f 149/1/149 144/1/144 145/1/145
f 149/1/149 145/1/145 148/1/148
f 134/1/134 151/1/151 152/1/152
f 157/1/157 158/1/158 133/1/133
f 127/1/127 159/1/159 160/1/160
f 165/1/165 166/1/166 128/1/128
f 136/1/136 134/1/134 152/1/152
f 157/1/157 133/1/133 135/1/135
f 127/1/127 160/1/160 143/1/143
f 165/1/165 128/1/128 150/1/150
f 151/1/151 134/1/134 144/1/144
f 133/1/133 158/1/158 149/1/149
f 139/1/139 159/1/159 127/1/127
f 128/1/128 166/1/166 142/1/142
f 152/1/152 151/1/151 154/1/154
f 152/1/152 154/1/154 153/1/153
f 151/1/151 158/1/158 155/1/155
f 151/1/151 155/1/155 154/1/154
f 158/1/158 157/1/157 156/1/156
f 158/1/158 156/1/156 155/1/155
f 157/1/157 152/1/152 153/1/153
f 157/1/157 153/1/153 156/1/156
f 160/1/160 159/1/159 162/1/162
f 160/1/160 162/1/162 161/1/161
f 159/1/159 166/1/166 163/1/163
f 159/1/159 163/1/163 162/1/162
f 166/1/166 165/1/165 164/1/164
f 166/1/166 164/1/164 163/1/163
f 165/1/165 160/1/160 161/1/161
f 165/1/165 161/1/161 164/1/164
f 127/1/127 133/1/133 128/1/128
f 167/1/167 168/1/168 169/1/169
f 167/1/167 169/1/169 170/1/170
f 173/1/173 175/1/175 176/1/176
f 173/1/173 176/1/176 174/1/174
f 175/1/175 177/1/177 178/1/178
f 175/1/175 178/1/178 176/1/176
f 177/1/177 167/1/167 170/1/170
f 177/1/177 170/1/170 178/1/178
f 168/1/168 167/1/167 171/1/171
f 175/1/175 173/1/173 171/1/171
f 177/1/177 175/1/175 171/1/171
f 167/1/167 177/1/177 171/1/171
f 170/1/170 169/1/169 172/1/172
f 174/1/174 176/1/176 172/1/172
f 176/1/176 178/1/178 172/1/172
f 178/1/178 170/1/170 172/1/172
f 179/1/179 180/1/180 181/1/181
f 179/1/179 181/1/181 182/1/182
f 185/1/185 187/1/187 188/1/188
f 185/1/185 188/1/188 186/1/186
f 187/1/187 189/1/189 190/1/190
f 187/1/187 190/1/190 188/1/188
f 189/1/189 179/1/179 182/1/182
f 189/1/189 182/1/182 190/1/190
f 180/1/180 179/1/179 183/1/183
f 187/1/187 185/1/185 183/1/183
f 189/1/189 187/1/187 183/1/183
f 179/1/179 189/1/189 183/1/183
f 182/1/182 181/1/181 184/1/184
f 186/1/186 188/1/188 184/1/184
f 188/1/188 190/1/190 184/1/184
f 190/1/190 182/1/182 184/1/184
f 191/1/191 192/1/192 193/1/193
f 191/1/191 193/1/193 194/1/194
f 197/1/197 199/1/199 200/1/200
f 197/1/197 200/1/200 198/1/198
f 199/1/199 201/1/201 202/1/202
f 199/1/199 202/1/202 200/1/200
f 201/1/201 191/1/191 194/1/194
f 201/1/201 194/1/194 202/1/202
f 192/1/192 191/1/191 195/1/195
f 199/1/199 197/1/197 195/1/195
f 201/1/201 199/1/199 195/1/195
f 191/1/191 201/1/201 195/1/195
f 194/1/194 193/1/193 196/1/196
f 198/1/198 200/1/200 196/1/196
f 200/1/200 202/1/202 196/1/196
f 202/1/202 194/1/194 196/1/196
f 203/1/203 204/1/204 205/1/205
f 207/1/207 208/1/208 209/1/209
f 207/1/207 209/1/209 210/1/210
f 205/1/205 204/1/204 212/1/212
f 211/1/211 213/1/213 203/1/203
f 213/1/213 214/1/214 204/1/204
f 212/1/212 204/1/204 214/1/214
f 208/1/208 213/1/213 211/1/211
f 208/1/208 207/1/207 214/1/214
f 208/1/208 214/1/214 213/1/213
f 212/1/212 207/1/207 210/1/210
f 215/1/215 216/1/216 217/1/217
f 215/1/215 217/1/217 218/1/218
f 216/1/216 215/1/215 219/1/219
f 216/1/216 219/1/219 220/1/220
f 215/1/215 218/1/218 221/1/221
f 215/1/215 221/1/221 219/1/219
f 217/1/217 216/1/216 220/1/220
f 217/1/217 220/1/220 222/1/222
f 223/1/223 224/1/224 225/1/225
f 223/1/223 225/1/225 226/1/226
f 224/1/224 223/1/223 227/1/227
f 223/1/223 226/1/226 229/1/229
f 223/1/223 229/1/229 227/1/227
f 225/1/225 224/1/224 228/1/228
f 225/1/225 228/1/228 230/1/230
f 231/1/231 232/1/232 233/1/233
f 231/1/231 233/1/233 234/1/234
f 231/1/231 235/1/235 236/1/236
f 233/1/233 232/1/232 237/1/237
f 239/1/239 240/1/240 241/1/241
f 239/1/239 241/1/241 242/1/242
f 241/1/241 243/1/243 244/1/244
f 244/1/244 243/1/243 245/1/245
f 246/1/246 245/1/245 247/1/247
f 246/1/246 247/1/247 248/1/248
f 249/1/249 251/1/251 252/1/252
f 249/1/249 252/1/252 253/1/253
f 253/1/253 255/1/255 249/1/249
f 254/1/254 256/1/256 257/1/257
f 257/1/257 256/1/256 258/1/258
f 257/1/257 258/1/258 259/1/259
f 259/1/259 260/1/260 261/1/261
f 261/1/261 260/1/260 262/1/262
f 253/1/253 252/1/252 264/1/264
f 253/1/253 264/1/264 265/1/265
f 265/1/265 266/1/266 267/1/267
f 267/1/267 266/1/266 268/1/268
f 270/1/270 271/1/271 272/1/272
f 270/1/270 272/1/272 273/1/273
f 270/1/270 274/1/274 275/1/275
f 275/1/275 276/1/276 277/1/277
f 277/1/277 276/1/276 278/1/278
f 277/1/277 278/1/278 279/1/279
f 278/1/278 281/1/281 279/1/279
f 280/1/280 282/1/282 283/1/283
f 283/1/283 282/1/282 284/1/284
f 283/1/283 284/1/284 285/1/285
f 274/1/274 286/1/286 287/1/287
f 274/1/274 287/1/287 288/1/288
f 288/1/288 289/1/289 290/1/290
f 290/1/290 289/1/289 291/1/291
f 293/1/293 294/1/294 295/1/295
f 293/1/293 295/1/295 296/1/296
f 294/1/294 297/1/297 298/1/298
f 298/1/298 297/1/297 299/1/299
f 298/1/298 300/1/300 301/1/301
f 298/1/298 301/1/301 302/1/302
f 302/1/302 303/1/303 304/1/304
f 304/1/304 303/1/303 305/1/305
f 306/1/306 305/1/305 307/1/307
f 306/1/306 307/1/307 308/1/308
f 308/1/308 309/1/309 310/1/310
f 310/1/310 309/1/309 311/1/311
f 312/1/312 311/1/311 313/1/313
f 312/1/312 313/1/313 314/1/314
f 314/1/314 315/1/315 316/1/316
f 317/1/317 318/1/318 319/1/319
f 318/1/318 317/1/317 321/1/321
f 318/1/318 321/1/321 322/1/322
f 322/1/322 323/1/323 324/1/324
f 324/1/324 323/1/323 325/1/325
f 327/1/327 328/1/328 329/1/329
f 327/1/327 329/1/329 330/1/330
f 331/1/331 333/1/333 334/1/334
f 332/1/332 335/1/335 336/1/336
f 335/1/335 338/1/338 339/1/339
f 336/1/336 335/1/335 340/1/340
f 328/1/328 331/1/331 342/1/342
f 343/1/343 327/1/327 344/1/344
f 344/1/344 327/1/327 346/1/346
f 344/1/344 346/1/346 347/1/347
f 345/1/345 331/1/331 328/1/328
f 348/1/348 345/1/345 350/1/350
f 351/1/351 349/1/349 348/1/348
f 352/1/352 349/1/349 353/1/353
f 354/1/354 352/1/352 355/1/355
f 356/1/356 354/1/354 357/1/357
f 356/1/356 357/1/357 358/1/358
f 337/1/337 356/1/356 359/1/359
f 361/1/361 343/1/343 362/1/362
f 361/1/361 362/1/362 363/1/363
f 345/1/345 364/1/364 365/1/365
f 345/1/345 365/1/365 366/1/366
f 345/1/345 343/1/343 361/1/361
f 345/1/345 361/1/361 364/1/364
f 348/1/348 332/1/332 331/1/331
f 332/1/332 349/1/349 352/1/352
f 332/1/332 337/1/337 335/1/335
f 332/1/332 356/1/356 337/1/337
f 348/1/348 331/1/331 345/1/345
f 367/1/367 368/1/368 369/1/369
f 367/1/367 369/1/369 370/1/370
f 371/1/371 372/1/372 373/1/373
f 371/1/371 373/1/373 374/1/374
f 370/1/370 369/1/369 374/1/374
f 370/1/370 374/1/374 373/1/373
f 372/1/372 371/1/371 368/1/368
f 372/1/372 368/1/368 367/1/367
f 375/1/375 379/1/379 380/1/380
f 375/1/375 380/1/380 376/1/376
f 377/1/377 381/1/381 382/1/382
f 377/1/377 382/1/382 378/1/378
f 378/1/378 382/1/382 379/1/379
f 378/1/378 379/1/379 375/1/375
f 376/1/376 380/1/380 381/1/381
f 376/1/376 381/1/381 377/1/377
f 383/1/383 384/1/384 385/1/385
f 386/1/386 387/1/387 388/1/388
f 387/1/387 386/1/386 384/1/384
f 387/1/387 384/1/384 383/1/383
f 386/1/386 389/1/389 390/1/390
f 386/1/386 390/1/390 384/1/384
f 391/1/391 390/1/390 389/1/389
f 391/1/391 389/1/389 392/1/392
f 384/1/384 390/1/390 393/1/393
f 390/1/390 391/1/391 395/1/395
f 390/1/390 395/1/395 393/1/393
f 385/1/385 394/1/394 396/1/396
f 392/1/392 389/1/389 397/1/397
f 389/1/389 386/1/386 399/1/399
f 389/1/389 399/1/399 397/1/397
f 386/1/386 400/1/400 399/1/399
f 396/1/396 394/1/394 399/1/399
f 394/1/394 393/1/393 397/1/397
f 394/1/394 397/1/397 399/1/399
f 401/1/401 402/1/402 403/1/403
f 401/1/401 403/1/403 404/1/404
f 401/1/401 404/1/404 405/1/405
f 401/1/401 405/1/405 406/1/406
f 403/1/403 402/1/402 407/1/407
f 403/1/403 407/1/407 408/1/408
f 404/1/404 403/1/403 409/1/409
f 403/1/403 408/1/408 409/1/409
f 408/1/408 405/1/405 409/1/409
f 405/1/405 404/1/404 409/1/409
f 410/1/410 411/1/411 412/1/412
f 410/1/410 412/1/412 413/1/413
f 410/1/410 413/1/413 414/1/414
f 410/1/410 414/1/414 415/1/415
f 412/1/412 411/1/411 416/1/416
f 412/1/412 416/1/416 417/1/417
f 413/1/413 412/1/412 418/1/418
f 412/1/412 417/1/417 418/1/418
f 417/1/417 414/1/414 418/1/418
f 414/1/414 413/1/413 418/1/418
f 419/1/419 420/1/420 421/1/421
f 419/1/419 421/1/421 422/1/422
f 419/1/419 422/1/422 423/1/423
f 419/1/419 423/1/423 424/1/424
f 421/1/421 420/1/420 425/1/425
f 421/1/421 425/1/425 426/1/426
f 422/1/422 421/1/421 427/1/427
f 421/1/421 426/1/426 427/1/427
f 426/1/426 423/1/423 427/1/427
f 423/1/423 422/1/422 427/1/427
f 428/1/428 429/1/429 430/1/430
f 428/1/428 430/1/430 431/1/431
f 432/1/432 433/1/433 434/1/434
f 432/1/432 434/1/434 435/1/435
f 430/1/430 429/1/429 433/1/433
f 430/1/430 433/1/433 432/1/432
f 433/1/433 429/1/429 428/1/428
f 433/1/433 428/1/428 434/1/434
f 436/1/436 437/1/437 438/1/438
f 437/1/437 436/1/436 440/1/440
f 437/1/437 440/1/440 441/1/441
f 436/1/436 442/1/442 440/1/440
f 438/1/438 437/1/437 441/1/441
f 439/1/439 438/1/438 443/1/443
f 439/1/439 443/1/443 442/1/442
f 444/1/444 446/1/446 447/1/447
f 445/1/445 444/1/444 448/1/448
f 444/1/444 447/1/447 450/1/450
f 444/1/444 450/1/450 448/1/448
f 446/1/446 449/1/449 451/1/451
f 447/1/447 446/1/446 451/1/451
f 452/1/452 453/1/453 454/1/454
f 452/1/452 454/1/454 455/1/455
f 453/1/453 456/1/456 457/1/457
f 452/1/452 455/1/455 458/1/458
f 454/1/454 453/1/453 457/1/457
f 454/1/454 457/1/457 459/1/459
f 455/1/455 459/1/459 458/1/458
f 460/1/460 461/1/461 462/1/462
f 464/1/464 465/1/465 466/1/466
f 467/1/467 468/1/468 469/1/469
f 468/1/468 467/1/467 465/1/465
f 468/1/468 465/1/465 464/1/464
f 467/1/467 470/1/470 471/1/471
f 467/1/467 471/1/471 465/1/465
f 472/1/472 471/1/471 470/1/470
f 472/1/472 470/1/470 473/1/473
f 465/1/465 474/1/474 475/1/475
f 471/1/471 472/1/472 476/1/476
f 466/1/466 465/1/465 475/1/475
f 466/1/466 475/1/475 477/1/477
f 473/1/473 478/1/478 479/1/479
f 470/1/470 467/1/467 480/1/480
f 467/1/467 469/1/469 481/1/481
f 467/1/467 481/1/481 480/1/480
f 477/1/477 480/1/480 481/1/481
f 475/1/475 474/1/474 478/1/478
f 482/1/482 483/1/483 484/1/484
f 482/1/482 484/1/484 485/1/485
f 486/1/486 488/1/488 489/1/489
f 490/1/490 491/1/491 492/1/492
f 491/1/491 494/1/494 495/1/495
f 494/1/494 496/1/496 497/1/497
f 495/1/495 494/1/494 499/1/499
f 495/1/495 499/1/499 500/1/500
f 502/1/502 486/1/486 503/1/503
f 504/1/504 487/1/487 486/1/486
f 503/1/503 505/1/505 506/1/506
f 507/1/507 508/1/508 491/1/491
f 507/1/507 504/1/504 509/1/509
f 510/1/510 508/1/508 507/1/507
f 513/1/513 511/1/511 514/1/514
f 515/1/515 513/1/513 516/1/516
f 496/1/496 515/1/515 518/1/518
f 496/1/496 518/1/518 519/1/519
f 520/1/520 521/1/521 522/1/522
f 504/1/504 523/1/523 524/1/524
f 504/1/504 524/1/524 525/1/525
f 504/1/504 502/1/502 520/1/520
f 504/1/504 486/1/486 502/1/502
f 507/1/507 491/1/491 490/1/490
f 491/1/491 511/1/511 513/1/513
f 491/1/491 496/1/496 494/1/494
f 491/1/491 513/1/513 515/1/515
f 507/1/507 490/1/490 504/1/504
f 526/1/526 527/1/527 528/1/528
f 528/1/528 527/1/527 530/1/530
f 528/1/528 530/1/530 531/1/531

usemtl mat_roof
f 55/1/55 56/1/56 57/1/57
f 55/1/55 57/1/57 58/1/58
f 60/1/60 59/1/59 63/1/63
f 60/1/60 63/1/63 64/1/64
f 59/1/59 52/1/52 65/1/65
f 59/1/59 65/1/65 63/1/63
f 52/1/52 51/1/51 66/1/66
f 52/1/52 66/1/66 65/1/65
f 83/1/83 84/1/84 85/1/85
f 83/1/83 85/1/85 86/1/86
f 94/1/94 93/1/93 96/1/96
f 95/1/95 94/1/94 96/1/96
f 132/1/132 131/1/131 137/1/137
f 132/1/132 137/1/137 138/1/138
f 140/1/140 141/1/141 130/1/130
f 140/1/140 130/1/130 129/1/129
f 145/1/145 146/1/146 147/1/147
f 145/1/145 147/1/147 148/1/148
f 153/1/153 154/1/154 155/1/155
f 153/1/153 155/1/155 156/1/156
f 161/1/161 162/1/162 163/1/163
f 161/1/161 163/1/163 164/1/164
f 135/1/135 136/1/136 152/1/152
f 135/1/135 152/1/152 157/1/157
f 160/1/160 165/1/165 150/1/150
f 160/1/160 150/1/150 143/1/143
f 158/1/158 151/1/151 144/1/144
f 158/1/158 144/1/144 149/1/149
f 142/1/142 166/1/166 159/1/159
f 142/1/142 159/1/159 139/1/139
f 168/1/168 171/1/171 172/1/172
f 168/1/168 172/1/172 169/1/169
f 171/1/171 173/1/173 174/1/174
f 171/1/171 174/1/174 172/1/172
f 180/1/180 183/1/183 184/1/184
f 180/1/180 184/1/184 181/1/181
f 183/1/183 185/1/185 186/1/186
f 183/1/183 186/1/186 184/1/184
f 192/1/192 195/1/195 196/1/196
f 192/1/192 196/1/196 193/1/193
f 195/1/195 197/1/197 198/1/198
f 195/1/195 198/1/198 196/1/196
f 206/1/206 205/1/205 212/1/212
f 206/1/206 212/1/212 211/1/211
f 218/1/218 217/1/217 222/1/222
f 218/1/218 222/1/222 221/1/221
f 226/1/226 225/1/225 230/1/230
f 226/1/226 230/1/230 229/1/229
f 368/1/368 375/1/375 376/1/376
f 368/1/368 376/1/376 369/1/369
f 374/1/374 377/1/377 378/1/378
f 374/1/374 378/1/378 371/1/371
f 371/1/371 378/1/378 375/1/375
f 371/1/371 375/1/375 368/1/368
f 369/1/369 376/1/376 377/1/377
f 369/1/369 377/1/377 374/1/374

usemtl mat_windows
f 1/1/1 2/1/2 3/1/3
f 1/1/1 5/1/5 6/1/6
f 9/1/9 10/1/10 11/1/11
f 9/1/9 13/1/13 14/1/14
f 17/1/17 16/1/16 19/1/19
f 21/1/21 23/1/23 24/1/24
f 23/1/23 22/1/22 27/1/27
f 29/1/29 31/1/31 32/1/32
f 31/1/31 30/1/30 35/1/35
f 37/1/37 39/1/39 40/1/40
f 37/1/37 40/1/40 43/1/43
f 45/1/45 47/1/47 48/1/48
f 51/1/51 52/1/52 53/1/53
f 62/1/62 53/1/53 52/1/52
f 60/1/60 51/1/51 67/1/67
f 68/1/68 69/1/69 70/1/70
f 71/1/71 67/1/67 51/1/51
f 76/1/76 68/1/68 70/1/70
f 100/1/100 107/1/107 108/1/108
f 100/1/100 108/1/108 101/1/101
f 102/1/102 101/1/101 115/1/115
f 106/1/106 117/1/117 118/1/118
f 109/1/109 107/1/107 119/1/119
f 108/1/108 121/1/121 122/1/122
f 107/1/107 106/1/106 118/1/118
f 123/1/123 125/1/125 126/1/126
f 149/1/149 128/1/128 133/1/133
f 127/1/127 134/1/134 133/1/133
f 203/1/203 205/1/205 206/1/206
f 211/1/211 203/1/203 206/1/206
f 213/1/213 204/1/204 203/1/203
f 208/1/208 211/1/211 209/1/209
f 212/1/212 214/1/214 207/1/207
f 224/1/224 227/1/227 228/1/228
f 231/1/231 234/1/234 235/1/235
f 233/1/233 237/1/237 238/1/238
f 241/1/241 240/1/240 243/1/243
f 244/1/244 245/1/245 246/1/246
f 249/1/249 250/1/250 251/1/251
f 253/1/253 254/1/254 255/1/255
f 254/1/254 257/1/257 255/1/255
f 259/1/259 258/1/258 260/1/260
f 261/1/261 262/1/262 263/1/263
f 265/1/265 264/1/264 266/1/266
f 267/1/267 268/1/268 269/1/269
f 270/1/270 273/1/273 274/1/274
f 275/1/275 277/1/277 270/1/270
f 278/1/278 280/1/280 281/1/281
f 280/1/280 283/1/283 281/1/281
f 274/1/274 273/1/273 286/1/286
f 288/1/288 287/1/287 289/1/289
f 290/1/290 291/1/291 292/1/292
f 294/1/294 293/1/293 297/1/297
f 298/1/298 299/1/299 300/1/300
f 302/1/302 301/1/301 303/1/303
f 304/1/304 305/1/305 306/1/306
f 308/1/308 307/1/307 309/1/309
f 310/1/310 311/1/311 312/1/312
f 314/1/314 313/1/313 315/1/315
f 317/1/317 319/1/319 320/1/320
f 322/1/322 321/1/321 323/1/323
f 324/1/324 325/1/325 326/1/326
f 331/1/331 332/1/332 333/1/333
f 335/1/335 337/1/337 338/1/338
f 336/1/336 340/1/340 341/1/341
f 345/1/345 328/1/328 327/1/327
f 348/1/348 349/1/349 332/1/332
f 337/1/337 359/1/359 360/1/360
f 345/1/345 327/1/327 343/1/343
f 332/1/332 352/1/352 354/1/354
f 332/1/332 354/1/354 356/1/356
f 384/1/384 393/1/393 394/1/394
f 385/1/385 384/1/384 394/1/394
f 392/1/392 397/1/397 398/1/398
f 386/1/386 388/1/388 400/1/400
f 396/1/396 399/1/399 400/1/400
f 436/1/436 438/1/438 439/1/439
f 436/1/436 439/1/439 442/1/442
f 438/1/438 441/1/441 443/1/443
f 444/1/444 445/1/445 446/1/446
f 445/1/445 448/1/448 449/1/449
f 446/1/446 445/1/445 449/1/449
f 447/1/447 451/1/451 450/1/450
f 453/1/453 452/1/452 456/1/456
f 452/1/452 458/1/458 456/1/456
f 455/1/455 454/1/454 459/1/459
f 460/1/460 462/1/462 463/1/463
f 465/1/465 471/1/471 474/1/474
f 471/1/471 476/1/476 474/1/474
f 473/1/473 470/1/470 478/1/478
f 470/1/470 480/1/480 478/1/478
f 477/1/477 475/1/475 480/1/480
f 475/1/475 478/1/478 480/1/480
f 486/1/486 487/1/487 488/1/488
f 490/1/490 492/1/492 493/1/493
f 494/1/494 497/1/497 498/1/498
f 487/1/487 490/1/490 501/1/501
f 503/1/503 486/1/486 505/1/505
f 504/1/504 490/1/490 487/1/487
f 511/1/511 508/1/508 512/1/512
f 515/1/515 516/1/516 517/1/517
f 520/1/520 502/1/502 521/1/521
f 504/1/504 520/1/520 523/1/523
f 491/1/491 508/1/508 511/1/511
f 491/1/491 515/1/515 496/1/496
f 526/1/526 528/1/528 529/1/529
