# 3D Car Model converted from mobil.3ma
mtllib player_car.mtl

v -0.8826 0.9124 -0.6242
v -0.5689 1.2269 0.0642
v -0.5689 1.2269 0.8047
v -0.8826 0.9124 0.8047
v 0.8825 0.9124 -0.6242
v 0.8825 0.9124 0.8047
v 0.5688 1.2269 0.8047
v 0.5688 1.2269 0.0642
v 1.0736 0.1753 1.6492
v 1.0781 0.5120 2.2588
v 1.0781 0.8944 2.2588
v -1.0782 0.5120 2.2588
v -1.0782 0.8944 2.2588
v 1.0781 0.1457 -1.6825
v 1.0783 0.5973 -1.5531
v 1.0781 0.4927 -2.2707
v 1.0781 0.1457 -2.2707
v 1.0783 0.5914 -1.0608
v 1.0781 0.8944 -0.8526
v 1.0782 0.1428 -0.9267
v 0.7286 0.4504 2.1471
v 0.7286 0.2370 1.7608
v 0.7286 0.3041 1.7238
v 0.7286 0.5175 2.1100
v 1.0781 0.6621 0.9348
v 1.0781 0.6789 1.4991
v -1.0827 0.1753 1.6492
v -1.0782 0.1457 -1.6825
v -1.0782 0.1457 -2.2707
v -1.0782 0.4927 -2.2707
v -1.0784 0.5973 -1.5531
v -1.0784 0.5914 -1.0608
v -1.0782 0.8944 -0.8526
v -1.0782 0.1391 0.8133
v -1.0783 0.1428 -0.9268
v -1.0782 0.6621 0.9348
v -1.0782 0.6789 1.4991
v -1.0234 0.4380 -2.2707
v -1.0234 0.2004 -2.2707
v -1.0234 0.2004 -2.2257
v -1.0234 0.4380 -2.2257
v -0.7287 0.4504 2.1471
v -0.7287 0.2370 1.7608
v -0.7287 0.3041 1.7238
v -0.7287 0.5175 2.1100
v 0.9596 0.6370 0.6997
v 1.0781 0.2701 0.6293
v 1.0781 0.6569 0.7853
v 1.0781 0.1391 0.8133
v 1.0782 0.2735 -0.7807
v 1.1402 0.1343 -0.9740
v 1.1402 0.1343 0.8669
v 1.1402 0.2391 0.8669
v 1.1402 0.2391 -0.9740
v -1.1402 0.1343 -0.9740
v -1.1402 0.2391 -0.9740
v -1.1402 0.2391 0.8669
v -1.1402 0.1343 0.8669
v -0.8162 0.2354 -2.2310
v -0.8162 0.2354 -2.2983
v -0.8162 0.3153 -2.2983
v -0.8162 0.3153 -2.2310
v 0.6601 0.2354 -2.2978
v 0.8161 0.2354 -2.2983
v 0.8161 0.3153 -2.2983
v 0.6601 0.3146 -2.2978
v 0.6601 0.2354 -2.2307
v 0.6601 0.3146 -2.2307
v 0.8161 0.3153 -2.2310
v 0.8161 0.2354 -2.2310
v 1.0020 0.2354 -2.2310
v 1.0020 0.3153 -2.2310
v 1.0020 0.3153 -2.2983
v 1.0020 0.2354 -2.2983
v 0.8448 0.2354 -2.2978
v 0.8448 0.3146 -2.2978
v 0.8448 0.2354 -2.2307
v 0.8448 0.3146 -2.2307
v -1.0021 0.2354 -2.2310
v -1.0021 0.2354 -2.2983
v -1.0021 0.3153 -2.2983
v -1.0021 0.3153 -2.2310
v -0.8449 0.2354 -2.2978
v -0.8449 0.3146 -2.2978
v -0.8449 0.2354 -2.2307
v -0.8449 0.3146 -2.2307
v 1.1239 0.1435 -1.6590
v 1.1239 0.2797 -1.6590
v 1.1239 0.1862 -2.3397
v 1.1239 0.1435 -2.3397
v 0.8871 0.1435 -2.3392
v 0.8871 0.1858 -2.3392
v 0.4703 0.1435 -1.6588
v 0.4703 0.2794 -1.6588
v -1.0834 0.1435 -1.6590
v -1.0834 0.1435 -2.3397
v -1.0834 0.1862 -2.3397
v -1.0834 0.2797 -1.6590
v -0.8720 0.1435 -2.3392
v -0.8720 0.1858 -2.3392
v -0.4997 0.1435 -1.6588
v -0.4997 0.2794 -1.6588
v -1.1420 0.7908 1.2225
v 1.1420 0.7908 1.2225
v 1.1420 0.7167 1.4723
v -1.1420 0.7167 1.4723
v 1.1420 0.5179 1.6427
v -1.1420 0.5179 1.6427
v 1.1420 0.3190 1.6901
v -1.1382 0.3190 1.6901
v -1.1382 0.3088 0.7608
v 1.1420 0.3088 0.7608
v 1.1420 0.5179 0.8024
v -1.1420 0.5179 0.8024
v 1.1420 0.7167 0.9728
v -1.1420 0.7167 0.9728
v -1.1420 0.6100 1.4182
v -1.0786 0.4570 1.5508
v 1.0784 0.4570 1.5508
v 1.1420 0.6100 1.4182
v -1.1382 0.3190 1.5878
v 1.1420 0.3190 1.5878
v -1.1420 0.3138 0.8611
v -1.1420 0.4570 0.8971
v 1.1420 0.4570 0.8971
v 1.1420 0.3138 0.8611
v -1.1420 0.6100 1.0297
v 1.1420 0.6100 1.0297
v -1.1420 0.6670 1.2239
v 1.1420 0.6670 1.2239
v -0.7214 0.2715 -1.7271
v -1.1361 0.2715 -1.7271
v -1.1361 0.1391 -1.6786
v -0.7214 0.1391 -1.6786
v -1.1398 0.4627 -1.6837
v -0.7232 0.4627 -1.6837
v -0.7232 0.6409 -1.5310
v -1.1398 0.6409 -1.5310
v -1.1398 0.5453 -1.1318
v -1.1398 0.4081 -1.0129
v 1.1397 0.4081 -1.0129
v 1.1397 0.5453 -1.1318
v -1.1361 0.2844 -0.9798
v 1.1397 0.2844 -0.9798
v -1.1398 0.2715 -1.6371
v -1.1398 0.4081 -1.5989
v 1.1397 0.4081 -1.5989
v 1.1397 0.2715 -1.6371
v -1.1398 0.5453 -1.4800
v 1.1397 0.5453 -1.4800
v -1.1398 0.7073 -1.3072
v -1.1398 0.6409 -1.0833
v -1.1398 0.5964 -1.3059
v 1.1397 0.6409 -1.0833
v 1.1397 0.7073 -1.3072
v 1.1397 0.5964 -1.3059
v -1.1398 0.4627 -0.9306
v 1.1397 0.4627 -0.9306
v -1.1361 0.2844 -0.8880
v 1.1397 0.2844 -0.8880
v 1.1397 0.4627 -1.6837
v 1.1397 0.2715 -1.7271
v 1.1397 0.6409 -1.5310
v -0.7232 0.7073 -1.3072
v -0.7232 0.4627 -0.9306
v -0.7214 0.2844 -0.8880
v -0.7214 0.1336 -0.9255
v -1.1361 0.1336 -0.9255
v -1.1361 0.1336 -1.0172
v 1.1397 0.1336 -1.0172
v 1.1397 0.1336 -0.9255
v 1.1397 0.1391 -1.6786
v 1.1397 0.1391 -1.5887
v -1.1398 0.1391 -1.5887
v 0.7249 0.2715 -1.7271
v 0.7249 0.1391 -1.6786
v -1.1420 0.1380 0.9062
v -1.1382 0.1330 0.8059
v 1.1420 0.1380 0.9062
v 1.1420 0.1330 0.8059
v -1.0698 0.4949 2.1902
v -1.1356 0.1220 1.5399
v 1.1392 0.1617 1.5399
v 1.1595 0.4985 1.6531
v -0.7232 0.6409 -1.0833
v 0.7249 0.2844 -0.8880
v 0.7249 0.1336 -0.9255
v 0.7231 0.4627 -0.9306
v 0.7231 0.6409 -1.0833
v 0.7231 0.6409 -1.5310
v 0.7231 0.7073 -1.3072
v 0.7231 0.4627 -1.6837
v 0.8233 0.3895 -1.5655
v 1.0967 0.3895 -1.5655
v 1.0967 0.5101 -1.4610
v 0.8233 0.5101 -1.4610
v 0.8233 0.2315 -1.5882
v 1.0967 0.2315 -1.5882
v 0.8233 0.0863 -1.5219
v 1.0967 0.0863 -1.5219
v 0.8233 0.0000 -1.3877
v 1.0967 0.0000 -1.3877
v 0.8233 0.0000 -1.2280
v 1.0967 0.0000 -1.2280
v 0.8233 0.0863 -1.0938
v 1.0967 0.0863 -1.0938
v 0.8233 0.2315 -1.0275
v 1.0967 0.2315 -1.0275
v 0.8233 0.3895 -1.0502
v 1.0967 0.3895 -1.0502
v 0.8233 0.5101 -1.1547
v 1.0967 0.5101 -1.1547
v 0.8233 0.5551 -1.3079
v 1.0967 0.5551 -1.3079
v 0.9947 0.2718 -1.3079
v 1.0743 0.4265 -1.0864
v 1.0743 0.5311 -1.3793
v 1.0743 0.2847 -1.5693
v 1.0743 0.0280 -1.3937
v 1.0743 0.1156 -1.0952
v 1.1005 0.3169 -1.2550
v 1.1005 0.3408 -1.3048
v 1.1005 0.3169 -1.3545
v 1.1005 0.2630 -1.3668
v 1.1005 0.2198 -1.3324
v 1.1005 0.2198 -1.2772
v 1.1005 0.2630 -1.2428
v 0.7929 0.4536 0.9198
v 1.1098 0.4536 0.9198
v 1.1098 0.5933 1.0408
v 0.7929 0.5933 1.0408
v 0.7929 0.2707 0.8934
v 1.1098 0.2707 0.8934
v 0.7929 0.1025 0.9702
v 1.1098 0.1025 0.9702
v 0.7929 0.0026 1.1258
v 1.1098 0.0025 1.1258
v 0.7929 0.0025 1.3106
v 1.1098 0.0025 1.3106
v 0.7929 0.1025 1.4661
v 1.1098 0.1025 1.4661
v 0.7929 0.2707 1.5429
v 1.1098 0.2707 1.5429
v 0.7929 0.4536 1.5166
v 1.1098 0.4536 1.5166
v 0.7929 0.5933 1.3956
v 1.1098 0.5933 1.3956
v 0.7929 0.6454 1.2182
v 1.1098 0.6454 1.2182
v 1.0151 0.3173 1.2182
v 1.0833 0.4966 1.4747
v 1.0833 0.6177 1.1354
v 1.0833 0.3323 0.9154
v 1.0833 0.0349 1.1187
v 1.0833 0.1364 1.4644
v 1.1246 0.3824 1.2992
v 1.1246 0.4212 1.2186
v 1.1246 0.3824 1.1381
v 1.1246 0.2952 1.1182
v 1.1246 0.2253 1.1739
v 1.1246 0.2253 1.2634
v 1.1246 0.2952 1.3191
v -1.1247 0.2253 1.1739
v -1.1247 0.2952 1.1182
v -1.1247 0.2253 1.2634
v -1.1247 0.2952 1.3191
v -1.1247 0.3824 1.2992
v -1.1247 0.3824 1.1381
v -1.1247 0.4212 1.2186
v -1.1007 0.2630 -1.3668
v -1.1007 0.3169 -1.3545
v -1.1007 0.2199 -1.3324
v -1.1007 0.2199 -1.2772
v -1.1007 0.2630 -1.2428
v -1.1007 0.3169 -1.2550
v -1.1007 0.3408 -1.3048
v -0.8234 0.3895 -1.5655
v -0.8234 0.5101 -1.4610
v -1.0969 0.5101 -1.4610
v -1.0969 0.3895 -1.5655
v -0.8234 0.2315 -1.5882
v -1.0969 0.2315 -1.5882
v -0.8234 0.0863 -1.5219
v -1.0969 0.0863 -1.5219
v -0.8234 0.0000 -1.3877
v -1.0969 0.0000 -1.3877
v -0.8234 0.0000 -1.2280
v -1.0969 0.0000 -1.2280
v -0.8234 0.0863 -1.0938
v -1.0969 0.0863 -1.0938
v -0.8234 0.2315 -1.0275
v -1.0969 0.2315 -1.0275
v -0.8234 0.3895 -1.0502
v -1.0969 0.3895 -1.0502
v -0.8234 0.5101 -1.1547
v -1.0969 0.5101 -1.1547
v -0.8234 0.5551 -1.3079
v -1.0969 0.5551 -1.3079
v -0.9948 0.2718 -1.3079
v -1.0744 0.4265 -1.0864
v -1.0744 0.1156 -1.0952
v -1.0744 0.0280 -1.3937
v -1.0744 0.2847 -1.5693
v -1.0744 0.5311 -1.3793
v -0.7930 0.4536 0.9198
v -0.7930 0.5933 1.0408
v -1.1098 0.5933 1.0408
v -1.1098 0.4536 0.9198
v -0.7930 0.2707 0.8934
v -1.1098 0.2707 0.8934
v -0.7930 0.1025 0.9702
v -1.1098 0.1025 0.9702
v -0.7930 0.0026 1.1258
v -1.1098 0.0026 1.1258
v -0.7930 0.0026 1.3106
v -1.1098 0.0026 1.3106
v -0.7930 0.1025 1.4661
v -1.1098 0.1025 1.4661
v -0.7930 0.2707 1.5429
v -1.1098 0.2707 1.5429
v -0.7930 0.4536 1.5166
v -1.1098 0.4536 1.5166
v -0.7930 0.5933 1.3956
v -1.1098 0.5933 1.3956
v -0.7930 0.6454 1.2182
v -1.1098 0.6454 1.2182
v -1.0151 0.3173 1.2182
v -1.0833 0.4966 1.4747
v -1.0833 0.1364 1.4644
v -1.0833 0.0349 1.1187
v -1.0833 0.3323 0.9154
v -1.0833 0.6177 1.1354
v 0.5823 1.2489 0.8137
v -0.5825 1.2489 0.8137
v -0.5825 1.2489 0.0626
v 0.5823 1.2489 0.0626
v -0.6098 1.2190 0.7707
v -0.6098 1.2190 0.0767
v -0.9376 0.8939 0.8137
v -0.9101 0.9255 0.7707
v -0.9376 0.8931 -0.7102
v -0.9101 0.9255 -0.5687
v -0.5582 1.2309 0.0243
v 0.5580 1.2309 0.0243
v -0.8776 0.9151 -0.6622
v 0.9374 0.8931 -0.7102
v 0.8775 0.9151 -0.6622
v 0.9374 0.8939 0.8137
v 0.6097 1.2190 0.7707
v 0.9100 0.9255 0.7707
v 0.6097 1.2190 0.0767
v 0.9100 0.9255 -0.5687
v 0.6697 1.2489 0.9649
v -0.6699 1.2489 0.9649
v -0.6699 1.2489 0.8137
v 0.6697 1.2489 0.8137
v 1.0694 0.8909 0.8137
v 1.0713 0.8874 2.1950
v 0.5973 1.2204 1.0565
v 0.9457 0.9586 1.9652
v 0.9457 0.9052 1.9443
v 0.5973 1.1671 1.0356
v -1.0694 0.8909 0.8137
v -1.0714 0.8874 2.1950
v 1.0314 0.8903 0.8137
v 0.6589 1.2225 0.8137
v 0.6589 1.2225 0.9501
v 1.0314 0.8903 0.9501
v -0.6590 1.2225 0.8137
v -1.0315 0.8903 0.8137
v -0.6590 1.2225 0.9501
v -1.0315 0.8903 0.9501
v -0.9459 0.9586 1.9652
v -0.5975 1.2204 1.0565
v -0.5975 1.1671 1.0356
v -0.9459 0.9052 1.9443
v -0.8819 1.0190 1.6423
v 0.8818 1.0190 1.6423
v 0.8818 1.0013 1.8037
v -0.8819 1.0013 1.8037
v -0.7585 1.1134 1.3383
v 0.7584 1.1134 1.3383
v 0.7584 1.0957 1.4996
v -0.7585 1.0957 1.4996
v -0.9436 0.9718 1.7943
v 0.9434 0.9718 1.7943
v 0.9434 0.9541 1.9557
v -0.9436 0.9541 1.9557
v -0.8201 1.0662 1.4903
v 0.8200 1.0662 1.4903
v 0.8200 1.0485 1.6517
v -0.8201 1.0485 1.6517
v -0.6966 1.1606 1.1862
v 0.6966 1.1606 1.1862
v 0.6966 1.1429 1.3476
v -0.6966 1.1429 1.3476
v -0.6669 1.2067 1.0496
v 0.6668 1.2067 1.0496
v 0.6668 1.1890 1.2110
v -0.6669 1.1890 1.2110
v 0.5241 0.2370 1.7608
v 0.5241 0.4504 2.1471
v 0.5241 0.5175 2.1100
v 0.5241 0.3041 1.7238
v -0.5242 0.2370 1.7608
v -0.5242 0.3041 1.7238
v -0.5242 0.5175 2.1100
v -0.5242 0.4504 2.1471
v 1.0073 0.7972 2.3397
v 1.0073 0.7972 2.2313
v 1.0073 0.6092 2.2313
v 1.0073 0.6092 2.3397
v 0.9144 0.7972 2.3397
v 0.9144 0.7972 2.2313
v 0.6930 0.7972 2.3397
v 0.6930 0.7972 2.2313
v 0.9144 0.6092 2.3397
v -0.0001 0.7972 2.3397
v -0.0001 0.7972 2.2313
v 0.6930 0.6092 2.3397
v -0.0001 0.6092 2.3397
v -1.0073 0.7972 2.3397
v -1.0073 0.6092 2.3397
v -1.0073 0.6092 2.2313
v -1.0073 0.7972 2.2313
v -0.9144 0.7972 2.3397
v -0.9144 0.7972 2.2313
v -0.6932 0.7972 2.3397
v -0.6932 0.7972 2.2313
v -0.9144 0.6092 2.3397
v -0.6932 0.6092 2.3397
v 1.0562 0.6866 -1.6075
v 1.0562 0.5719 -2.0051
v 0.6699 0.5719 -2.0051
v 0.6699 0.6866 -1.6075
v 0.6775 0.6852 -1.6076
v 0.6775 0.6774 -1.9953
v 1.0486 0.6774 -1.9953
v 1.0486 0.6852 -1.6076
v 0.6775 0.5734 -1.9953
v 1.0486 0.5734 -1.9953
v 1.0332 0.6648 -2.0238
v 0.6929 0.6648 -2.0238
v 0.6929 0.5860 -2.0238
v 1.0332 0.5860 -2.0238
v 0.6929 0.6648 -1.9877
v 0.6929 0.5860 -1.9877
v 1.0332 0.6648 -1.9877
v 1.0332 0.5860 -1.9877
v 0.6836 0.8825 -0.8975
v 0.2972 0.8825 -0.8975
v 0.2972 0.8715 -0.9355
v 0.6836 0.8715 -0.9355
v -1.0563 0.6866 -1.6075
v -0.6700 0.6866 -1.6075
v -0.6700 0.5719 -2.0051
v -1.0563 0.5719 -2.0051
v -0.6777 0.6852 -1.6076
v -1.0487 0.6852 -1.6076
v -1.0487 0.6774 -1.9953
v -0.6777 0.6774 -1.9953
v -0.6777 0.5734 -1.9953
v -1.0487 0.5734 -1.9953
v -1.0333 0.6648 -2.0238
v -1.0333 0.5860 -2.0238
v -0.6931 0.5860 -2.0238
v -0.6931 0.6648 -2.0238
v -0.6931 0.5860 -1.9877
v -0.6931 0.6648 -1.9877
v -1.0333 0.6648 -1.9877
v -1.0333 0.5860 -1.9877
v -0.6838 0.8825 -0.8975
v -0.6838 0.8715 -0.9355
v -0.2973 0.8715 -0.9355
v -0.2973 0.8825 -0.8975
v 0.9029 1.1137 2.0676
v -0.9030 1.1137 2.0676
v -0.9030 1.1376 2.3070
v 0.9029 1.1376 2.3070
v 0.9090 1.1823 2.3026
v 0.9090 1.1584 2.0632
v 1.0572 1.1177 2.0690
v 1.0572 1.1416 2.3084
v -0.9091 1.1823 2.3026
v -1.0573 1.1416 2.3084
v -1.0573 1.1177 2.0690
v -0.9091 1.1584 2.0632
v 1.0452 1.0985 2.3127
v 1.0452 1.0746 2.0733
v -1.0454 1.0747 2.0733
v -1.0454 1.0985 2.3127
v 0.6614 1.1137 2.0829
v 0.6614 0.8381 1.9773
v 0.6614 0.7632 2.1738
v 0.6614 1.1376 2.2902
v 0.6183 1.1137 2.0829
v 0.6183 1.1376 2.2902
v 0.6183 0.7632 2.1738
v 0.6183 0.8381 1.9773
v -0.6616 1.1137 2.0829
v -0.6616 1.1376 2.2902
v -0.6616 0.7632 2.1738
v -0.6616 0.8381 1.9773
v -0.6185 1.1137 2.0829
v -0.6185 0.8381 1.9773
v -0.6185 0.7632 2.1738
v -0.6185 1.1376 2.2902
v 1.1927 0.8948 -0.5003
v 1.1927 0.9693 -0.5003
v 1.1927 0.8948 -0.6785
v 0.9625 0.8948 -0.4997
v 0.9625 0.9686 -0.4997
v 0.9625 0.8948 -0.6772
v -1.1927 0.8948 -0.5003
v -1.1927 0.8948 -0.6785
v -1.1927 0.9693 -0.5003
v -0.9626 0.9686 -0.4997
v -0.9626 0.8948 -0.4997
v -0.9626 0.8948 -0.6772
v 1.0324 0.7915 0.7888
v 1.0324 0.8197 0.7888
v 1.0997 0.8197 0.7888
v 1.0997 0.7915 0.7888
v 1.0993 0.7915 0.5937
v 1.0993 0.8194 0.5937
v 1.0322 0.7915 0.5937
v 1.0322 0.8194 0.5937
v -1.0325 0.7915 0.7888
v -1.0998 0.7915 0.7888
v -1.0998 0.8197 0.7888
v -1.0325 0.8197 0.7888
v -1.0993 0.7915 0.5937
v -1.0993 0.8194 0.5937
v -1.0323 0.7915 0.5937
v -1.0323 0.8194 0.5937
v -0.6602 0.2354 -2.2978
v -0.6602 0.3146 -2.2978
v -0.6602 0.2354 -2.2307
v -0.6602 0.3146 -2.2307
v 1.0234 0.4380 -2.2707
v 1.0234 0.2004 -2.2707
v 1.0234 0.4380 -2.2257
v 1.0234 0.2004 -2.2257
v 0.3163 0.5098 -2.3356
v 0.7905 0.8931 -0.8591
v -0.7906 0.8931 -0.8591
v -0.3165 0.5098 -2.3356
v 0.3163 0.1651 -2.2511
v -0.3165 0.1651 -2.2511
vn -0.7080 0.7062 0.0000
vn -0.7080 0.7062 0.0000
vn -0.7080 0.7062 0.0000
vn -0.7080 0.7062 0.0000
vn -0.7080 0.7062 0.0000
vn -0.7080 0.7062 0.0000
vn 0.7080 0.7062 0.0000
vn 0.7080 0.7062 0.0000
vn 0.7080 0.7062 0.0000
vn 0.7080 0.7062 0.0000
vn 0.7080 0.7062 0.0000
vn 0.7080 0.7062 0.0000
vn 0.0000 0.9096 -0.4155
vn 0.0000 0.9096 -0.4155
vn 0.0000 0.9096 -0.4155
vn 0.0000 0.9096 -0.4155
vn 0.0000 0.9096 -0.4155
vn 0.0000 0.9096 -0.4155
vn 1.0000 0.0000 -0.0074
vn 1.0000 0.0000 -0.0074
vn 1.0000 0.0000 -0.0074
vn 0.0000 0.0000 1.0000
vn 0.0000 0.0000 1.0000
vn 0.0000 0.0000 1.0000
vn 0.0000 0.0000 1.0000
vn 0.0000 0.0000 1.0000
vn 0.0000 0.0000 1.0000
vn 1.0000 -0.0004 -0.0002
vn 1.0000 -0.0004 -0.0002
vn 1.0000 -0.0004 -0.0002
vn 1.0000 0.0000 0.0000
vn 1.0000 0.0000 0.0000
vn 1.0000 0.0000 0.0000
vn 1.0000 0.0007 0.0000
vn 1.0000 0.0007 0.0000
vn 1.0000 0.0007 0.0000
vn 1.0000 0.0020 -0.0006
vn 1.0000 0.0020 -0.0006
vn 1.0000 0.0020 -0.0006
vn 1.0000 0.0000 0.0009
vn 1.0000 0.0000 0.0009
vn 1.0000 0.0000 0.0009
vn -1.0000 0.0000 0.0000
vn -1.0000 0.0000 0.0000
vn -1.0000 0.0000 0.0000
vn -1.0000 0.0000 0.0000
vn -1.0000 0.0000 0.0000
vn -1.0000 0.0000 0.0000
vn 1.0000 0.0000 0.0000
vn 1.0000 0.0000 0.0000
vn 1.0000 0.0000 0.0000
vn 1.0000 -0.0082 0.0023
vn 1.0000 -0.0082 0.0023
vn 1.0000 -0.0082 0.0023
vn 1.0000 0.0000 0.0000
vn 1.0000 0.0000 0.0000
vn 1.0000 0.0000 0.0000
vn -1.0000 0.0000 0.0074
vn -1.0000 0.0000 0.0074
vn -1.0000 0.0000 0.0074
vn -1.0000 -0.0004 -0.0002
vn -1.0000 -0.0004 -0.0002
vn -1.0000 -0.0004 -0.0002
vn -1.0000 0.0000 0.0000
vn -1.0000 0.0000 0.0000
vn -1.0000 0.0000 0.0000
vn -1.0000 0.0007 0.0000
vn -1.0000 0.0007 0.0000
vn -1.0000 0.0007 0.0000
vn -1.0000 0.0020 -0.0006
vn -1.0000 0.0020 -0.0006
vn -1.0000 0.0020 -0.0006
vn -1.0000 0.0001 0.0001
vn -1.0000 0.0001 0.0001
vn -1.0000 0.0001 0.0001
vn -1.0000 0.0000 0.0009
vn -1.0000 0.0000 0.0009
vn -1.0000 0.0000 0.0009
vn -1.0000 0.0000 0.0000
vn -1.0000 0.0000 0.0000
vn -1.0000 0.0000 0.0000
vn -1.0000 0.0000 0.0000
vn -1.0000 0.0000 0.0000
vn -1.0000 0.0000 0.0000
vn -1.0000 0.0082 -0.0023
vn -1.0000 0.0082 -0.0023
vn -1.0000 0.0082 -0.0023
vn -1.0000 0.0000 0.0000
vn -1.0000 0.0000 0.0000
vn -1.0000 0.0000 0.0000
vn 0.0000 0.9621 -0.2725
vn 0.0000 0.9621 -0.2725
vn 0.0000 0.9621 -0.2725
vn 0.0000 0.9621 -0.2725
vn 0.0000 0.9621 -0.2725
vn 0.0000 0.9621 -0.2725
vn 1.0000 0.0000 0.0000
vn 1.0000 0.0000 0.0000
vn 1.0000 0.0000 0.0000
vn 1.0000 0.0000 0.0000
vn 1.0000 0.0000 0.0000
vn 1.0000 0.0000 0.0000
vn 0.0000 1.0000 0.0000
vn 0.0000 1.0000 0.0000
vn 0.0000 1.0000 0.0000
vn 0.0000 1.0000 0.0000
vn 0.0000 1.0000 0.0000
vn 0.0000 1.0000 0.0000
vn 0.0001 -0.8754 0.4835
vn 0.0001 -0.8754 0.4835
vn 0.0001 -0.8754 0.4835
vn 0.0003 -0.8753 0.4835
vn 0.0003 -0.8753 0.4835
vn 0.0003 -0.8753 0.4835
vn 0.0000 -0.8757 0.4829
vn 0.0000 -0.8757 0.4829
vn 0.0000 -0.8757 0.4829
vn 0.0000 -0.8757 0.4829
vn 0.0000 -0.8757 0.4829
vn 0.0000 -0.8757 0.4829
vn -0.0002 -0.8754 0.4835
vn -0.0002 -0.8754 0.4835
vn -0.0002 -0.8754 0.4835
vn -0.0001 -0.8753 0.4835
vn -0.0001 -0.8753 0.4835
vn -0.0001 -0.8753 0.4835
vn 0.0000 -0.8752 0.4838
vn 0.0000 -0.8752 0.4838
vn 0.0000 -0.8752 0.4838
vn 0.0000 -0.8752 0.4838
vn 0.0000 -0.8752 0.4838
vn 0.0000 -0.8752 0.4838
vn 0.0000 -0.8753 0.4836
vn 0.0000 -0.8753 0.4836
vn 0.0000 -0.8753 0.4836
vn 0.0000 -0.8753 0.4836
vn 0.0000 -0.8753 0.4836
vn 0.0000 -0.8753 0.4836
vn 1.0000 0.0000 0.0000
vn 1.0000 0.0000 0.0000
vn 1.0000 0.0000 0.0000
vn 1.0000 0.0000 0.0000
vn 1.0000 0.0000 0.0000
vn 1.0000 0.0000 0.0000
vn 0.0000 0.4829 0.8757
vn 0.0000 0.4829 0.8757
vn 0.0000 0.4829 0.8757
vn 0.0000 0.4829 0.8757
vn 0.0000 0.4829 0.8757
vn 0.0000 0.4829 0.8757
vn 0.5190 0.3197 -0.7928
vn 0.5190 0.3197 -0.7928
vn 0.5190 0.3197 -0.7928
vn 1.0000 0.0000 0.0000
vn 1.0000 0.0000 0.0000
vn 1.0000 0.0000 0.0000
vn 1.0000 0.0000 0.0000
vn 1.0000 0.0000 0.0000
vn 1.0000 0.0000 0.0000
vn 1.0000 -0.0001 0.0001
vn 1.0000 -0.0001 0.0001
vn 1.0000 -0.0001 0.0001
vn 1.0000 0.0001 0.0001
vn 1.0000 0.0001 0.0001
vn 1.0000 0.0001 0.0001
vn 1.0000 0.0001 -0.0001
vn 1.0000 0.0001 -0.0001
vn 1.0000 0.0001 -0.0001
vn 1.0000 0.0002 0.0000
vn 1.0000 0.0002 0.0000
vn 1.0000 0.0002 0.0000
vn 0.9516 0.3072 0.0008
vn 0.9516 0.3072 0.0008
vn 0.9516 0.3072 0.0008
vn 1.0000 0.0000 0.0000
vn 1.0000 0.0000 0.0000
vn 1.0000 0.0000 0.0000
vn 1.0000 0.0000 0.0000
vn 1.0000 0.0000 0.0000
vn 1.0000 0.0000 0.0000
vn 1.0000 0.0000 0.0000
vn 1.0000 0.0000 0.0000
vn 1.0000 0.0000 0.0000
vn -1.0000 0.0000 0.0000
vn -1.0000 0.0000 0.0000
vn -1.0000 0.0000 0.0000
vn -1.0000 0.0000 0.0000
vn -1.0000 0.0000 0.0000
vn -1.0000 0.0000 0.0000
vn 0.0000 1.0000 0.0000
vn 0.0000 1.0000 0.0000
vn 0.0000 1.0000 0.0000
vn 0.0000 1.0000 0.0000
vn 0.0000 1.0000 0.0000
vn 0.0000 1.0000 0.0000
vn -1.0000 0.0000 0.0000
vn -1.0000 0.0000 0.0000
vn -1.0000 0.0000 0.0000
vn -1.0000 0.0000 0.0000
vn -1.0000 0.0000 0.0000
vn -1.0000 0.0000 0.0000
vn -0.0032 0.0000 -1.0000
vn -0.0032 0.0000 -1.0000
vn -0.0032 0.0000 -1.0000
vn -0.0032 0.0000 -1.0000
vn -0.0032 0.0000 -1.0000
vn -0.0032 0.0000 -1.0000
vn -1.0000 0.0000 0.0000
vn -1.0000 0.0000 0.0000
vn -1.0000 0.0000 0.0000
vn -1.0000 0.0000 0.0000
vn -1.0000 0.0000 0.0000
vn -1.0000 0.0000 0.0000
vn -0.0045 1.0000 0.0000
vn -0.0045 1.0000 0.0000
vn -0.0045 1.0000 0.0000
vn -0.0045 1.0000 0.0000
vn -0.0045 1.0000 0.0000
vn -0.0045 1.0000 0.0000
vn 1.0000 0.0000 0.0000
vn 1.0000 0.0000 0.0000
vn 1.0000 0.0000 0.0000
vn 1.0000 0.0000 0.0000
vn 1.0000 0.0000 0.0000
vn 1.0000 0.0000 0.0000
vn 1.0000 0.0000 0.0000
vn 1.0000 0.0000 0.0000
vn 1.0000 0.0000 0.0000
vn 1.0000 0.0000 0.0000
vn 1.0000 0.0000 0.0000
vn 1.0000 0.0000 0.0000
vn -0.0032 0.0000 -1.0000
vn -0.0032 0.0000 -1.0000
vn -0.0032 0.0000 -1.0000
vn -0.0032 0.0000 -1.0000
vn -0.0032 0.0000 -1.0000
vn -0.0032 0.0000 -1.0000
vn -1.0000 0.0000 0.0000
vn -1.0000 0.0000 0.0000
vn -1.0000 0.0000 0.0000
vn -1.0000 0.0000 0.0000
vn -1.0000 0.0000 0.0000
vn -1.0000 0.0000 0.0000
vn -0.0045 1.0000 0.0000
vn -0.0045 1.0000 0.0000
vn -0.0045 1.0000 0.0000
vn -0.0045 1.0000 0.0000
vn -0.0045 1.0000 0.0000
vn -0.0045 1.0000 0.0000
vn -1.0000 0.0000 0.0000
vn -1.0000 0.0000 0.0000
vn -1.0000 0.0000 0.0000
vn -1.0000 0.0000 0.0000
vn -1.0000 0.0000 0.0000
vn -1.0000 0.0000 0.0000
vn 0.0032 0.0000 -1.0000
vn 0.0032 0.0000 -1.0000
vn 0.0032 0.0000 -1.0000
vn 0.0032 0.0000 -1.0000
vn 0.0032 0.0000 -1.0000
vn 0.0032 0.0000 -1.0000
vn 1.0000 0.0000 0.0000
vn 1.0000 0.0000 0.0000
vn 1.0000 0.0000 0.0000
vn 1.0000 0.0000 0.0000
vn 1.0000 0.0000 0.0000
vn 1.0000 0.0000 0.0000
vn 0.0045 1.0000 0.0000
vn 0.0045 1.0000 0.0000
vn 0.0045 1.0000 0.0000
vn 0.0045 1.0000 0.0000
vn 0.0045 1.0000 0.0000
vn 0.0045 1.0000 0.0000
vn 1.0000 0.0000 0.0000
vn 1.0000 0.0000 0.0000
vn 1.0000 0.0000 0.0000
vn 1.0000 0.0000 0.0000
vn 1.0000 0.0000 0.0000
vn 1.0000 0.0000 0.0000
vn -0.0021 0.0000 -1.0000
vn -0.0021 0.0000 -1.0000
vn -0.0021 0.0000 -1.0000
vn -0.0021 0.0000 -1.0000
vn -0.0021 0.0000 -1.0000
vn -0.0021 0.0000 -1.0000
vn -0.8527 0.0000 -0.5224
vn -0.8527 0.0000 -0.5224
vn -0.8527 0.0000 -0.5224
vn -0.8527 0.0000 -0.5224
vn -0.8527 0.0000 -0.5224
vn -0.8527 0.0000 -0.5224
vn -0.0005 0.9906 -0.1366
vn -0.0005 0.9906 -0.1366
vn -0.0005 0.9906 -0.1366
vn -0.0020 0.9907 -0.1361
vn -0.0020 0.9907 -0.1361
vn -0.0020 0.9907 -0.1361
vn -1.0000 0.0000 0.0000
vn -1.0000 0.0000 0.0000
vn -1.0000 0.0000 0.0000
vn -1.0000 0.0000 0.0000
vn -1.0000 0.0000 0.0000
vn -1.0000 0.0000 0.0000
vn 0.0024 0.0000 -1.0000
vn 0.0024 0.0000 -1.0000
vn 0.0024 0.0000 -1.0000
vn 0.0024 0.0000 -1.0000
vn 0.0024 0.0000 -1.0000
vn 0.0024 0.0000 -1.0000
vn 0.8772 0.0000 -0.4801
vn 0.8772 0.0000 -0.4801
vn 0.8772 0.0000 -0.4801
vn 0.8772 0.0000 -0.4801
vn 0.8772 0.0000 -0.4801
vn 0.8772 0.0000 -0.4801
vn 0.0006 0.9906 -0.1366
vn 0.0006 0.9906 -0.1366
vn 0.0006 0.9906 -0.1366
vn 0.0022 0.9907 -0.1361
vn 0.0022 0.9907 -0.1361
vn 0.0022 0.9907 -0.1361
vn 0.0000 0.9587 0.2844
vn 0.0000 0.9587 0.2844
vn 0.0000 0.9587 0.2844
vn 0.0000 0.9587 0.2844
vn 0.0000 0.9587 0.2844
vn 0.0000 0.9587 0.2844
vn 0.0000 0.6508 0.7593
vn 0.0000 0.6508 0.7593
vn 0.0000 0.6508 0.7593
vn 0.0000 0.6508 0.7593
vn 0.0000 0.6508 0.7593
vn 0.0000 0.6508 0.7593
vn 0.0000 0.2318 0.9728
vn 0.0000 0.2318 0.9728
vn 0.0000 0.2318 0.9728
vn 0.0000 0.2318 0.9728
vn 0.0000 0.2318 0.9728
vn 0.0000 0.2318 0.9728
vn 0.0000 0.1951 -0.9808
vn 0.0000 0.1951 -0.9808
vn 0.0000 0.1951 -0.9808
vn 0.0000 0.1951 -0.9808
vn 0.0000 0.1951 -0.9808
vn 0.0000 0.1951 -0.9808
vn 0.0000 0.6508 -0.7593
vn 0.0000 0.6508 -0.7593
vn 0.0000 0.6508 -0.7593
vn 0.0000 0.6508 -0.7593
vn 0.0000 0.6508 -0.7593
vn 0.0000 0.6508 -0.7593
vn 0.0000 0.9587 -0.2845
vn 0.0000 0.9587 -0.2845
vn 0.0000 0.9587 -0.2845
vn 0.0000 0.9587 -0.2845
vn 0.0000 0.9587 -0.2845
vn 0.0000 0.9587 -0.2845
vn 0.0000 -0.6549 -0.7557
vn 0.0000 -0.6549 -0.7557
vn 0.0000 -0.6549 -0.7557
vn 0.0000 -0.6549 -0.7557
vn 0.0000 -0.6549 -0.7557
vn 0.0000 -0.6549 -0.7557
vn 0.0000 -0.2590 -0.9659
vn 0.0000 -0.2590 -0.9659
vn 0.0000 -0.2590 -0.9659
vn 0.0000 -0.2590 -0.9659
vn 0.0000 -0.2590 -0.9659
vn 0.0000 -0.2590 -0.9659
vn 0.0000 -0.2438 0.9698
vn 0.0000 -0.2438 0.9698
vn 0.0000 -0.2438 0.9698
vn 0.0000 -0.2438 0.9698
vn 0.0000 -0.2438 0.9698
vn 0.0000 -0.2438 0.9698
vn 0.0000 -0.6549 0.7557
vn 0.0000 -0.6549 0.7557
vn 0.0000 -0.6549 0.7557
vn 0.0000 -0.6549 0.7557
vn 0.0000 -0.6549 0.7557
vn 0.0000 -0.6549 0.7557
vn -1.0000 0.0000 0.0000
vn -1.0000 0.0000 0.0000
vn -1.0000 0.0000 0.0000
vn -1.0000 0.0000 0.0000
vn -1.0000 0.0000 0.0000
vn -1.0000 0.0000 0.0000
vn 1.0000 0.0000 0.0000
vn 1.0000 0.0000 0.0000
vn 1.0000 0.0000 0.0000
vn 1.0000 0.0000 0.0000
vn 1.0000 0.0000 0.0000
vn 1.0000 0.0000 0.0000
vn -1.0000 0.0000 0.0000
vn -1.0000 0.0000 0.0000
vn -1.0000 0.0000 0.0000
vn -0.8212 -0.5280 -0.2166
vn -0.8212 -0.5280 -0.2166
vn -0.8212 -0.5280 -0.2166
vn 1.0000 0.0000 0.0000
vn 1.0000 0.0000 0.0000
vn 1.0000 0.0000 0.0000
vn 0.8207 -0.5286 -0.2168
vn 0.8207 -0.5286 -0.2168
vn 0.8207 -0.5286 -0.2168
vn -0.8552 -0.1352 -0.5004
vn -0.8552 -0.1352 -0.5004
vn -0.8552 -0.1352 -0.5004
vn -0.9178 0.3970 0.0000
vn -0.9178 0.3970 0.0000
vn -0.9178 0.3970 0.0000
vn 0.8524 -0.1212 -0.5087
vn 0.8524 -0.1212 -0.5087
vn 0.8524 -0.1212 -0.5087
vn 0.9084 0.4180 0.0000
vn 0.9084 0.4180 0.0000
vn 0.9084 0.4180 0.0000
vn -0.9998 -0.0157 -0.0101
vn -0.9998 -0.0157 -0.0101
vn -0.9998 -0.0157 -0.0101
vn -0.9993 0.0094 -0.0373
vn -0.9993 0.0094 -0.0373
vn -0.9993 0.0094 -0.0373
vn 1.0000 0.0000 0.0000
vn 1.0000 0.0000 0.0000
vn 1.0000 0.0000 0.0000
vn 1.0000 0.0000 0.0000
vn 1.0000 0.0000 0.0000
vn 1.0000 0.0000 0.0000
vn -1.0000 0.0000 0.0000
vn -1.0000 0.0000 0.0000
vn -1.0000 0.0000 0.0000
vn -1.0000 0.0000 0.0000
vn -1.0000 0.0000 0.0000
vn -1.0000 0.0000 0.0000
vn 1.0000 0.0000 0.0000
vn 1.0000 0.0000 0.0000
vn 1.0000 0.0000 0.0000
vn 1.0000 0.0000 0.0000
vn 1.0000 0.0000 0.0000
vn 1.0000 0.0000 0.0000
vn -1.0000 0.0000 0.0000
vn -1.0000 0.0000 0.0000
vn -1.0000 0.0000 0.0000
vn -1.0000 0.0000 0.0000
vn -1.0000 0.0000 0.0000
vn -1.0000 0.0000 0.0000
vn 1.0000 0.0000 0.0000
vn 1.0000 0.0000 0.0000
vn 1.0000 0.0000 0.0000
vn 1.0000 0.0000 0.0000
vn 1.0000 0.0000 0.0000
vn 1.0000 0.0000 0.0000
vn 0.0000 -0.3440 -0.9390
vn 0.0000 -0.3440 -0.9390
vn 0.0000 -0.3440 -0.9390
vn 0.0000 -0.3440 -0.9390
vn 0.0000 -0.3440 -0.9390
vn 0.0000 -0.3440 -0.9390
vn 0.0000 0.6507 -0.7593
vn 0.0000 0.6507 -0.7593
vn 0.0000 0.6507 -0.7593
vn 0.0000 0.6507 -0.7593
vn 0.0000 0.6507 -0.7593
vn 0.0000 0.6507 -0.7593
vn 0.0000 0.2214 -0.9752
vn 0.0000 0.2214 -0.9752
vn 0.0000 0.2214 -0.9752
vn 0.0000 0.2214 -0.9752
vn 0.0000 0.2214 -0.9752
vn 0.0000 0.2214 -0.9752
vn 0.0000 -0.6549 -0.7557
vn 0.0000 -0.6549 -0.7557
vn 0.0000 -0.6549 -0.7557
vn 0.0000 -0.6549 -0.7557
vn 0.0000 -0.6549 -0.7557
vn 0.0000 -0.6549 -0.7557
vn 0.0000 -0.2585 -0.9660
vn 0.0000 -0.2585 -0.9660
vn 0.0000 -0.2585 -0.9660
vn 0.0000 -0.2585 -0.9660
vn 0.0000 -0.2585 -0.9660
vn 0.0000 -0.2585 -0.9660
vn 0.0000 -0.2693 0.9631
vn 0.0000 -0.2693 0.9631
vn 0.0000 -0.2693 0.9631
vn 0.0000 -0.2693 0.9631
vn 0.0000 -0.2693 0.9631
vn 0.0000 -0.2693 0.9631
vn 0.0000 -0.6549 0.7557
vn 0.0000 -0.6549 0.7557
vn 0.0000 -0.6549 0.7557
vn 0.0000 -0.6549 0.7557
vn 0.0000 -0.6549 0.7557
vn 0.0000 -0.6549 0.7557
vn -1.0000 0.0000 0.0000
vn -1.0000 0.0000 0.0000
vn -1.0000 0.0000 0.0000
vn -1.0000 0.0000 0.0000
vn -1.0000 0.0000 0.0000
vn -1.0000 0.0000 0.0000
vn 1.0000 0.0000 0.0000
vn 1.0000 0.0000 0.0000
vn 1.0000 0.0000 0.0000
vn 1.0000 0.0000 0.0000
vn 1.0000 0.0000 0.0000
vn 1.0000 0.0000 0.0000
vn -1.0000 0.0000 0.0000
vn -1.0000 0.0000 0.0000
vn -1.0000 0.0000 0.0000
vn -1.0000 0.0000 0.0000
vn -1.0000 0.0000 0.0000
vn -1.0000 0.0000 0.0000
vn 1.0000 0.0000 0.0000
vn 1.0000 0.0000 0.0000
vn 1.0000 0.0000 0.0000
vn 1.0000 0.0000 0.0000
vn 1.0000 0.0000 0.0000
vn 1.0000 0.0000 0.0000
vn -0.9998 -0.0179 0.0119
vn -0.9998 -0.0179 0.0119
vn -0.9998 -0.0179 0.0119
vn -0.9996 -0.0299 0.0000
vn -0.9996 -0.0299 0.0000
vn -0.9996 -0.0299 0.0000
vn 1.0000 0.0000 0.0000
vn 1.0000 0.0000 0.0000
vn 1.0000 0.0000 0.0000
vn 1.0000 0.0000 0.0000
vn 1.0000 0.0000 0.0000
vn 1.0000 0.0000 0.0000
vn -0.9998 -0.0169 -0.0109
vn -0.9998 -0.0169 -0.0109
vn -0.9998 -0.0169 -0.0109
vn -0.9991 0.0115 -0.0411
vn -0.9991 0.0115 -0.0411
vn -0.9991 0.0115 -0.0411
vn 1.0000 0.0000 0.0000
vn 1.0000 0.0000 0.0000
vn 1.0000 0.0000 0.0000
vn 1.0000 0.0000 0.0000
vn 1.0000 0.0000 0.0000
vn 1.0000 0.0000 0.0000
vn -1.0000 0.0000 0.0000
vn -1.0000 0.0000 0.0000
vn -1.0000 0.0000 0.0000
vn -1.0000 0.0000 0.0000
vn -1.0000 0.0000 0.0000
vn -1.0000 0.0000 0.0000
vn 1.0000 0.0000 0.0000
vn 1.0000 0.0000 0.0000
vn 1.0000 0.0000 0.0000
vn 1.0000 0.0000 0.0000
vn 1.0000 0.0000 0.0000
vn 1.0000 0.0000 0.0000
vn -1.0000 0.0000 0.0000
vn -1.0000 0.0000 0.0000
vn -1.0000 0.0000 0.0000
vn -1.0000 0.0000 0.0000
vn -1.0000 0.0000 0.0000
vn -1.0000 0.0000 0.0000
vn 1.0000 0.0000 0.0000
vn 1.0000 0.0000 0.0000
vn 1.0000 0.0000 0.0000
vn 1.0000 0.0000 0.0000
vn 1.0000 0.0000 0.0000
vn 1.0000 0.0000 0.0000
vn 0.0000 0.9587 -0.2844
vn 0.0000 0.9587 -0.2844
vn 0.0000 0.9587 -0.2844
vn 0.0000 0.9587 -0.2844
vn 0.0000 0.9587 -0.2844
vn 0.0000 0.9587 -0.2844
vn 0.0000 0.2324 0.9726
vn 0.0000 0.2324 0.9726
vn 0.0000 0.2324 0.9726
vn 0.0000 0.2324 0.9726
vn 0.0000 0.2324 0.9726
vn 0.0000 0.2324 0.9726
vn 0.0000 -0.2413 0.9704
vn 0.0000 -0.2413 0.9704
vn 0.0000 -0.2413 0.9704
vn 0.0000 -0.2413 0.9704
vn 0.0000 -0.2413 0.9704
vn 0.0000 -0.2413 0.9704
vn -1.0000 0.0000 0.0000
vn -1.0000 0.0000 0.0000
vn -1.0000 0.0000 0.0000
vn -1.0000 0.0000 0.0000
vn -1.0000 0.0000 0.0000
vn -1.0000 0.0000 0.0000
vn 0.0000 0.2407 -0.9706
vn 0.0000 0.2407 -0.9706
vn 0.0000 0.2407 -0.9706
vn 0.0000 0.2407 -0.9706
vn 0.0000 0.2407 -0.9706
vn 0.0000 0.2407 -0.9706
vn 1.0000 0.0000 0.0000
vn 1.0000 0.0000 0.0000
vn 1.0000 0.0000 0.0000
vn 1.0000 0.0000 0.0000
vn 1.0000 0.0000 0.0000
vn 1.0000 0.0000 0.0000
vn 1.0000 0.0000 0.0000
vn 1.0000 0.0000 0.0000
vn 1.0000 0.0000 0.0000
vn 1.0000 0.0000 0.0000
vn 1.0000 0.0000 0.0000
vn 1.0000 0.0000 0.0000
vn -0.9990 -0.0150 -0.0411
vn -0.9990 -0.0150 -0.0411
vn -0.9990 -0.0150 -0.0411
vn -0.9990 -0.0150 -0.0411
vn -0.9990 -0.0150 -0.0411
vn -0.9990 -0.0150 -0.0411
vn 0.0000 0.3433 0.9392
vn 0.0000 0.3433 0.9392
vn 0.0000 0.3433 0.9392
vn 0.0000 0.3433 0.9392
vn 0.0000 0.3433 0.9392
vn 0.0000 0.3433 0.9392
vn 0.0000 -0.3440 -0.9390
vn 0.0000 -0.3440 -0.9390
vn 0.0000 -0.3440 -0.9390
vn 0.0000 -0.3440 -0.9390
vn 0.0000 -0.3440 -0.9390
vn 0.0000 -0.3440 -0.9390
vn -0.9993 -0.0093 -0.0364
vn -0.9993 -0.0093 -0.0364
vn -0.9993 -0.0093 -0.0364
vn -0.9993 -0.0093 -0.0364
vn -0.9993 -0.0093 -0.0364
vn -0.9993 -0.0093 -0.0364
vn 0.0000 0.2485 0.9686
vn 0.0000 0.2485 0.9686
vn 0.0000 0.2485 0.9686
vn 0.0000 0.2485 0.9686
vn 0.0000 0.2485 0.9686
vn 0.0000 0.2485 0.9686
vn 1.0000 0.0000 0.0000
vn 1.0000 0.0000 0.0000
vn 1.0000 0.0000 0.0000
vn 1.0000 0.0000 0.0000
vn 1.0000 0.0000 0.0000
vn 1.0000 0.0000 0.0000
vn 0.0000 -0.2485 -0.9686
vn 0.0000 -0.2485 -0.9686
vn 0.0000 -0.2485 -0.9686
vn 0.0000 -0.2485 -0.9686
vn 0.0000 -0.2485 -0.9686
vn 0.0000 -0.2485 -0.9686
vn 0.9320 -0.3624 0.0000
vn 0.9320 -0.3624 0.0000
vn 0.9320 -0.3624 0.0000
vn -0.9911 -0.0441 0.1254
vn -0.9911 -0.0441 0.1254
vn -0.9911 -0.0441 0.1254
vn -0.9953 0.0970 0.0000
vn -0.9953 0.0970 0.0000
vn -0.9953 0.0970 0.0000
vn 0.5780 0.2286 -0.7833
vn 0.5780 0.2286 -0.7833
vn 0.5780 0.2286 -0.7833
vn -0.0041 0.2362 -0.9717
vn -0.0041 0.2362 -0.9717
vn -0.0041 0.2362 -0.9717
vn 0.0000 0.2913 -0.9566
vn 0.0000 0.2913 -0.9566
vn 0.0000 0.2913 -0.9566
vn -0.2303 -0.1749 -0.9573
vn -0.2303 -0.1749 -0.9573
vn -0.2303 -0.1749 -0.9573
vn 0.0000 0.9433 -0.3318
vn 0.0000 0.9433 -0.3318
vn 0.0000 0.9433 -0.3318
vn 0.0000 0.6507 0.7593
vn 0.0000 0.6507 0.7593
vn 0.0000 0.6507 0.7593
vn 0.0000 0.6507 0.7593
vn 0.0000 0.6507 0.7593
vn 0.0000 0.6507 0.7593
vn 0.0000 -0.2413 0.9704
vn 0.0000 -0.2413 0.9704
vn 0.0000 -0.2413 0.9704
vn 0.0000 -0.2413 0.9704
vn 0.0000 -0.2413 0.9704
vn 0.0000 -0.2413 0.9704
vn 0.0000 0.2324 0.9726
vn 0.0000 0.2324 0.9726
vn 0.0000 0.2324 0.9726
vn 0.0000 0.2324 0.9726
vn 0.0000 0.2324 0.9726
vn 0.0000 0.2324 0.9726
vn 0.0000 0.6507 0.7593
vn 0.0000 0.6507 0.7593
vn 0.0000 0.6507 0.7593
vn 0.0000 0.6507 0.7593
vn 0.0000 0.6507 0.7593
vn 0.0000 0.6507 0.7593
vn 0.0000 0.9587 -0.2844
vn 0.0000 0.9587 -0.2844
vn 0.0000 0.9587 -0.2844
vn 0.0000 0.9587 -0.2844
vn 0.0000 0.9587 -0.2844
vn 0.0000 0.9587 -0.2844
vn 0.0000 0.9587 0.2843
vn 0.0000 0.9587 0.2843
vn 0.0000 0.9587 0.2843
vn 0.0000 0.9587 0.2843
vn 0.0000 0.9587 0.2843
vn 0.0000 0.9587 0.2843
vn 0.0000 0.2214 -0.9752
vn 0.0000 0.2214 -0.9752
vn 0.0000 0.2214 -0.9752
vn 0.0000 0.2214 -0.9752
vn 0.0000 0.2214 -0.9752
vn 0.0000 0.2214 -0.9752
vn 0.0000 0.6507 -0.7593
vn 0.0000 0.6507 -0.7593
vn 0.0000 0.6507 -0.7593
vn 0.0000 0.6507 -0.7593
vn 0.0000 0.6507 -0.7593
vn 0.0000 0.6507 -0.7593
vn 0.0000 0.9587 0.2843
vn 0.0000 0.9587 0.2843
vn 0.0000 0.9587 0.2843
vn 0.0000 0.9587 0.2843
vn 0.0000 0.9587 0.2843
vn 0.0000 0.9587 0.2843
vn 0.0000 0.6549 -0.7558
vn 0.0000 0.6549 -0.7558
vn 0.0000 0.6549 -0.7558
vn 0.0000 0.6549 -0.7558
vn 0.0000 0.6549 -0.7558
vn 0.0000 0.6549 -0.7558
vn 0.0000 0.1422 -0.9898
vn 0.0000 0.1422 -0.9898
vn 0.0000 0.1422 -0.9898
vn 0.0000 0.1422 -0.9898
vn 0.0000 0.1422 -0.9898
vn 0.0000 0.1422 -0.9898
vn 0.0000 -0.4154 -0.9097
vn 0.0000 -0.4154 -0.9097
vn 0.0000 -0.4154 -0.9097
vn 0.0000 -0.4154 -0.9097
vn 0.0000 -0.4154 -0.9097
vn 0.0000 -0.4154 -0.9097
vn 0.0000 -0.8411 -0.5409
vn 0.0000 -0.8411 -0.5409
vn 0.0000 -0.8411 -0.5409
vn 0.0000 -0.8411 -0.5409
vn 0.0000 -0.8411 -0.5409
vn 0.0000 -0.8411 -0.5409
vn 0.0000 -1.0000 0.0000
vn 0.0000 -1.0000 0.0000
vn 0.0000 -1.0000 0.0000
vn 0.0000 -1.0000 0.0000
vn 0.0000 -1.0000 0.0000
vn 0.0000 -1.0000 0.0000
vn 0.0000 -0.8411 0.5409
vn 0.0000 -0.8411 0.5409
vn 0.0000 -0.8411 0.5409
vn 0.0000 -0.8411 0.5409
vn 0.0000 -0.8411 0.5409
vn 0.0000 -0.8411 0.5409
vn 0.0000 -0.4154 0.9097
vn 0.0000 -0.4154 0.9097
vn 0.0000 -0.4154 0.9097
vn 0.0000 -0.4154 0.9097
vn 0.0000 -0.4154 0.9097
vn 0.0000 -0.4154 0.9097
vn 0.0000 0.1422 0.9898
vn 0.0000 0.1422 0.9898
vn 0.0000 0.1422 0.9898
vn 0.0000 0.1422 0.9898
vn 0.0000 0.1422 0.9898
vn 0.0000 0.1422 0.9898
vn 0.0000 0.6549 0.7558
vn 0.0000 0.6549 0.7558
vn 0.0000 0.6549 0.7558
vn 0.0000 0.6549 0.7558
vn 0.0000 0.6549 0.7558
vn 0.0000 0.6549 0.7558
vn 0.0000 0.9595 0.2818
vn 0.0000 0.9595 0.2818
vn 0.0000 0.9595 0.2818
vn 0.0000 0.9595 0.2818
vn 0.0000 0.9595 0.2818
vn 0.0000 0.9595 0.2818
vn 0.0000 0.9594 -0.2820
vn 0.0000 0.9594 -0.2820
vn 0.0000 0.9594 -0.2820
vn 0.0000 0.9594 -0.2820
vn 0.0000 0.9594 -0.2820
vn 0.0000 0.9594 -0.2820
vn 0.9362 0.1460 0.3197
vn 0.9362 0.1460 0.3197
vn 0.9362 0.1460 0.3197
vn 0.9362 -0.3371 0.0991
vn 0.9362 -0.3371 0.0991
vn 0.9362 -0.3371 0.0991
vn 0.9362 0.1459 -0.3196
vn 0.9362 0.1459 -0.3196
vn 0.9362 0.1459 -0.3196
vn 0.9362 0.2955 0.1901
vn 0.9362 0.2955 0.1901
vn 0.9362 0.2955 0.1901
vn 0.9362 -0.2301 0.2656
vn 0.9362 -0.2301 0.2656
vn 0.9362 -0.2301 0.2656
vn 0.9363 -0.0500 -0.3478
vn 0.9363 -0.0500 -0.3478
vn 0.9363 -0.0500 -0.3478
vn 0.9362 0.3513 0.0000
vn 0.9362 0.3513 0.0000
vn 0.9362 0.3513 0.0000
vn 0.9362 -0.0500 0.3479
vn 0.9362 -0.0500 0.3479
vn 0.9362 -0.0500 0.3479
vn 0.9363 -0.2301 -0.2655
vn 0.9363 -0.2301 -0.2655
vn 0.9363 -0.2301 -0.2655
vn 0.9363 0.2955 -0.1900
vn 0.9363 0.2955 -0.1900
vn 0.9363 0.2955 -0.1900
vn 1.0000 0.0000 0.0000
vn 1.0000 0.0000 0.0000
vn 1.0000 0.0000 0.0000
vn 1.0000 0.0000 0.0000
vn 1.0000 0.0000 0.0000
vn 1.0000 0.0000 0.0000
vn 1.0000 0.0000 0.0000
vn 1.0000 0.0000 0.0000
vn 1.0000 0.0000 0.0000
vn 0.9363 -0.3371 -0.0990
vn 0.9363 -0.3371 -0.0990
vn 0.9363 -0.3371 -0.0990
vn 1.0000 0.0000 0.0000
vn 1.0000 0.0000 0.0000
vn 1.0000 0.0000 0.0000
vn 1.0000 0.0000 0.0000
vn 1.0000 0.0000 0.0000
vn 1.0000 0.0000 0.0000
vn 1.0000 0.0000 0.0000
vn 1.0000 0.0000 0.0000
vn 1.0000 0.0000 0.0000
vn 1.0000 0.0000 0.0000
vn 1.0000 0.0000 0.0000
vn 1.0000 0.0000 0.0000
vn 1.0000 0.0000 0.0000
vn 1.0000 0.0000 0.0000
vn 1.0000 0.0000 0.0000
vn 0.0000 0.6547 -0.7559
vn 0.0000 0.6547 -0.7559
vn 0.0000 0.6547 -0.7559
vn 0.0000 0.6547 -0.7559
vn 0.0000 0.6547 -0.7559
vn 0.0000 0.6547 -0.7559
vn 0.0000 0.1429 -0.9897
vn 0.0000 0.1429 -0.9897
vn 0.0000 0.1429 -0.9897
vn 0.0000 0.1429 -0.9897
vn 0.0000 0.1429 -0.9897
vn 0.0000 0.1429 -0.9897
vn 0.0000 -0.4154 -0.9097
vn 0.0000 -0.4154 -0.9097
vn 0.0000 -0.4154 -0.9097
vn 0.0000 -0.4154 -0.9097
vn 0.0000 -0.4154 -0.9097
vn 0.0000 -0.4154 -0.9097
vn -0.0003 -0.8412 -0.5406
vn -0.0003 -0.8412 -0.5406
vn -0.0003 -0.8412 -0.5406
vn 0.0000 -0.8415 -0.5403
vn 0.0000 -0.8415 -0.5403
vn 0.0000 -0.8415 -0.5403
vn -0.0003 -1.0000 0.0000
vn -0.0003 -1.0000 0.0000
vn -0.0003 -1.0000 0.0000
vn 0.0000 -1.0000 -0.0005
vn 0.0000 -1.0000 -0.0005
vn 0.0000 -1.0000 -0.0005
vn 0.0000 -0.8411 0.5409
vn 0.0000 -0.8411 0.5409
vn 0.0000 -0.8411 0.5409
vn 0.0000 -0.8411 0.5409
vn 0.0000 -0.8411 0.5409
vn 0.0000 -0.8411 0.5409
vn 0.0000 -0.4154 0.9097
vn 0.0000 -0.4154 0.9097
vn 0.0000 -0.4154 0.9097
vn 0.0000 -0.4154 0.9097
vn 0.0000 -0.4154 0.9097
vn 0.0000 -0.4154 0.9097
vn 0.0000 0.1423 0.9898
vn 0.0000 0.1423 0.9898
vn 0.0000 0.1423 0.9898
vn 0.0000 0.1423 0.9898
vn 0.0000 0.1423 0.9898
vn 0.0000 0.1423 0.9898
vn 0.0000 0.6547 0.7559
vn 0.0000 0.6547 0.7559
vn 0.0000 0.6547 0.7559
vn 0.0000 0.6547 0.7559
vn 0.0000 0.6547 0.7559
vn 0.0000 0.6547 0.7559
vn 0.0000 0.9595 0.2818
vn 0.0000 0.9595 0.2818
vn 0.0000 0.9595 0.2818
vn 0.0000 0.9595 0.2818
vn 0.0000 0.9595 0.2818
vn 0.0000 0.9595 0.2818
vn 0.0000 0.9595 -0.2818
vn 0.0000 0.9595 -0.2818
vn 0.0000 0.9595 -0.2818
vn 0.0000 0.9595 -0.2818
vn 0.0000 0.9595 -0.2818
vn 0.0000 0.9595 -0.2818
vn 0.9577 0.1195 0.2618
vn 0.9577 0.1195 0.2618
vn 0.9577 0.1195 0.2618
vn 0.9577 -0.2761 0.0811
vn 0.9577 -0.2761 0.0811
vn 0.9577 -0.2761 0.0811
vn 0.9577 0.1196 -0.2619
vn 0.9577 0.1196 -0.2619
vn 0.9577 0.1196 -0.2619
vn 0.9577 0.2421 0.1556
vn 0.9577 0.2421 0.1556
vn 0.9577 0.2421 0.1556
vn 0.9577 -0.1884 0.2175
vn 0.9577 -0.1884 0.2175
vn 0.9577 -0.1884 0.2175
vn 0.9577 -0.0410 -0.2849
vn 0.9577 -0.0410 -0.2849
vn 0.9577 -0.0410 -0.2849
vn 0.9577 0.2878 0.0000
vn 0.9577 0.2878 0.0000
vn 0.9577 0.2878 0.0000
vn 0.9577 -0.0411 0.2848
vn 0.9577 -0.0411 0.2848
vn 0.9577 -0.0411 0.2848
vn 0.9577 -0.1884 -0.2175
vn 0.9577 -0.1884 -0.2175
vn 0.9577 -0.1884 -0.2175
vn 0.9577 0.2421 -0.1557
vn 0.9577 0.2421 -0.1557
vn 0.9577 0.2421 -0.1557
vn 1.0000 0.0000 0.0000
vn 1.0000 0.0000 0.0000
vn 1.0000 0.0000 0.0000
vn 1.0000 0.0000 0.0000
vn 1.0000 0.0000 0.0000
vn 1.0000 0.0000 0.0000
vn 1.0000 0.0000 0.0000
vn 1.0000 0.0000 0.0000
vn 1.0000 0.0000 0.0000
vn 0.9577 -0.2761 -0.0811
vn 0.9577 -0.2761 -0.0811
vn 0.9577 -0.2761 -0.0811
vn 1.0000 0.0000 0.0000
vn 1.0000 0.0000 0.0000
vn 1.0000 0.0000 0.0000
vn 1.0000 0.0000 0.0000
vn 1.0000 0.0000 0.0000
vn 1.0000 0.0000 0.0000
vn 1.0000 0.0000 0.0000
vn 1.0000 0.0000 0.0000
vn 1.0000 0.0000 0.0000
vn 1.0000 0.0000 0.0000
vn 1.0000 0.0000 0.0000
vn 1.0000 0.0000 0.0000
vn 1.0000 0.0000 0.0000
vn 1.0000 0.0000 0.0000
vn 1.0000 0.0000 0.0000
vn 0.0000 -0.6232 -0.7821
vn 0.0000 -0.6232 -0.7821
vn 0.0000 -0.6232 -0.7821
vn 0.0000 -0.6232 -0.7821
vn 0.0000 -0.6232 -0.7821
vn 0.0000 -0.6232 -0.7821
vn 0.0000 -1.0000 0.0000
vn 0.0000 -1.0000 0.0000
vn 0.0000 -1.0000 0.0000
vn 0.0000 -1.0000 0.0000
vn 0.0000 -1.0000 0.0000
vn 0.0000 -1.0000 0.0000
vn 0.0000 -0.6232 0.7821
vn 0.0000 -0.6232 0.7821
vn 0.0000 -0.6232 0.7821
vn 0.0000 -0.6232 0.7821
vn 0.0000 -0.6232 0.7821
vn 0.0000 -0.6232 0.7821
vn 0.0000 0.2225 0.9749
vn 0.0000 0.2225 0.9749
vn 0.0000 0.2225 0.9749
vn 0.0000 0.2225 0.9749
vn 0.0000 0.2225 0.9749
vn 0.0000 0.2225 0.9749
vn 0.0000 0.9008 -0.4342
vn 0.0000 0.9008 -0.4342
vn 0.0000 0.9008 -0.4342
vn 0.0000 0.9008 -0.4342
vn 0.0000 0.9008 -0.4342
vn 0.0000 0.9008 -0.4342
vn 0.0000 0.9010 0.4337
vn 0.0000 0.9010 0.4337
vn 0.0000 0.9010 0.4337
vn 0.0000 0.9010 0.4337
vn 0.0000 0.9010 0.4337
vn 0.0000 0.9010 0.4337
vn 0.0000 0.2225 -0.9749
vn 0.0000 0.2225 -0.9749
vn 0.0000 0.2225 -0.9749
vn 0.0000 0.2225 -0.9749
vn 0.0000 0.2225 -0.9749
vn 0.0000 0.2225 -0.9749
vn 0.0000 -0.6229 -0.7823
vn 0.0000 -0.6229 -0.7823
vn 0.0000 -0.6229 -0.7823
vn 0.0000 -0.6238 -0.7816
vn 0.0000 -0.6238 -0.7816
vn 0.0000 -0.6238 -0.7816
vn 0.0000 -1.0000 0.0000
vn 0.0000 -1.0000 0.0000
vn 0.0000 -1.0000 0.0000
vn 0.0000 -1.0000 0.0000
vn 0.0000 -1.0000 0.0000
vn 0.0000 -1.0000 0.0000
vn 0.0000 -0.6229 0.7823
vn 0.0000 -0.6229 0.7823
vn 0.0000 -0.6229 0.7823
vn 0.0000 -0.6238 0.7816
vn 0.0000 -0.6238 0.7816
vn 0.0000 -0.6238 0.7816
vn 0.0000 0.2208 0.9753
vn 0.0000 0.2208 0.9753
vn 0.0000 0.2208 0.9753
vn 0.0000 0.2208 0.9753
vn 0.0000 0.2208 0.9753
vn 0.0000 0.2208 0.9753
vn 0.0000 0.9012 -0.4334
vn 0.0000 0.9012 -0.4334
vn 0.0000 0.9012 -0.4334
vn 0.0000 0.9012 -0.4334
vn 0.0000 0.9012 -0.4334
vn 0.0000 0.9012 -0.4334
vn 0.0000 0.9016 0.4327
vn 0.0000 0.9016 0.4327
vn 0.0000 0.9016 0.4327
vn 0.0000 0.9016 0.4327
vn 0.0000 0.9016 0.4327
vn 0.0000 0.9016 0.4327
vn 0.0000 0.6549 -0.7558
vn 0.0000 0.6549 -0.7558
vn 0.0000 0.6549 -0.7558
vn 0.0000 0.6549 -0.7558
vn 0.0000 0.6549 -0.7558
vn 0.0000 0.6549 -0.7558
vn 0.0000 0.1422 -0.9898
vn 0.0000 0.1422 -0.9898
vn 0.0000 0.1422 -0.9898
vn 0.0000 0.1422 -0.9898
vn 0.0000 0.1422 -0.9898
vn 0.0000 0.1422 -0.9898
vn 0.0000 -0.4154 -0.9097
vn 0.0000 -0.4154 -0.9097
vn 0.0000 -0.4154 -0.9097
vn 0.0000 -0.4154 -0.9097
vn 0.0000 -0.4154 -0.9097
vn 0.0000 -0.4154 -0.9097
vn 0.0000 -0.8411 -0.5409
vn 0.0000 -0.8411 -0.5409
vn 0.0000 -0.8411 -0.5409
vn 0.0000 -0.8411 -0.5409
vn 0.0000 -0.8411 -0.5409
vn 0.0000 -0.8411 -0.5409
vn 0.0000 -1.0000 0.0000
vn 0.0000 -1.0000 0.0000
vn 0.0000 -1.0000 0.0000
vn 0.0000 -1.0000 0.0000
vn 0.0000 -1.0000 0.0000
vn 0.0000 -1.0000 0.0000
vn 0.0000 -0.8411 0.5409
vn 0.0000 -0.8411 0.5409
vn 0.0000 -0.8411 0.5409
vn 0.0000 -0.8411 0.5409
vn 0.0000 -0.8411 0.5409
vn 0.0000 -0.8411 0.5409
vn 0.0000 -0.4154 0.9097
vn 0.0000 -0.4154 0.9097
vn 0.0000 -0.4154 0.9097
vn 0.0000 -0.4154 0.9097
vn 0.0000 -0.4154 0.9097
vn 0.0000 -0.4154 0.9097
vn 0.0000 0.1422 0.9898
vn 0.0000 0.1422 0.9898
vn 0.0000 0.1422 0.9898
vn 0.0000 0.1422 0.9898
vn 0.0000 0.1422 0.9898
vn 0.0000 0.1422 0.9898
vn 0.0000 0.6549 0.7558
vn 0.0000 0.6549 0.7558
vn 0.0000 0.6549 0.7558
vn 0.0000 0.6549 0.7558
vn 0.0000 0.6549 0.7558
vn 0.0000 0.6549 0.7558
vn 0.0000 0.9595 0.2818
vn 0.0000 0.9595 0.2818
vn 0.0000 0.9595 0.2818
vn 0.0000 0.9595 0.2818
vn 0.0000 0.9595 0.2818
vn 0.0000 0.9595 0.2818
vn 0.0000 0.9594 -0.2820
vn 0.0000 0.9594 -0.2820
vn 0.0000 0.9594 -0.2820
vn 0.0000 0.9594 -0.2820
vn 0.0000 0.9594 -0.2820
vn 0.0000 0.9594 -0.2820
vn -0.9361 0.1461 0.3200
vn -0.9361 0.1461 0.3200
vn -0.9361 0.1461 0.3200
vn -0.9361 -0.3374 0.0992
vn -0.9361 -0.3374 0.0992
vn -0.9361 -0.3374 0.0992
vn -0.9361 0.1461 -0.3199
vn -0.9361 0.1461 -0.3199
vn -0.9361 0.1461 -0.3199
vn -0.9361 0.2958 0.1902
vn -0.9361 0.2958 0.1902
vn -0.9361 0.2958 0.1902
vn -0.9361 -0.2303 0.2658
vn -0.9361 -0.2303 0.2658
vn -0.9361 -0.2303 0.2658
vn -0.9361 -0.0500 -0.3481
vn -0.9361 -0.0500 -0.3481
vn -0.9361 -0.0500 -0.3481
vn -0.9361 0.3517 0.0000
vn -0.9361 0.3517 0.0000
vn -0.9361 0.3517 0.0000
vn -0.9361 -0.0500 0.3482
vn -0.9361 -0.0500 0.3482
vn -0.9361 -0.0500 0.3482
vn -0.9361 -0.2303 -0.2657
vn -0.9361 -0.2303 -0.2657
vn -0.9361 -0.2303 -0.2657
vn -0.9361 0.2957 -0.1902
vn -0.9361 0.2957 -0.1902
vn -0.9361 0.2957 -0.1902
vn -1.0000 0.0000 0.0000
vn -1.0000 0.0000 0.0000
vn -1.0000 0.0000 0.0000
vn -1.0000 0.0000 0.0000
vn -1.0000 0.0000 0.0000
vn -1.0000 0.0000 0.0000
vn -1.0000 0.0000 0.0000
vn -1.0000 0.0000 0.0000
vn -1.0000 0.0000 0.0000
vn -0.9361 -0.3374 -0.0991
vn -0.9361 -0.3374 -0.0991
vn -0.9361 -0.3374 -0.0991
vn -1.0000 0.0000 0.0000
vn -1.0000 0.0000 0.0000
vn -1.0000 0.0000 0.0000
vn -1.0000 0.0000 0.0000
vn -1.0000 0.0000 0.0000
vn -1.0000 0.0000 0.0000
vn -1.0000 0.0000 0.0000
vn -1.0000 0.0000 0.0000
vn -1.0000 0.0000 0.0000
vn -1.0000 0.0000 0.0000
vn -1.0000 0.0000 0.0000
vn -1.0000 0.0000 0.0000
vn -1.0000 0.0000 0.0000
vn -1.0000 0.0000 0.0000
vn -1.0000 0.0000 0.0000
vn 0.0000 0.6547 -0.7559
vn 0.0000 0.6547 -0.7559
vn 0.0000 0.6547 -0.7559
vn 0.0000 0.6547 -0.7559
vn 0.0000 0.6547 -0.7559
vn 0.0000 0.6547 -0.7559
vn 0.0000 0.1429 -0.9897
vn 0.0000 0.1429 -0.9897
vn 0.0000 0.1429 -0.9897
vn 0.0000 0.1429 -0.9897
vn 0.0000 0.1429 -0.9897
vn 0.0000 0.1429 -0.9897
vn 0.0000 -0.4154 -0.9097
vn 0.0000 -0.4154 -0.9097
vn 0.0000 -0.4154 -0.9097
vn 0.0000 -0.4154 -0.9097
vn 0.0000 -0.4154 -0.9097
vn 0.0000 -0.4154 -0.9097
vn 0.0000 -0.8415 -0.5403
vn 0.0000 -0.8415 -0.5403
vn 0.0000 -0.8415 -0.5403
vn 0.0000 -0.8415 -0.5403
vn 0.0000 -0.8415 -0.5403
vn 0.0000 -0.8415 -0.5403
vn 0.0000 -1.0000 0.0000
vn 0.0000 -1.0000 0.0000
vn 0.0000 -1.0000 0.0000
vn 0.0000 -1.0000 0.0000
vn 0.0000 -1.0000 0.0000
vn 0.0000 -1.0000 0.0000
vn 0.0000 -0.8413 0.5405
vn 0.0000 -0.8413 0.5405
vn 0.0000 -0.8413 0.5405
vn 0.0000 -0.8413 0.5405
vn 0.0000 -0.8413 0.5405
vn 0.0000 -0.8413 0.5405
vn 0.0000 -0.4154 0.9097
vn 0.0000 -0.4154 0.9097
vn 0.0000 -0.4154 0.9097
vn 0.0000 -0.4154 0.9097
vn 0.0000 -0.4154 0.9097
vn 0.0000 -0.4154 0.9097
vn 0.0000 0.1423 0.9898
vn 0.0000 0.1423 0.9898
vn 0.0000 0.1423 0.9898
vn 0.0000 0.1423 0.9898
vn 0.0000 0.1423 0.9898
vn 0.0000 0.1423 0.9898
vn 0.0000 0.6547 0.7559
vn 0.0000 0.6547 0.7559
vn 0.0000 0.6547 0.7559
vn 0.0000 0.6547 0.7559
vn 0.0000 0.6547 0.7559
vn 0.0000 0.6547 0.7559
vn 0.0000 0.9595 0.2818
vn 0.0000 0.9595 0.2818
vn 0.0000 0.9595 0.2818
vn 0.0000 0.9595 0.2818
vn 0.0000 0.9595 0.2818
vn 0.0000 0.9595 0.2818
vn 0.0000 0.9595 -0.2818
vn 0.0000 0.9595 -0.2818
vn 0.0000 0.9595 -0.2818
vn 0.0000 0.9595 -0.2818
vn 0.0000 0.9595 -0.2818
vn 0.0000 0.9595 -0.2818
vn -0.9577 0.1195 0.2618
vn -0.9577 0.1195 0.2618
vn -0.9577 0.1195 0.2618
vn -0.9577 -0.2761 0.0811
vn -0.9577 -0.2761 0.0811
vn -0.9577 -0.2761 0.0811
vn -0.9577 0.1196 -0.2619
vn -0.9577 0.1196 -0.2619
vn -0.9577 0.1196 -0.2619
vn -0.9577 0.2422 0.1555
vn -0.9577 0.2422 0.1555
vn -0.9577 0.2422 0.1555
vn -0.9577 -0.1884 0.2175
vn -0.9577 -0.1884 0.2175
vn -0.9577 -0.1884 0.2175
vn -0.9577 -0.0410 -0.2849
vn -0.9577 -0.0410 -0.2849
vn -0.9577 -0.0410 -0.2849
vn -0.9577 0.2879 0.0000
vn -0.9577 0.2879 0.0000
vn -0.9577 0.2879 0.0000
vn -0.9577 -0.0411 0.2848
vn -0.9577 -0.0411 0.2848
vn -0.9577 -0.0411 0.2848
vn -0.9577 -0.1884 -0.2175
vn -0.9577 -0.1884 -0.2175
vn -0.9577 -0.1884 -0.2175
vn -0.9577 0.2422 -0.1556
vn -0.9577 0.2422 -0.1556
vn -0.9577 0.2422 -0.1556
vn -1.0000 0.0000 0.0000
vn -1.0000 0.0000 0.0000
vn -1.0000 0.0000 0.0000
vn -1.0000 0.0000 0.0000
vn -1.0000 0.0000 0.0000
vn -1.0000 0.0000 0.0000
vn -1.0000 0.0000 0.0000
vn -1.0000 0.0000 0.0000
vn -1.0000 0.0000 0.0000
vn -0.9577 -0.2761 -0.0811
vn -0.9577 -0.2761 -0.0811
vn -0.9577 -0.2761 -0.0811
vn -1.0000 0.0000 0.0000
vn -1.0000 0.0000 0.0000
vn -1.0000 0.0000 0.0000
vn -1.0000 0.0000 0.0000
vn -1.0000 0.0000 0.0000
vn -1.0000 0.0000 0.0000
vn -1.0000 0.0000 0.0000
vn -1.0000 0.0000 0.0000
vn -1.0000 0.0000 0.0000
vn -1.0000 0.0000 0.0000
vn -1.0000 0.0000 0.0000
vn -1.0000 0.0000 0.0000
vn -1.0000 0.0000 0.0000
vn -1.0000 0.0000 0.0000
vn -1.0000 0.0000 0.0000
vn 0.0000 0.2225 -0.9749
vn 0.0000 0.2225 -0.9749
vn 0.0000 0.2225 -0.9749
vn 0.0000 0.2225 -0.9749
vn 0.0000 0.2225 -0.9749
vn 0.0000 0.2225 -0.9749
vn 0.0000 1.0000 0.0000
vn 0.0000 1.0000 0.0000
vn 0.0000 1.0000 0.0000
vn 0.0000 1.0000 0.0000
vn 0.0000 1.0000 0.0000
vn 0.0000 1.0000 0.0000
vn -0.7385 0.6743 0.0000
vn -0.7385 0.6743 0.0000
vn -0.7385 0.6743 0.0000
vn -0.7385 0.6743 0.0000
vn -0.7385 0.6743 0.0000
vn -0.7385 0.6743 0.0000
vn -0.7064 0.7066 -0.0428
vn -0.7064 0.7066 -0.0428
vn -0.7064 0.7066 -0.0428
vn -0.6968 0.7130 0.0783
vn -0.6968 0.7130 0.0783
vn -0.6968 0.7130 0.0783
vn -0.7546 0.6562 -0.0003
vn -0.7546 0.6562 -0.0003
vn -0.7546 0.6562 -0.0003
vn -0.7624 0.6471 0.0000
vn -0.7624 0.6471 0.0000
vn -0.7624 0.6471 0.0000
vn -0.7327 0.6801 0.0236
vn -0.7327 0.6801 0.0236
vn -0.7327 0.6801 0.0236
vn -0.6393 0.7672 -0.0514
vn -0.6393 0.7672 -0.0514
vn -0.6393 0.7672 -0.0514
vn 0.0000 0.9050 -0.4253
vn 0.0000 0.9050 -0.4253
vn 0.0000 0.9050 -0.4253
vn 0.0000 0.9050 -0.4253
vn 0.0000 0.9050 -0.4253
vn 0.0000 0.9050 -0.4253
vn 0.0082 0.9070 -0.4211
vn 0.0082 0.9070 -0.4211
vn 0.0082 0.9070 -0.4211
vn 0.0024 0.9079 -0.4191
vn 0.0024 0.9079 -0.4191
vn 0.0024 0.9079 -0.4191
vn 0.0000 0.9091 -0.4167
vn 0.0000 0.9091 -0.4167
vn 0.0000 0.9091 -0.4167
vn 0.0000 0.9091 -0.4167
vn 0.0000 0.9091 -0.4167
vn 0.0000 0.9091 -0.4167
vn -0.0079 0.9069 -0.4212
vn -0.0079 0.9069 -0.4212
vn -0.0079 0.9069 -0.4212
vn -0.0020 0.9081 -0.4187
vn -0.0020 0.9081 -0.4187
vn -0.0020 0.9081 -0.4187
vn 0.7053 0.7055 0.0690
vn 0.7053 0.7055 0.0690
vn 0.7053 0.7055 0.0690
vn 0.6980 0.7142 -0.0518
vn 0.6980 0.7142 -0.0518
vn 0.6980 0.7142 -0.0518
vn 0.7373 0.6756 0.0000
vn 0.7373 0.6756 0.0000
vn 0.7373 0.6756 0.0000
vn 0.7373 0.6756 0.0000
vn 0.7373 0.6756 0.0000
vn 0.7373 0.6756 0.0000
vn 0.7300 0.6828 0.0292
vn 0.7300 0.6828 0.0292
vn 0.7300 0.6828 0.0292
vn 0.6559 0.7535 -0.0455
vn 0.6559 0.7535 -0.0455
vn 0.6559 0.7535 -0.0455
vn 0.7558 0.6548 -0.0003
vn 0.7558 0.6548 -0.0003
vn 0.7558 0.6548 -0.0003
vn 0.7636 0.6457 0.0000
vn 0.7636 0.6457 0.0000
vn 0.7636 0.6457 0.0000
vn 0.0000 1.0000 0.0000
vn 0.0000 1.0000 0.0000
vn 0.0000 1.0000 0.0000
vn 0.0000 1.0000 0.0000
vn 0.0000 1.0000 0.0000
vn 0.0000 1.0000 0.0000
vn 0.0000 0.0000 -1.0000
vn 0.0000 0.0000 -1.0000
vn 0.0000 0.0000 -1.0000
vn 0.0000 0.0000 -1.0000
vn 0.0000 0.0000 -1.0000
vn 0.0000 0.0000 -1.0000
vn 0.0000 -0.9103 0.4140
vn 0.0000 -0.9103 0.4140
vn 0.0000 -0.9103 0.4140
vn 0.0000 -0.9103 0.4140
vn 0.0000 -0.9103 0.4140
vn 0.0000 -0.9103 0.4140
vn 0.0000 1.0000 0.0000
vn 0.0000 1.0000 0.0000
vn 0.0000 1.0000 0.0000
vn 0.0000 1.0000 0.0000
vn 0.0000 1.0000 0.0000
vn 0.0000 1.0000 0.0000
vn 0.6675 0.7446 0.0010
vn 0.6675 0.7446 0.0010
vn 0.6675 0.7446 0.0010
vn 0.6673 0.7448 0.0000
vn 0.6673 0.7448 0.0000
vn 0.6673 0.7448 0.0000
vn -0.9379 -0.1267 0.3231
vn -0.9379 -0.1267 0.3231
vn -0.9379 -0.1267 0.3231
vn -0.9379 -0.1265 0.3231
vn -0.9379 -0.1265 0.3231
vn -0.9379 -0.1265 0.3231
vn -0.6676 0.7446 0.0009
vn -0.6676 0.7446 0.0009
vn -0.6676 0.7446 0.0009
vn -0.6674 0.7447 0.0000
vn -0.6674 0.7447 0.0000
vn -0.6674 0.7447 0.0000
vn -0.6656 -0.7463 0.0000
vn -0.6656 -0.7463 0.0000
vn -0.6656 -0.7463 0.0000
vn -0.6656 -0.7463 0.0000
vn -0.6656 -0.7463 0.0000
vn -0.6656 -0.7463 0.0000
vn 0.0000 0.0000 -1.0000
vn 0.0000 0.0000 -1.0000
vn 0.0000 0.0000 -1.0000
vn 0.0000 0.0000 -1.0000
vn 0.0000 0.0000 -1.0000
vn 0.0000 0.0000 -1.0000
vn 0.0000 0.0000 -1.0000
vn 0.0000 0.0000 -1.0000
vn 0.0000 0.0000 -1.0000
vn 0.0000 0.0000 -1.0000
vn 0.0000 0.0000 -1.0000
vn 0.0000 0.0000 -1.0000
vn 0.0000 0.0000 -1.0000
vn 0.0000 0.0000 -1.0000
vn 0.0000 0.0000 -1.0000
vn 0.0000 0.0000 -1.0000
vn 0.0000 0.0000 -1.0000
vn 0.0000 0.0000 -1.0000
vn 0.0000 0.0000 -1.0000
vn 0.0000 0.0000 -1.0000
vn 0.0000 0.0000 -1.0000
vn 0.0000 0.0000 -1.0000
vn 0.0000 0.0000 -1.0000
vn 0.0000 0.0000 -1.0000
vn 0.6655 -0.7464 0.0000
vn 0.6655 -0.7464 0.0000
vn 0.6655 -0.7464 0.0000
vn 0.6655 -0.7464 0.0000
vn 0.6655 -0.7464 0.0000
vn 0.6655 -0.7464 0.0000
vn 0.0000 0.9552 0.2960
vn 0.0000 0.9552 0.2960
vn 0.0000 0.9552 0.2960
vn 0.0000 0.9552 0.2960
vn 0.0000 0.9552 0.2960
vn 0.0000 0.9552 0.2960
vn 0.0000 0.9548 0.2971
vn 0.0000 0.9548 0.2971
vn 0.0000 0.9548 0.2971
vn 0.0000 0.9548 0.2971
vn 0.0000 0.9548 0.2971
vn 0.0000 0.9548 0.2971
vn -0.0148 0.9580 0.2864
vn -0.0148 0.9580 0.2864
vn -0.0148 0.9580 0.2864
vn 0.1289 0.9650 0.2286
vn 0.1289 0.9650 0.2286
vn 0.1289 0.9650 0.2286
vn 0.0148 0.9580 0.2864
vn 0.0148 0.9580 0.2864
vn 0.0148 0.9580 0.2864
vn -0.1289 0.9650 0.2286
vn -0.1289 0.9650 0.2286
vn -0.1289 0.9650 0.2286
vn 0.0000 0.9609 0.2769
vn 0.0000 0.9609 0.2769
vn 0.0000 0.9609 0.2769
vn 0.0000 0.9609 0.2769
vn 0.0000 0.9609 0.2769
vn 0.0000 0.9609 0.2769
vn 0.0000 0.3645 -0.9312
vn 0.0000 0.3645 -0.9312
vn 0.0000 0.3645 -0.9312
vn 0.0000 0.3645 -0.9312
vn 0.0000 0.3645 -0.9312
vn 0.0000 0.3645 -0.9312
vn 0.9379 -0.1265 0.3231
vn 0.9379 -0.1265 0.3231
vn 0.9379 -0.1265 0.3231
vn 0.9379 -0.1267 0.3231
vn 0.9379 -0.1267 0.3231
vn 0.9379 -0.1267 0.3231
vn 0.0000 -0.3651 0.9310
vn 0.0000 -0.3651 0.9310
vn 0.0000 -0.3651 0.9310
vn 0.0000 -0.3651 0.9310
vn 0.0000 -0.3651 0.9310
vn 0.0000 -0.3651 0.9310
vn 0.0000 0.9940 0.1090
vn 0.0000 0.9940 0.1090
vn 0.0000 0.9940 0.1090
vn 0.0000 0.9940 0.1090
vn 0.0000 0.9940 0.1090
vn 0.0000 0.9940 0.1090
vn 0.0000 0.9940 0.1091
vn 0.0000 0.9940 0.1091
vn 0.0000 0.9940 0.1091
vn 0.0000 0.9940 0.1091
vn 0.0000 0.9940 0.1091
vn 0.0000 0.9940 0.1091
vn 0.0000 0.9940 0.1090
vn 0.0000 0.9940 0.1090
vn 0.0000 0.9940 0.1090
vn 0.0000 0.9940 0.1090
vn 0.0000 0.9940 0.1090
vn 0.0000 0.9940 0.1090
vn 0.0000 0.9940 0.1090
vn 0.0000 0.9940 0.1090
vn 0.0000 0.9940 0.1090
vn 0.0000 0.9940 0.1090
vn 0.0000 0.9940 0.1090
vn 0.0000 0.9940 0.1090
vn 0.0000 0.9940 0.1090
vn 0.0000 0.9940 0.1090
vn 0.0000 0.9940 0.1090
vn 0.0000 0.9940 0.1090
vn 0.0000 0.9940 0.1090
vn 0.0000 0.9940 0.1090
vn 0.0000 0.9940 0.1090
vn 0.0000 0.9940 0.1090
vn 0.0000 0.9940 0.1090
vn 0.0000 0.9940 0.1090
vn 0.0000 0.9940 0.1090
vn 0.0000 0.9940 0.1090
vn 1.0000 0.0000 0.0000
vn 1.0000 0.0000 0.0000
vn 1.0000 0.0000 0.0000
vn 1.0000 0.0000 0.0000
vn 1.0000 0.0000 0.0000
vn 1.0000 0.0000 0.0000
vn -1.0000 0.0000 0.0000
vn -1.0000 0.0000 0.0000
vn -1.0000 0.0000 0.0000
vn -1.0000 0.0000 0.0000
vn -1.0000 0.0000 0.0000
vn -1.0000 0.0000 0.0000
vn 0.0000 -0.8753 0.4835
vn 0.0000 -0.8753 0.4835
vn 0.0000 -0.8753 0.4835
vn 0.0000 -0.8753 0.4835
vn 0.0000 -0.8753 0.4835
vn 0.0000 -0.8753 0.4835
vn 1.0000 0.0000 0.0000
vn 1.0000 0.0000 0.0000
vn 1.0000 0.0000 0.0000
vn 1.0000 0.0000 0.0000
vn 1.0000 0.0000 0.0000
vn 1.0000 0.0000 0.0000
vn 0.0000 1.0000 0.0000
vn 0.0000 1.0000 0.0000
vn 0.0000 1.0000 0.0000
vn 0.0000 1.0000 0.0000
vn 0.0000 1.0000 0.0000
vn 0.0000 1.0000 0.0000
vn 0.0000 1.0000 0.0000
vn 0.0000 1.0000 0.0000
vn 0.0000 1.0000 0.0000
vn 0.0000 1.0000 0.0000
vn 0.0000 1.0000 0.0000
vn 0.0000 1.0000 0.0000
vn 0.0000 0.0000 1.0000
vn 0.0000 0.0000 1.0000
vn 0.0000 0.0000 1.0000
vn 0.0000 0.0000 1.0000
vn 0.0000 0.0000 1.0000
vn 0.0000 0.0000 1.0000
vn 0.0000 1.0000 0.0000
vn 0.0000 1.0000 0.0000
vn 0.0000 1.0000 0.0000
vn 0.0000 1.0000 0.0000
vn 0.0000 1.0000 0.0000
vn 0.0000 1.0000 0.0000
vn 0.0000 0.0000 1.0000
vn 0.0000 0.0000 1.0000
vn 0.0000 0.0000 1.0000
vn 0.0000 0.0000 1.0000
vn 0.0000 0.0000 1.0000
vn 0.0000 0.0000 1.0000
vn 0.0000 0.0000 1.0000
vn 0.0000 0.0000 1.0000
vn 0.0000 0.0000 1.0000
vn 0.0000 0.0000 1.0000
vn 0.0000 0.0000 1.0000
vn 0.0000 0.0000 1.0000
vn -1.0000 0.0000 0.0000
vn -1.0000 0.0000 0.0000
vn -1.0000 0.0000 0.0000
vn -1.0000 0.0000 0.0000
vn -1.0000 0.0000 0.0000
vn -1.0000 0.0000 0.0000
vn 0.0000 1.0000 0.0000
vn 0.0000 1.0000 0.0000
vn 0.0000 1.0000 0.0000
vn 0.0000 1.0000 0.0000
vn 0.0000 1.0000 0.0000
vn 0.0000 1.0000 0.0000
vn 0.0000 1.0000 0.0000
vn 0.0000 1.0000 0.0000
vn 0.0000 1.0000 0.0000
vn 0.0000 1.0000 0.0000
vn 0.0000 1.0000 0.0000
vn 0.0000 1.0000 0.0000
vn 0.0000 0.0000 1.0000
vn 0.0000 0.0000 1.0000
vn 0.0000 0.0000 1.0000
vn 0.0000 0.0000 1.0000
vn 0.0000 0.0000 1.0000
vn 0.0000 0.0000 1.0000
vn 0.0000 1.0000 0.0000
vn 0.0000 1.0000 0.0000
vn 0.0000 1.0000 0.0000
vn 0.0000 1.0000 0.0000
vn 0.0000 1.0000 0.0000
vn 0.0000 1.0000 0.0000
vn 0.0000 0.0000 1.0000
vn 0.0000 0.0000 1.0000
vn 0.0000 0.0000 1.0000
vn 0.0000 0.0000 1.0000
vn 0.0000 0.0000 1.0000
vn 0.0000 0.0000 1.0000
vn 0.0000 0.0000 1.0000
vn 0.0000 0.0000 1.0000
vn 0.0000 0.0000 1.0000
vn 0.0000 0.0000 1.0000
vn 0.0000 0.0000 1.0000
vn 0.0000 0.0000 1.0000
vn 0.0000 -0.9608 0.2772
vn 0.0000 -0.9608 0.2772
vn 0.0000 -0.9608 0.2772
vn 0.0000 -0.9608 0.2772
vn 0.0000 -0.9608 0.2772
vn 0.0000 -0.9608 0.2772
vn 0.0000 0.9998 -0.0201
vn 0.0000 0.9998 -0.0201
vn 0.0000 0.9998 -0.0201
vn 0.0000 0.9998 -0.0201
vn 0.0000 0.9998 -0.0201
vn 0.0000 0.9998 -0.0201
vn -1.0000 0.0000 0.0000
vn -1.0000 0.0000 0.0000
vn -1.0000 0.0000 0.0000
vn 1.0000 0.0000 0.0000
vn 1.0000 0.0000 0.0000
vn 1.0000 0.0000 0.0000
vn 0.0000 0.0000 -1.0000
vn 0.0000 0.0000 -1.0000
vn 0.0000 0.0000 -1.0000
vn 0.0000 0.0000 -1.0000
vn 0.0000 0.0000 -1.0000
vn 0.0000 0.0000 -1.0000
vn 0.0000 0.0000 -1.0000
vn 0.0000 0.0000 -1.0000
vn 0.0000 0.0000 -1.0000
vn 0.0000 0.0000 -1.0000
vn 0.0000 0.0000 -1.0000
vn 0.0000 0.0000 -1.0000
vn -1.0000 0.0000 0.0000
vn -1.0000 0.0000 0.0000
vn -1.0000 0.0000 0.0000
vn -1.0000 0.0000 0.0000
vn -1.0000 0.0000 0.0000
vn -1.0000 0.0000 0.0000
vn 0.0000 1.0000 0.0000
vn 0.0000 1.0000 0.0000
vn 0.0000 1.0000 0.0000
vn 0.0000 1.0000 0.0000
vn 0.0000 1.0000 0.0000
vn 0.0000 1.0000 0.0000
vn 1.0000 0.0000 0.0000
vn 1.0000 0.0000 0.0000
vn 1.0000 0.0000 0.0000
vn 1.0000 0.0000 0.0000
vn 1.0000 0.0000 0.0000
vn 1.0000 0.0000 0.0000
vn 0.0000 0.9606 -0.2781
vn 0.0000 0.9606 -0.2781
vn 0.0000 0.9606 -0.2781
vn 0.0000 0.9606 -0.2781
vn 0.0000 0.9606 -0.2781
vn 0.0000 0.9606 -0.2781
vn 0.0000 -0.9608 0.2772
vn 0.0000 -0.9608 0.2772
vn 0.0000 -0.9608 0.2772
vn 0.0000 -0.9608 0.2772
vn 0.0000 -0.9608 0.2772
vn 0.0000 -0.9608 0.2772
vn 0.0000 0.9998 -0.0201
vn 0.0000 0.9998 -0.0201
vn 0.0000 0.9998 -0.0201
vn 0.0000 0.9998 -0.0201
vn 0.0000 0.9998 -0.0201
vn 0.0000 0.9998 -0.0201
vn 1.0000 0.0000 0.0000
vn 1.0000 0.0000 0.0000
vn 1.0000 0.0000 0.0000
vn -1.0000 0.0000 0.0000
vn -1.0000 0.0000 0.0000
vn -1.0000 0.0000 0.0000
vn 0.0000 0.0000 -1.0000
vn 0.0000 0.0000 -1.0000
vn 0.0000 0.0000 -1.0000
vn 0.0000 0.0000 -1.0000
vn 0.0000 0.0000 -1.0000
vn 0.0000 0.0000 -1.0000
vn 0.0000 0.0000 -1.0000
vn 0.0000 0.0000 -1.0000
vn 0.0000 0.0000 -1.0000
vn 0.0000 0.0000 -1.0000
vn 0.0000 0.0000 -1.0000
vn 0.0000 0.0000 -1.0000
vn 1.0000 0.0000 0.0000
vn 1.0000 0.0000 0.0000
vn 1.0000 0.0000 0.0000
vn 1.0000 0.0000 0.0000
vn 1.0000 0.0000 0.0000
vn 1.0000 0.0000 0.0000
vn 0.0000 1.0000 0.0000
vn 0.0000 1.0000 0.0000
vn 0.0000 1.0000 0.0000
vn 0.0000 1.0000 0.0000
vn 0.0000 1.0000 0.0000
vn 0.0000 1.0000 0.0000
vn -1.0000 0.0000 0.0000
vn -1.0000 0.0000 0.0000
vn -1.0000 0.0000 0.0000
vn -1.0000 0.0000 0.0000
vn -1.0000 0.0000 0.0000
vn -1.0000 0.0000 0.0000
vn 0.0000 0.9606 -0.2781
vn 0.0000 0.9606 -0.2781
vn 0.0000 0.9606 -0.2781
vn 0.0000 0.9606 -0.2781
vn 0.0000 0.9606 -0.2781
vn 0.0000 0.9606 -0.2781
vn 0.0000 -0.9951 0.0993
vn 0.0000 -0.9951 0.0993
vn 0.0000 -0.9951 0.0993
vn 0.0000 -0.9951 0.0993
vn 0.0000 -0.9951 0.0993
vn 0.0000 -0.9951 0.0993
vn 0.2671 0.9589 -0.0957
vn 0.2671 0.9589 -0.0957
vn 0.2671 0.9589 -0.0957
vn 0.2671 0.9589 -0.0957
vn 0.2671 0.9589 -0.0957
vn 0.2671 0.9589 -0.0957
vn -0.2671 0.9589 -0.0957
vn -0.2671 0.9589 -0.0957
vn -0.2671 0.9589 -0.0957
vn -0.2671 0.9589 -0.0957
vn -0.2671 0.9589 -0.0957
vn -0.2671 0.9589 -0.0957
vn 0.0000 -0.0980 -0.9952
vn 0.0000 -0.0980 -0.9952
vn 0.0000 -0.0980 -0.9952
vn 0.0000 -0.0980 -0.9952
vn 0.0000 -0.0980 -0.9952
vn 0.0000 -0.0980 -0.9952
vn -0.2673 -0.9588 0.0957
vn -0.2673 -0.9588 0.0957
vn -0.2673 -0.9588 0.0957
vn -0.2673 -0.9588 0.0957
vn -0.2673 -0.9588 0.0957
vn -0.2673 -0.9588 0.0957
vn 0.2665 -0.9591 0.0957
vn 0.2665 -0.9591 0.0957
vn 0.2665 -0.9591 0.0957
vn 0.2671 -0.9589 0.0953
vn 0.2671 -0.9589 0.0953
vn 0.2671 -0.9589 0.0953
vn 0.0000 0.0980 0.9952
vn 0.0000 0.0980 0.9952
vn 0.0000 0.0980 0.9952
vn 0.0000 0.0980 0.9952
vn 0.0000 0.0980 0.9952
vn 0.0000 0.0980 0.9952
vn 0.9637 -0.2657 0.0265
vn 0.9637 -0.2657 0.0265
vn 0.9637 -0.2657 0.0265
vn 0.9637 -0.2657 0.0265
vn 0.9637 -0.2657 0.0265
vn 0.9637 -0.2657 0.0265
vn -0.0117 0.1025 0.9947
vn -0.0117 0.1025 0.9947
vn -0.0117 0.1025 0.9947
vn -0.0116 0.0995 0.9950
vn -0.0116 0.0995 0.9950
vn -0.0116 0.0995 0.9950
vn 0.0117 -0.1025 -0.9947
vn 0.0117 -0.1025 -0.9947
vn 0.0117 -0.1025 -0.9947
vn 0.0116 -0.0995 -0.9950
vn 0.0116 -0.0995 -0.9950
vn 0.0116 -0.0995 -0.9950
vn -0.9643 -0.2636 0.0262
vn -0.9643 -0.2636 0.0262
vn -0.9643 -0.2636 0.0262
vn -0.9641 -0.2642 0.0264
vn -0.9641 -0.2642 0.0264
vn -0.9641 -0.2642 0.0264
vn 0.0117 0.1025 0.9947
vn 0.0117 0.1025 0.9947
vn 0.0117 0.1025 0.9947
vn 0.0116 0.0995 0.9950
vn 0.0116 0.0995 0.9950
vn 0.0116 0.0995 0.9950
vn -0.0117 -0.1027 -0.9946
vn -0.0117 -0.1027 -0.9946
vn -0.0117 -0.1027 -0.9946
vn -0.0116 -0.0995 -0.9950
vn -0.0116 -0.0995 -0.9950
vn -0.0116 -0.0995 -0.9950
vn 0.0000 0.9951 -0.0993
vn 0.0000 0.9951 -0.0993
vn 0.0000 0.9951 -0.0993
vn 0.0000 0.9951 -0.0993
vn 0.0000 0.9951 -0.0993
vn 0.0000 0.9951 -0.0993
vn 1.0000 0.0000 0.0000
vn 1.0000 0.0000 0.0000
vn 1.0000 0.0000 0.0000
vn 1.0000 0.0000 0.0000
vn 1.0000 0.0000 0.0000
vn 1.0000 0.0000 0.0000
vn -1.0000 0.0000 0.0000
vn -1.0000 0.0000 0.0000
vn -1.0000 0.0000 0.0000
vn -1.0000 0.0000 0.0000
vn -1.0000 0.0000 0.0000
vn -1.0000 0.0000 0.0000
vn 0.0000 0.3578 -0.9338
vn 0.0000 0.3578 -0.9338
vn 0.0000 0.3578 -0.9338
vn 0.0000 0.3578 -0.9338
vn 0.0000 0.3578 -0.9338
vn 0.0000 0.3578 -0.9338
vn 0.0000 -0.2969 0.9549
vn 0.0000 -0.2969 0.9549
vn 0.0000 -0.2969 0.9549
vn 0.0000 -0.2969 0.9549
vn 0.0000 -0.2969 0.9549
vn 0.0000 -0.2969 0.9549
vn -1.0000 0.0000 0.0000
vn -1.0000 0.0000 0.0000
vn -1.0000 0.0000 0.0000
vn -1.0000 0.0000 0.0000
vn -1.0000 0.0000 0.0000
vn -1.0000 0.0000 0.0000
vn 1.0000 0.0000 0.0000
vn 1.0000 0.0000 0.0000
vn 1.0000 0.0000 0.0000
vn 1.0000 0.0000 0.0000
vn 1.0000 0.0000 0.0000
vn 1.0000 0.0000 0.0000
vn 0.0000 0.3578 -0.9338
vn 0.0000 0.3578 -0.9338
vn 0.0000 0.3578 -0.9338
vn 0.0000 0.3578 -0.9338
vn 0.0000 0.3578 -0.9338
vn 0.0000 0.3578 -0.9338
vn 0.0000 -0.2969 0.9549
vn 0.0000 -0.2969 0.9549
vn 0.0000 -0.2969 0.9549
vn 0.0000 -0.2969 0.9549
vn 0.0000 -0.2969 0.9549
vn 0.0000 -0.2969 0.9549
vn 1.0000 0.0000 0.0000
vn 1.0000 0.0000 0.0000
vn 1.0000 0.0000 0.0000
vn 0.0026 0.0000 1.0000
vn 0.0026 0.0000 1.0000
vn 0.0026 0.0000 1.0000
vn 0.0026 0.0000 1.0000
vn 0.0026 0.0000 1.0000
vn 0.0026 0.0000 1.0000
vn -1.0000 0.0000 0.0000
vn -1.0000 0.0000 0.0000
vn -1.0000 0.0000 0.0000
vn -0.0038 0.9234 -0.3839
vn -0.0038 0.9234 -0.3839
vn -0.0038 0.9234 -0.3839
vn -0.0022 0.9226 -0.3857
vn -0.0022 0.9226 -0.3857
vn -0.0022 0.9226 -0.3857
vn -1.0000 0.0000 0.0000
vn -1.0000 0.0000 0.0000
vn -1.0000 0.0000 0.0000
vn -0.0026 0.0000 1.0000
vn -0.0026 0.0000 1.0000
vn -0.0026 0.0000 1.0000
vn -0.0026 0.0000 1.0000
vn -0.0026 0.0000 1.0000
vn -0.0026 0.0000 1.0000
vn 1.0000 0.0000 0.0000
vn 1.0000 0.0000 0.0000
vn 1.0000 0.0000 0.0000
vn 0.0022 0.9226 -0.3857
vn 0.0022 0.9226 -0.3857
vn 0.0022 0.9226 -0.3857
vn 0.0038 0.9234 -0.3839
vn 0.0038 0.9234 -0.3839
vn 0.0038 0.9234 -0.3839
vn 0.0000 0.0000 1.0000
vn 0.0000 0.0000 1.0000
vn 0.0000 0.0000 1.0000
vn 0.0000 0.0000 1.0000
vn 0.0000 0.0000 1.0000
vn 0.0000 0.0000 1.0000
vn 1.0000 0.0000 -0.0026
vn 1.0000 0.0000 -0.0026
vn 1.0000 0.0000 -0.0026
vn 1.0000 0.0000 -0.0026
vn 1.0000 0.0000 -0.0026
vn 1.0000 0.0000 -0.0026
vn 0.0000 0.0000 -1.0000
vn 0.0000 0.0000 -1.0000
vn 0.0000 0.0000 -1.0000
vn 0.0000 0.0000 -1.0000
vn 0.0000 0.0000 -1.0000
vn 0.0000 0.0000 -1.0000
vn 0.0000 1.0000 -0.0015
vn 0.0000 1.0000 -0.0015
vn 0.0000 1.0000 -0.0015
vn 0.0000 1.0000 -0.0015
vn 0.0000 1.0000 -0.0015
vn 0.0000 1.0000 -0.0015
vn 0.0000 0.0000 1.0000
vn 0.0000 0.0000 1.0000
vn 0.0000 0.0000 1.0000
vn 0.0000 0.0000 1.0000
vn 0.0000 0.0000 1.0000
vn 0.0000 0.0000 1.0000
vn -1.0000 0.0000 -0.0026
vn -1.0000 0.0000 -0.0026
vn -1.0000 0.0000 -0.0026
vn -1.0000 0.0000 -0.0026
vn -1.0000 0.0000 -0.0026
vn -1.0000 0.0000 -0.0026
vn 0.0000 0.0000 -1.0000
vn 0.0000 0.0000 -1.0000
vn 0.0000 0.0000 -1.0000
vn 0.0000 0.0000 -1.0000
vn 0.0000 0.0000 -1.0000
vn 0.0000 0.0000 -1.0000
vn 0.0000 1.0000 -0.0015
vn 0.0000 1.0000 -0.0015
vn 0.0000 1.0000 -0.0015
vn 0.0000 1.0000 -0.0015
vn 0.0000 1.0000 -0.0015
vn 0.0000 1.0000 -0.0015
vn 0.0032 0.0000 -1.0000
vn 0.0032 0.0000 -1.0000
vn 0.0032 0.0000 -1.0000
vn 0.0032 0.0000 -1.0000
vn 0.0032 0.0000 -1.0000
vn 0.0032 0.0000 -1.0000
vn 1.0000 0.0000 0.0000
vn 1.0000 0.0000 0.0000
vn 1.0000 0.0000 0.0000
vn 1.0000 0.0000 0.0000
vn 1.0000 0.0000 0.0000
vn 1.0000 0.0000 0.0000
vn 0.0045 1.0000 0.0000
vn 0.0045 1.0000 0.0000
vn 0.0045 1.0000 0.0000
vn 0.0045 1.0000 0.0000
vn 0.0045 1.0000 0.0000
vn 0.0045 1.0000 0.0000
vn 0.0000 0.0000 -1.0000
vn 0.0000 0.0000 -1.0000
vn 0.0000 0.0000 -1.0000
vn 0.0000 0.0000 -1.0000
vn 0.0000 0.0000 -1.0000
vn 0.0000 0.0000 -1.0000
vn 0.0000 0.0000 -1.0000
vn 0.0000 0.0000 -1.0000
vn 0.0000 0.0000 -1.0000
vn 0.0000 0.0000 -1.0000
vn 0.0000 0.0000 -1.0000
vn 0.0000 0.0000 -1.0000
vn 0.0000 0.0000 -1.0000
vn 0.0000 0.0000 -1.0000
vn 0.0000 0.0000 -1.0000
vn 0.0000 0.0000 -1.0000
vn 0.0000 0.0000 -1.0000
vn 0.0000 0.0000 -1.0000
vn 0.0000 0.0000 -1.0000
vn 0.0000 0.0000 -1.0000
vn 0.0000 0.0000 -1.0000
vn 0.0000 0.0000 -1.0000
vn 0.0000 0.0000 -1.0000
vn 0.0000 0.0000 -1.0000
vn 0.0000 0.0000 -1.0000
vn 0.0000 0.0000 -1.0000
vn 0.0000 0.0000 -1.0000
vn 0.0000 0.0000 -1.0000
vn 0.0000 0.0000 -1.0000
vn 0.0000 0.0000 -1.0000
vn 0.0000 1.0000 0.0000
vn 0.0000 1.0000 0.0000
vn 0.0000 1.0000 0.0000
vn 0.0000 1.0000 0.0000
vn 0.0000 1.0000 0.0000
vn 0.0000 1.0000 0.0000
vn -1.0000 0.0000 0.0000
vn -1.0000 0.0000 0.0000
vn -1.0000 0.0000 0.0000
vn -1.0000 0.0000 0.0000
vn -1.0000 0.0000 0.0000
vn -1.0000 0.0000 0.0000
vn 0.0000 0.9679 -0.2513
vn 0.0000 0.9679 -0.2513
vn 0.0000 0.9679 -0.2513
vn 0.0000 0.9679 -0.2513
vn 0.0000 0.9679 -0.2513
vn 0.0000 0.9679 -0.2513
vn 0.9549 -0.0707 -0.2883
vn 0.9549 -0.0707 -0.2883
vn 0.9549 -0.0707 -0.2883
vn -0.9549 -0.0707 -0.2883
vn -0.9549 -0.0707 -0.2883
vn -0.9549 -0.0707 -0.2883
vn 0.0000 -0.2381 -0.9712
vn 0.0000 -0.2381 -0.9712
vn 0.0000 -0.2381 -0.9712
vn 0.0000 -0.2381 -0.9712
vn 0.0000 -0.2381 -0.9712
vn 0.0000 -0.2381 -0.9712

usemtl mat_3E49AB
f 4//1 3//2 2//3
f 4//4 2//5 1//6
f 8//7 7//8 6//9
f 8//10 6//11 5//12
f 5//13 1//14 2//15
f 5//16 2//17 8//18
f 509//1891 512//1892 511//1893
f 508//1894 509//1895 511//1896
f 518//1909 517//1910 516//1911
f 514//1912 518//1913 516//1914

usemtl mat_484848
f 9//19 11//20 10//21
f 10//22 11//23 13//24
f 12//25 10//26 13//27
f 16//28 15//29 14//30
f 14//31 17//32 16//33
f 19//34 18//35 15//36
f 19//37 15//38 16//39
f 19//40 20//41 18//42
f 21//43 24//44 23//45
f 22//46 21//47 23//48
f 11//49 25//50 19//51
f 26//52 11//53 9//54
f 11//55 26//56 25//57
f 27//58 12//59 13//60
f 28//61 31//62 30//63
f 28//64 30//65 29//66
f 31//67 32//68 33//69
f 31//70 33//71 30//72
f 33//73 35//74 34//75
f 33//76 32//77 35//78
f 33//79 34//80 36//81
f 36//82 13//83 33//84
f 27//85 13//86 37//87
f 36//88 37//89 13//90
f 16//91 30//92 33//93
f 19//94 16//95 33//96
f 41//97 40//98 39//99
f 38//100 41//101 39//102
f 19//103 33//104 13//105
f 11//106 19//107 13//108
f 12//109 27//110 43//111
f 43//112 42//113 12//114
f 21//115 10//116 12//117
f 42//118 21//119 12//120
f 9//121 10//122 21//123
f 21//124 22//125 9//126
f 43//127 27//128 9//129
f 22//130 43//131 9//132
f 23//133 24//134 45//135
f 44//136 23//137 45//138
f 43//139 44//140 45//141
f 42//142 43//143 45//144
f 22//145 23//146 44//147
f 43//148 22//149 44//150
f 48//151 47//152 46//153
f 25//154 49//155 47//156
f 25//157 47//158 48//159
f 49//160 20//161 50//162
f 49//163 50//164 47//165
f 19//166 50//167 20//168
f 19//169 48//170 50//171
f 47//172 50//173 46//174
f 25//175 48//176 19//177
f 51//178 54//179 53//180
f 52//181 51//182 53//183
f 55//184 58//185 57//186
f 56//187 55//188 57//189
f 57//190 53//191 54//192
f 56//193 57//194 54//195
f 88//274 87//275 90//276
f 90//277 89//278 88//279
f 91//280 92//281 89//282
f 90//283 91//284 89//285
f 93//286 94//287 92//288
f 92//289 91//290 93//291
f 92//292 94//293 88//294
f 92//295 88//296 89//297
f 95//298 98//299 97//300
f 97//301 96//302 95//303
f 96//304 97//305 100//306
f 99//307 96//308 100//309
f 102//310 101//311 99//312
f 99//313 100//314 102//315
f 98//316 102//317 100//318
f 100//319 97//320 98//321
f 105//322 104//323 103//324
f 106//325 105//326 103//327
f 107//328 105//329 106//330
f 108//331 107//332 106//333
f 110//334 109//335 107//336
f 108//337 110//338 107//339
f 114//340 113//341 112//342
f 111//343 114//344 112//345
f 115//346 113//347 114//348
f 116//349 115//350 114//351
f 104//352 115//353 116//354
f 103//355 104//356 116//357
f 120//358 119//359 118//360
f 117//361 120//362 118//363
f 118//364 119//365 122//366
f 121//367 118//368 122//369
f 123//370 126//371 125//372
f 124//373 123//374 125//375
f 125//376 128//377 127//378
f 124//379 125//380 127//381
f 106//382 103//383 129//384
f 117//385 106//386 129//387
f 104//388 105//389 120//390
f 120//391 130//392 104//393
f 108//394 106//395 117//396
f 118//397 108//398 117//399
f 120//400 105//401 107//402
f 107//403 119//404 120//405
f 110//406 108//407 118//408
f 118//409 121//410 110//411
f 119//412 107//413 109//414
f 119//415 109//416 122//417
f 124//418 114//419 111//420
f 123//421 124//422 111//423
f 112//424 113//425 125//426
f 125//427 126//428 112//429
f 127//430 116//431 114//432
f 127//433 114//434 124//435
f 113//436 115//437 128//438
f 128//439 125//440 113//441
f 103//442 116//443 127//444
f 129//445 103//446 127//447
f 115//448 104//449 130//450
f 128//451 115//452 130//453
f 133//454 132//455 131//456
f 134//457 133//458 131//459
f 138//460 137//461 136//462
f 135//463 138//464 136//465
f 136//466 131//467 132//468
f 135//469 136//470 132//471
f 142//472 141//473 140//474
f 139//475 142//476 140//477
f 140//478 141//479 144//480
f 143//481 140//482 144//483
f 145//484 148//485 147//486
f 146//487 145//488 147//489
f 147//490 150//491 149//492
f 146//493 147//494 149//495
f 152//496 151//497 153//498
f 139//499 152//500 153//501
f 155//502 154//503 142//504
f 142//505 156//506 155//507
f 157//508 152//509 139//510
f 140//511 157//512 139//513
f 142//514 154//515 158//516
f 158//517 141//518 142//519
f 159//520 157//521 140//522
f 140//523 143//524 159//525
f 141//526 158//527 160//528
f 141//529 160//530 144//531
f 146//532 135//533 132//534
f 146//535 132//536 145//537
f 162//538 161//539 147//540
f 148//541 162//542 147//543
f 149//544 138//545 135//546
f 149//547 135//548 146//549
f 161//550 163//551 150//552
f 150//553 147//554 161//555
f 151//556 138//557 149//558
f 153//559 151//560 149//561
f 163//562 155//563 156//564
f 150//565 163//566 156//567
f 151//568 164//569 137//570
f 138//571 151//572 137//573
f 166//574 165//575 157//576
f 159//577 166//578 157//579
f 166//580 159//581 168//582
f 168//583 167//584 166//585
f 143//586 169//587 168//588
f 159//589 143//590 168//591
f 144//592 170//593 169//594
f 143//595 144//596 169//597
f 144//598 160//599 171//600
f 171//601 170//602 144//603
f 172//604 162//605 148//606
f 173//607 172//608 148//609
f 145//610 132//611 133//612
f 133//613 174//614 145//615
f 145//616 174//617 173//618
f 148//619 145//620 173//621
f 176//622 175//623 162//624
f 172//625 176//626 162//627
f 178//628 177//629 123//630
f 111//631 178//632 123//633
f 177//634 179//635 126//636
f 123//637 177//638 126//639
f 180//640 112//641 126//642
f 179//643 180//644 126//645
f 180//646 178//647 111//648
f 112//649 180//650 111//651
f 181//652 110//653 121//654
f 182//655 181//656 121//657
f 122//658 109//659 184//660
f 184//661 183//662 122//663
f 183//664 182//665 121//666
f 122//667 183//668 121//669
f 181//670 184//671 109//672
f 110//673 181//674 109//675
f 165//676 185//677 152//678
f 157//679 165//680 152//681
f 160//682 186//683 187//684
f 187//685 171//686 160//687
f 160//688 158//689 188//690
f 186//691 160//692 188//693
f 158//694 154//695 189//696
f 188//697 158//698 189//699
f 191//700 155//701 163//702
f 190//703 191//704 163//705
f 185//706 164//707 151//708
f 152//709 185//710 151//711
f 161//712 162//713 175//714
f 192//715 161//716 175//717
f 190//718 163//719 161//720
f 192//721 190//722 161//723
f 154//724 155//725 191//726
f 189//727 154//728 191//729
f 195//730 194//731 193//732
f 196//733 195//734 193//735
f 193//736 194//737 198//738
f 197//739 193//740 198//741
f 198//742 200//743 199//744
f 197//745 198//746 199//747
f 199//748 200//749 202//750
f 201//751 199//752 202//753
f 201//754 202//755 204//756
f 203//757 201//758 204//759
f 203//760 204//761 206//762
f 205//763 203//764 206//765
f 206//766 208//767 207//768
f 205//769 206//770 207//771
f 208//772 210//773 209//774
f 207//775 208//776 209//777
f 210//778 212//779 211//780
f 209//781 210//782 211//783
f 211//784 212//785 214//786
f 213//787 211//788 214//789
f 214//790 195//791 196//792
f 196//793 213//794 214//795
f 200//796 198//797 215//798
f 215//799 195//800 214//801
f 215//802 208//803 206//804
f 202//805 200//806 215//807
f 194//808 195//809 215//810
f 210//811 208//812 215//813
f 204//814 202//815 215//816
f 198//817 194//818 215//819
f 212//820 210//821 215//822
f 206//823 204//824 215//825
f 214//835 212//836 215//837
f 230//853 229//854 228//855
f 231//856 230//857 228//858
f 228//859 229//860 233//861
f 232//862 228//863 233//864
f 233//865 235//866 234//867
f 232//868 233//869 234//870
f 235//871 237//872 236//873
f 234//874 235//875 236//876
f 236//877 237//878 239//879
f 238//880 236//881 239//882
f 239//883 241//884 240//885
f 238//886 239//887 240//888
f 241//889 243//890 242//891
f 240//892 241//893 242//894
f 242//895 243//896 245//897
f 244//898 242//899 245//900
f 245//901 247//902 246//903
f 244//904 245//905 246//906
f 247//907 249//908 248//909
f 246//910 247//911 248//912
f 249//913 230//914 231//915
f 248//916 249//917 231//918
f 235//919 233//920 250//921
f 250//922 230//923 249//924
f 250//925 243//926 241//927
f 237//928 235//929 250//930
f 229//931 230//932 250//933
f 245//934 243//935 250//936
f 239//937 237//938 250//939
f 233//940 229//941 250//942
f 247//943 245//944 250//945
f 241//946 239//947 250//948
f 249//958 247//959 250//960
f 279//1054 278//1055 277//1056
f 280//1057 279//1058 277//1059
f 280//1060 277//1061 281//1062
f 282//1063 280//1064 281//1065
f 282//1066 281//1067 283//1068
f 284//1069 282//1070 283//1071
f 284//1072 283//1073 285//1074
f 286//1075 284//1076 285//1077
f 288//1078 286//1079 285//1080
f 287//1081 288//1082 285//1083
f 288//1084 287//1085 289//1086
f 290//1087 288//1088 289//1089
f 290//1090 289//1091 291//1092
f 292//1093 290//1094 291//1095
f 292//1096 291//1097 293//1098
f 294//1099 292//1100 293//1101
f 294//1102 293//1103 295//1104
f 296//1105 294//1106 295//1107
f 296//1108 295//1109 297//1110
f 298//1111 296//1112 297//1113
f 298//1114 297//1115 278//1116
f 279//1117 298//1118 278//1119
f 299//1120 282//1121 284//1122
f 298//1123 279//1124 299//1125
f 290//1126 292//1127 299//1128
f 299//1129 284//1130 286//1131
f 299//1132 279//1133 280//1134
f 299//1135 292//1136 294//1137
f 299//1138 286//1139 288//1140
f 299//1141 280//1142 282//1143
f 299//1144 294//1145 296//1146
f 299//1147 288//1148 290//1149
f 299//1159 296//1160 298//1161
f 307//1177 306//1178 305//1179
f 308//1180 307//1181 305//1182
f 308//1183 305//1184 309//1185
f 310//1186 308//1187 309//1188
f 310//1189 309//1190 311//1191
f 312//1192 310//1193 311//1194
f 312//1195 311//1196 313//1197
f 314//1198 312//1199 313//1200
f 314//1201 313//1202 315//1203
f 316//1204 314//1205 315//1206
f 316//1207 315//1208 317//1209
f 318//1210 316//1211 317//1212
f 318//1213 317//1214 319//1215
f 320//1216 318//1217 319//1218
f 322//1219 320//1220 319//1221
f 321//1222 322//1223 319//1224
f 322//1225 321//1226 323//1227
f 324//1228 322//1229 323//1230
f 324//1231 323//1232 325//1233
f 326//1234 324//1235 325//1236
f 326//1237 325//1238 306//1239
f 307//1240 326//1241 306//1242
f 327//1243 310//1244 312//1245
f 326//1246 307//1247 327//1248
f 318//1249 320//1250 327//1251
f 327//1252 312//1253 314//1254
f 327//1255 307//1256 308//1257
f 327//1258 320//1259 322//1260
f 327//1261 314//1262 316//1263
f 327//1264 308//1265 310//1266
f 327//1267 322//1268 324//1269
f 327//1270 316//1271 318//1272
f 327//1282 324//1283 326//1284
f 335//1306 334//1307 333//1308
f 336//1309 335//1310 333//1311
f 335//1312 338//1313 337//1314
f 335//1315 337//1316 334//1317
f 339//1318 334//1319 337//1320
f 337//1321 340//1322 339//1323
f 341//1324 339//1325 340//1326
f 340//1327 342//1328 341//1329
f 338//1330 335//1331 341//1332
f 342//1333 338//1334 341//1335
f 335//1336 336//1337 344//1338
f 335//1339 344//1340 343//1341
f 335//1342 343//1343 345//1344
f 345//1345 341//1346 335//1347
f 347//1348 346//1349 341//1350
f 341//1351 345//1352 347//1353
f 344//1354 336//1355 346//1356
f 346//1357 347//1358 344//1359
f 333//1360 348//1361 350//1362
f 349//1363 333//1364 350//1365
f 351//1366 336//1367 333//1368
f 349//1369 351//1370 333//1371
f 336//1372 351//1373 352//1374
f 336//1375 352//1376 346//1377
f 350//1378 348//1379 346//1380
f 350//1381 346//1382 352//1383
f 352//1384 342//1385 340//1386
f 350//1387 352//1388 340//1389
f 350//1390 340//1391 337//1392
f 337//1393 349//1394 350//1395
f 342//1396 352//1397 351//1398
f 351//1399 338//1400 342//1401
f 355//1402 354//1403 353//1404
f 356//1405 355//1406 353//1407
f 353//1408 358//1409 357//1410
f 357//1411 356//1412 353//1413
f 359//1414 362//1415 361//1416
f 360//1417 359//1418 361//1419
f 363//1420 364//1421 354//1422
f 354//1423 355//1424 363//1425
f 365//1426 368//1427 367//1428
f 366//1429 365//1430 367//1431
f 356//1432 366//1433 369//1434
f 355//1435 356//1436 369//1437
f 365//1438 366//1439 356//1440
f 357//1441 365//1442 356//1443
f 355//1444 369//1445 370//1446
f 370//1447 363//1448 355//1449
f 369//1456 371//1457 372//1458
f 370//1459 369//1460 372//1461
f 364//1462 358//1463 360//1464
f 364//1465 360//1466 373//1467
f 359//1468 353//1469 354//1470
f 374//1471 359//1472 354//1473
f 358//1474 353//1475 359//1476
f 358//1477 359//1478 360//1479
f 374//1480 354//1481 364//1482
f 364//1483 373//1484 374//1485
f 376//1486 361//1487 362//1488
f 362//1489 375//1490 376//1491
f 373//1492 360//1493 361//1494
f 361//1495 376//1496 373//1497
f 373//1498 376//1499 375//1500
f 374//1501 373//1502 375//1503
f 359//1504 374//1505 375//1506
f 375//1507 362//1508 359//1509
f 380//1510 379//1511 378//1512
f 377//1513 380//1514 378//1515
f 383//1516 382//1517 381//1518
f 384//1519 383//1520 381//1521
f 388//1522 387//1523 386//1524
f 385//1525 388//1526 386//1527
f 392//1528 391//1529 390//1530
f 389//1531 392//1532 390//1533
f 395//1534 394//1535 393//1536
f 396//1537 395//1538 393//1539
f 399//1540 398//1541 397//1542
f 400//1543 399//1544 397//1545
f 401//1546 404//1547 403//1548
f 402//1549 401//1550 403//1551
f 405//1552 408//1553 407//1554
f 406//1555 405//1556 407//1557
f 405//1558 401//1559 402//1560
f 408//1561 405//1562 402//1563
f 412//1564 411//1565 410//1566
f 409//1567 412//1568 410//1569
f 410//1570 414//1571 413//1572
f 409//1573 410//1574 413//1575
f 417//1582 412//1583 409//1584
f 409//1585 413//1586 417//1587
f 419//1588 418//1589 415//1590
f 415//1591 416//1592 419//1593
f 420//1600 415//1601 418//1602
f 421//1603 420//1604 418//1605
f 425//1606 424//1607 423//1608
f 422//1609 425//1610 423//1611
f 425//1612 422//1613 426//1614
f 427//1615 425//1616 426//1617
f 422//1624 423//1625 430//1626
f 430//1627 426//1628 422//1629
f 428//1630 418//1631 419//1632
f 419//1633 429//1634 428//1635
f 431//1642 421//1643 418//1644
f 428//1645 431//1646 418//1647
f 438//1654 437//1655 436//1656
f 439//1657 438//1658 436//1659
f 437//1660 440//1661 436//1662
f 439//1663 441//1664 438//1665
f 438//1666 441//1667 440//1668
f 437//1669 438//1670 440//1671
f 453//1696 452//1697 451//1698
f 450//1699 453//1700 451//1701
f 460//1708 459//1709 458//1710
f 461//1711 460//1712 458//1713
f 461//1714 458//1715 462//1716
f 459//1717 460//1718 463//1719
f 460//1720 461//1721 462//1722
f 463//1723 460//1724 462//1725
f 475//1750 474//1751 473//1752
f 472//1753 475//1754 473//1755
f 477//1756 476//1757 479//1758
f 479//1759 478//1760 477//1761
f 482//1762 481//1763 480//1764
f 483//1765 482//1766 480//1767
f 486//1768 485//1769 484//1770
f 487//1771 486//1772 484//1773
f 477//1774 487//1775 481//1776
f 476//1777 477//1778 481//1779
f 489//1780 488//1781 479//1782
f 476//1783 489//1784 479//1785
f 490//1786 477//1787 478//1788
f 491//1789 490//1790 478//1791
f 479//1792 480//1793 484//1794
f 478//1795 479//1796 484//1797
f 488//1798 489//1799 482//1800
f 483//1801 488//1802 482//1803
f 479//1804 488//1805 483//1806
f 480//1807 479//1808 483//1809
f 482//1810 489//1811 476//1812
f 481//1813 482//1814 476//1815
f 490//1816 491//1817 485//1818
f 486//1819 490//1820 485//1821
f 485//1822 491//1823 478//1824
f 484//1825 485//1826 478//1827
f 477//1828 490//1829 486//1830
f 487//1831 477//1832 486//1833
f 484//1834 480//1835 481//1836
f 481//1837 487//1838 484//1839
f 494//1840 493//1841 492//1842
f 495//1843 494//1844 492//1845
f 498//1846 497//1847 496//1848
f 499//1849 498//1850 496//1851
f 492//1852 493//1853 499//1854
f 499//1855 496//1856 492//1857
f 498//1858 494//1859 495//1860
f 497//1861 498//1862 495//1863
f 502//1864 501//1865 500//1866
f 503//1867 502//1868 500//1869
f 506//1870 505//1871 504//1872
f 507//1873 506//1874 504//1875
f 505//1876 503//1877 500//1878
f 500//1879 504//1880 505//1881
f 506//1882 507//1883 501//1884
f 502//1885 506//1886 501//1887
f 508//1888 510//1889 509//1890
f 511//1897 512//1898 513//1899
f 513//1900 512//1901 509//1902
f 510//1903 513//1904 509//1905
f 514//1906 516//1907 515//1908
f 518//1915 519//1916 517//1917
f 519//1918 515//1919 516//1920
f 517//1921 519//1922 516//1923
f 523//1924 522//1925 521//1926
f 520//1927 523//1928 521//1929
f 523//1930 524//1931 525//1932
f 525//1933 522//1934 523//1935
f 527//1936 525//1937 524//1938
f 526//1939 527//1940 524//1941
f 525//1942 527//1943 521//1944
f 522//1945 525//1946 521//1947
f 531//1948 530//1949 529//1950
f 528//1951 531//1952 529//1953
f 533//1954 532//1955 529//1956
f 529//1957 530//1958 533//1959
f 532//1960 533//1961 535//1962
f 534//1963 532//1964 535//1965
f 533//1966 530//1967 531//1968
f 535//1969 533//1970 531//1971
f 16//1990 17//1991 541//1992
f 540//1993 16//1994 541//1995
f 30//1996 16//1997 540//1998
f 540//1999 38//2000 30//2001
f 17//2002 29//2003 39//2004
f 39//2005 541//2006 17//2007
f 29//2008 30//2009 38//2010
f 39//2011 29//2012 38//2013
f 543//2014 41//2015 542//2016
f 543//2017 40//2018 41//2019
f 543//2020 541//2021 39//2022
f 40//2023 543//2024 39//2025
f 543//2026 542//2027 540//2028
f 541//2029 543//2030 540//2031
f 547//2032 546//2033 545//2034
f 547//2035 545//2036 544//2037
f 545//2038 548//2039 544//2040
f 547//2041 549//2042 546//2043
f 548//2044 549//2045 547//2046
f 544//2047 548//2048 547//2049

usemtl mat_FFFFFF
f 61//196 60//197 59//198
f 62//199 61//200 59//201
f 64//202 63//203 66//204
f 66//205 65//206 64//207
f 66//208 63//209 67//210
f 68//211 66//212 67//213
f 65//214 66//215 68//216
f 69//217 65//218 68//219
f 65//220 69//221 70//222
f 64//223 65//224 70//225
f 73//226 72//227 71//228
f 74//229 73//230 71//231
f 74//232 75//233 76//234
f 76//235 73//236 74//237
f 76//238 75//239 77//240
f 78//241 76//242 77//243
f 73//244 76//245 78//246
f 72//247 73//248 78//249
f 81//250 80//251 79//252
f 82//253 81//254 79//255
f 84//256 83//257 80//258
f 80//259 81//260 84//261
f 83//262 84//263 86//264
f 85//265 83//266 86//267
f 86//268 84//269 81//270
f 82//271 86//272 81//273
f 367//1450 368//1451 372//1452
f 367//1453 372//1454 371//1455
f 444//1672 443//1673 442//1674
f 445//1675 444//1676 442//1677
f 447//1678 446//1679 443//1680
f 444//1681 447//1682 443//1683
f 446//1684 448//1685 442//1686
f 443//1687 446//1688 442//1689
f 448//1690 449//1691 445//1692
f 442//1693 448//1694 445//1695
f 466//1726 465//1727 464//1728
f 467//1729 466//1730 464//1731
f 468//1732 466//1733 467//1734
f 469//1735 468//1736 467//1737
f 469//1738 467//1739 464//1740
f 470//1741 469//1742 464//1743
f 470//1744 464//1745 465//1746
f 471//1747 470//1748 465//1749
f 536//1972 60//1973 61//1974
f 61//1975 537//1976 536//1977
f 536//1978 537//1979 539//1980
f 538//1981 536//1982 539//1983
f 539//1984 537//1985 61//1986
f 62//1987 539//1988 61//1989

usemtl mat_D3D3D3
f 216//826 220//827 219//828
f 217//829 216//830 219//831
f 219//832 218//833 217//834
f 251//949 255//950 254//951
f 252//952 251//953 254//954
f 254//955 253//956 252//957
f 304//1150 303//1151 302//1152
f 300//1153 304//1154 302//1155
f 301//1156 300//1157 302//1158
f 332//1273 331//1274 330//1275
f 328//1276 332//1277 330//1278
f 330//1279 329//1280 328//1281

usemtl mat_A0A0A0
f 227//838 226//839 225//840
f 221//841 227//842 225//843
f 222//844 221//845 225//846
f 224//847 223//848 222//849
f 225//850 224//851 222//852
f 262//961 261//962 260//963
f 256//964 262//965 260//966
f 257//967 256//968 260//969
f 259//970 258//971 257//972
f 260//973 259//974 257//975
f 260//976 263//977 264//978
f 264//979 259//980 260//981
f 261//982 265//983 263//984
f 263//985 260//986 261//987
f 262//988 266//989 265//990
f 265//991 261//992 262//993
f 256//994 267//995 266//996
f 266//997 262//998 256//999
f 258//1000 268//1001 269//1002
f 269//1003 257//1004 258//1005
f 257//1006 269//1007 267//1008
f 267//1009 256//1010 257//1011
f 223//1012 224//1013 270//1014
f 271//1015 223//1016 270//1017
f 224//1018 225//1019 272//1020
f 270//1021 224//1022 272//1023
f 225//1024 226//1025 273//1026
f 272//1027 225//1028 273//1029
f 226//1030 227//1031 274//1032
f 273//1033 226//1034 274//1035
f 227//1036 221//1037 275//1038
f 274//1039 227//1040 275//1041
f 222//1042 223//1043 271//1044
f 276//1045 222//1046 271//1047
f 221//1048 222//1049 276//1050
f 275//1051 221//1052 276//1053
f 276//1162 271//1163 270//1164
f 275//1165 276//1166 270//1167
f 274//1168 275//1169 270//1170
f 272//1171 273//1172 274//1173
f 270//1174 272//1175 274//1176
f 269//1285 268//1286 264//1287
f 267//1288 269//1289 264//1290
f 266//1291 267//1292 264//1293
f 263//1294 265//1295 266//1296
f 264//1297 263//1298 266//1299
f 259//1300 264//1301 268//1302
f 268//1303 258//1304 259//1305
f 434//1648 433//1649 432//1650
f 435//1651 434//1652 432//1653
f 456//1702 455//1703 454//1704
f 457//1705 456//1706 454//1707

usemtl mat_DF250B
f 416//1576 415//1577 413//1578
f 413//1579 414//1580 416//1581
f 415//1594 420//1595 417//1596
f 413//1597 415//1598 417//1599
f 426//1618 428//1619 429//1620
f 429//1621 427//1622 426//1623
f 428//1636 426//1637 430//1638
f 431//1639 428//1640 430//1641
