# Cleaned 3D Model: bot_car2
mtllib bot_car2.mtl

v -0.6333 0.2913 -0.0868
v -0.6333 0.5051 -0.0868
v -0.1310 0.5051 -0.0868
v -0.1310 0.2913 -0.0868
v -0.1310 0.5051 0.4144
v -0.1310 0.2913 0.4144
v -0.6333 0.5051 0.4144
v -0.6489 0.4689 0.4361
v -0.6489 0.5005 0.2145
v -0.1154 0.5005 0.2145
v -0.1154 0.4689 0.4361
v -0.1154 1.1075 0.4152
v -0.1154 1.0759 0.5584
v -0.6489 1.1075 0.4152
v -0.6489 1.0759 0.5584
v -0.2435 1.1660 0.5363
v -0.2435 1.1660 0.4559
v -0.5208 1.1660 0.4559
v -0.5208 1.1660 0.5363
v -0.5596 1.0663 0.4257
v -0.5596 1.0663 0.5480
v -0.2046 1.0663 0.5480
v -0.2046 1.0663 0.4257
v 0.6350 0.2913 -0.0868
v 0.1327 0.2913 -0.0868
v 0.1327 0.5051 -0.0868
v 0.6350 0.5051 -0.0868
v 0.1327 0.2913 0.4144
v 0.1327 0.5051 0.4144
v 0.6350 0.5051 0.4144
v 0.6506 0.4689 0.4361
v 0.1171 0.4689 0.4361
v 0.1171 0.5005 0.2145
v 0.6506 0.5005 0.2145
v 0.1171 1.0759 0.5584
v 0.1171 1.1075 0.4152
v 0.6506 1.0759 0.5584
v 0.6506 1.1075 0.4152
v 0.2452 1.1660 0.5363
v 0.5225 1.1660 0.5363
v 0.5225 1.1660 0.4559
v 0.2452 1.1660 0.4559
v 0.5613 1.0663 0.5480
v 0.5613 1.0663 0.4257
v 0.2063 1.0663 0.5480
v 0.2063 1.0663 0.4257
v 0.3988 0.5919 -2.3298
v -0.3971 0.5919 -2.3298
v -0.3984 0.5932 -2.0557
v 0.3988 0.5932 -2.0557
v 0.2927 0.4886 -2.3298
v -0.2910 0.4886 -2.3298
v 0.2927 0.2634 -2.3298
v 0.3988 0.2634 -2.3298
v -0.2910 0.2634 -2.3298
v -0.3971 0.2634 -2.3298
v 0.3988 0.1788 -2.2187
v 0.2927 0.1788 -2.2187
v -0.2910 0.1788 -2.2187
v -0.3971 0.1788 -2.2187
v -0.2910 0.4886 -2.2154
v 0.2927 0.4886 -2.2154
v -0.9734 0.1728 1.5427
v -0.9734 0.2274 2.3545
v -0.9734 0.8190 2.3545
v -0.9736 0.7025 -1.9162
v -0.9734 0.7863 -2.1729
v -0.9734 0.4871 -2.2598
v -0.9736 0.6443 -1.3609
v -0.9734 0.9447 -0.8267
v -0.9735 0.1403 -1.2745
v -0.9734 0.6596 0.8283
v -0.9734 0.6764 1.3926
v -0.4181 0.9545 -0.9167
v -0.4530 0.8266 -2.3911
v 0.9751 0.2274 2.3545
v 0.9751 0.1728 1.5427
v -0.9734 0.1365 0.7068
v 0.9143 0.9798 0.8577
v 0.9143 0.9454 -0.7721
v 0.9143 0.2734 -1.2017
v 0.9143 0.3036 0.5528
v 0.4198 0.9545 -0.9167
v 0.4547 0.8266 -2.3911
v 0.9751 0.8190 2.3545
v 0.9751 0.4871 -2.2598
v 0.9751 0.7863 -2.1729
v 0.9753 0.7025 -1.9162
v 0.9753 0.6443 -1.3609
v 0.9751 0.9447 -0.8267
v 0.9752 0.1403 -1.2745
v 0.9751 0.6596 0.8283
v 0.9751 0.6764 1.3926
v 0.9751 0.1365 0.7068
v 0.9751 0.1431 -2.0950
v 0.9751 0.1431 -2.2355
v -0.9734 0.1431 -2.0950
v -0.9734 0.1431 -2.2355
v 0.9413 0.7504 -2.1983
v 0.9415 0.5268 -2.2640
v 0.9415 0.5268 -2.1527
v 0.9413 0.7504 -2.1527
v -0.9398 0.5268 -2.2640
v -0.9396 0.7504 -2.1983
v -0.9396 0.7504 -2.1527
v -0.9398 0.5268 -2.1527
v -0.9922 0.1317 -1.3218
v -0.9922 0.1317 0.7604
v -0.9922 0.2366 0.7604
v -0.9922 0.2366 -1.3218
v 0.9939 0.1317 -1.3218
v 0.9939 0.2366 -1.3218
v 0.9939 0.2366 0.7604
v 0.9939 0.1317 0.7604
v 1.0156 0.4633 -2.3014
v 1.0156 0.4646 -2.0273
v 1.0156 0.3002 -2.0273
v 1.0156 0.2989 -2.3014
v -1.0139 0.2989 -2.3014
v -1.0173 0.2989 -2.0273
v -1.0173 0.4646 -2.0273
v -1.0139 0.4633 -2.3014
v 1.0077 0.7882 1.1160
v -1.0060 0.7882 1.1160
v -1.0060 0.7141 1.3658
v 1.0077 0.7141 1.3658
v -1.0060 0.5154 1.5362
v 1.0077 0.5154 1.5362
v -1.0060 0.3164 1.5836
v 1.0044 0.3164 1.5836
v 1.0044 0.3062 0.6543
v -1.0060 0.3062 0.6543
v -1.0060 0.5154 0.6959
v 1.0077 0.5154 0.6959
v -1.0060 0.7141 0.8663
v 1.0077 0.7141 0.8663
v 1.0077 0.6074 1.3117
v 1.0077 0.4544 1.4443
v -1.0060 0.4544 1.4443
v -1.0060 0.6074 1.3117
v 1.0044 0.3164 1.4813
v -1.0060 0.3164 1.4813
v 1.0077 0.3112 0.7546
v 1.0077 0.4544 0.7906
v -1.0060 0.4544 0.7906
v -1.0060 0.3112 0.7546
v 1.0077 0.6074 0.9232
v -1.0060 0.6074 0.9232
v 1.0077 0.6645 1.1174
v -1.0060 0.6645 1.1174
v -0.7043 0.4511 -1.3713
v -0.9860 0.4511 -1.3713
v -0.9860 0.2681 -1.3450
v -0.7043 0.2681 -1.3450
v -0.9860 0.0999 -1.4218
v -0.7043 0.0999 -1.4218
v -0.7043 0.0999 -1.9177
v -0.9860 0.0999 -1.9177
v -0.9860 0.2681 -1.9944
v -0.7043 0.2681 -1.9944
v -0.9860 0.4511 -1.9681
v -0.7043 0.4511 -1.9681
v 1.0044 0.3164 -1.1977
v -1.0060 0.3164 -1.1977
v -1.0060 0.1393 -1.2456
v 1.0044 0.1393 -1.2456
v -1.0060 0.3164 -1.3001
v 1.0044 0.3164 -1.3001
v 1.0044 0.1393 -1.3480
v -1.0060 0.1393 -1.3479
v -1.0060 0.3062 -2.1271
v 1.0044 0.3062 -2.1271
v 1.0044 0.1305 -2.0820
v -1.0060 0.1305 -2.0820
v -1.0060 0.3112 -2.0268
v -1.0060 0.1355 -1.9817
v 1.0077 0.3112 -2.0268
v 1.0077 0.1355 -1.9817
v -1.0060 0.7882 -1.6654
v -1.0060 0.7141 -1.9151
v -1.0060 0.6074 -1.8582
v -1.0060 0.6645 -1.6640
v 1.0077 0.7141 -1.9151
v 1.0077 0.7882 -1.6654
v 1.0077 0.6645 -1.6640
v 1.0077 0.6074 -1.8582
v -1.0060 0.5154 -2.0855
v -1.0060 0.4544 -1.9908
v 1.0077 0.5154 -2.0855
v 1.0077 0.4544 -1.9908
v -1.0060 0.5154 -1.2452
v -1.0060 0.4544 -1.3371
v 1.0077 0.5154 -1.2452
v 1.0077 0.4544 -1.3371
v -1.0060 0.7141 -1.4156
v -1.0060 0.6074 -1.4697
v 1.0077 0.7141 -1.4156
v 1.0077 0.6074 -1.4697
v 1.0077 0.1355 0.7997
v 1.0044 0.1305 0.6994
v -1.0060 0.1355 0.7997
v -1.0060 0.1305 0.6994
v 1.0044 0.1393 1.5358
v 1.0044 0.1393 1.4334
v -1.0060 0.1393 1.4334
v -1.0060 0.1393 1.5358
v 1.0009 0.2927 -1.7697
v -0.9991 0.2927 -1.7697
v -0.9991 0.3798 -1.7498
v 1.0009 0.3798 -1.7498
v 1.0009 0.3798 -1.5887
v 1.0009 0.2927 -1.5688
v 1.0009 0.4186 -1.6693
v 0.9877 0.5908 -1.4923
v 0.9036 0.3148 -1.6697
v 0.9877 0.6429 -1.6697
v 0.9877 0.0000 -1.5773
v 0.9877 0.0999 -1.4218
v 0.9877 0.4511 -1.3713
v 0.9877 0.4511 -1.9681
v 0.9877 0.2681 -1.9944
v 0.9877 0.0000 -1.7621
v 0.9877 0.2681 -1.3450
v 0.9877 0.5908 -1.8471
v 0.9877 0.0999 -1.9177
v -0.7043 0.2681 0.7870
v -0.9860 0.2681 0.7870
v -0.9860 0.4511 0.8133
v -0.7043 0.4511 0.8133
v -0.7043 0.0999 0.8637
v -0.9860 0.0999 0.8637
v -0.7043 0.2681 1.4364
v -0.9860 0.2681 1.4364
v -0.9860 0.0999 1.3596
v -0.7043 0.0999 1.3596
v -0.7043 0.4511 1.4101
v -0.9860 0.4511 1.4101
v -0.9019 0.3148 1.1117
v -0.9860 0.5908 0.9343
v -0.9860 0.6429 1.1117
v -0.9860 0.0000 1.0193
v -0.9860 0.0000 1.2041
v -0.9860 0.5908 1.2891
v -0.9991 0.3798 1.1927
v -0.9991 0.4186 1.1121
v -0.9991 0.3798 1.0316
v -0.9991 0.2927 1.0117
v -0.9991 0.2927 1.2126
v 1.0009 0.3798 1.1927
v 1.0009 0.2927 1.2126
v 1.0009 0.3798 1.0316
v 1.0009 0.4186 1.1121
v 0.7061 0.4511 -1.3713
v 0.7061 0.2681 -1.3450
v 0.7061 0.0999 -1.4218
v 0.7061 0.0999 -1.9177
v 0.7061 0.2681 -1.9944
v 0.7061 0.4511 -1.9681
v -0.9991 0.4186 -1.6693
v -0.9991 0.3798 -1.5887
v -0.9991 0.2927 -1.5688
v -0.9860 0.5908 -1.4923
v -0.9860 0.6429 -1.6697
v -0.9019 0.3148 -1.6697
v -0.9860 0.0000 -1.5773
v -0.9860 0.0000 -1.7621
v -0.9860 0.5908 -1.8471
v 0.7061 0.2681 0.7870
v 0.7061 0.4511 0.8133
v 0.9877 0.4511 0.8133
v 0.9877 0.2681 0.7870
v 0.7061 0.0999 0.8637
v 0.9877 0.0999 0.8637
v 0.7061 0.2681 1.4364
v 0.7061 0.0999 1.3596
v 0.9877 0.0999 1.3596
v 0.9877 0.2681 1.4364
v 0.7061 0.4511 1.4101
v 0.9877 0.4511 1.4101
v 0.9036 0.3148 1.1117
v 0.9877 0.5908 0.9343
v 0.9877 0.6429 1.1117
v 0.9877 0.0000 1.0193
v 0.9877 0.0000 1.2041
v 0.9877 0.5908 1.2891
v 1.0009 0.2927 1.0117
v -0.9094 0.4696 2.2880
v -0.8254 0.4696 2.2880
v -0.8254 0.6314 2.2120
v -0.9094 0.6314 2.2120
v -0.5682 0.4696 2.2880
v -0.5682 0.6314 2.2120
v 0.9111 0.4696 2.2880
v 0.9111 0.6314 2.2120
v 0.8271 0.6314 2.2120
v 0.8271 0.4696 2.2880
v 0.5699 0.6314 2.2120
v 0.5699 0.4696 2.2880
v -1.0137 0.9998 -0.5649
v -1.0137 1.0743 -0.5649
v -1.0137 0.9998 -0.6949
v -0.8621 0.9998 -0.5645
v -0.8621 1.0736 -0.5645
v -0.8621 0.9998 -0.6940
v 1.0154 0.9998 -0.5649
v 1.0154 0.9998 -0.6949
v 1.0154 1.0743 -0.5649
v 0.8638 1.0736 -0.5645
v 0.8638 0.9998 -0.5645
v 0.8638 0.9998 -0.6940
v -0.9321 0.8291 0.6823
v -0.9321 0.8778 0.6823
v -0.9929 0.8778 0.6823
v -0.9929 0.8291 0.6823
v -0.9926 0.8291 0.4872
v -0.9926 0.8773 0.4872
v -0.9319 0.8291 0.4872
v -0.9319 0.8773 0.4872
v 0.9338 0.8291 0.6823
v 0.9946 0.8291 0.6823
v 0.9946 0.8778 0.6823
v 0.9338 0.8778 0.6823
v 0.9943 0.8291 0.4872
v 0.9943 0.8773 0.4872
v 0.9336 0.8291 0.4872
v 0.9336 0.8773 0.4872
v -0.9093 0.2984 2.3537
v -0.9093 0.7310 2.3545
v 0.9110 0.7310 2.3545
v 0.9110 0.2984 2.3537
v 0.9110 0.7108 2.1582
v -0.9093 0.7108 2.1582
v -0.4536 0.7879 -2.4016
v 0.4553 0.7879 -2.4016
v -1.0156 0.3213 2.4016
v -1.0156 0.3223 2.1275
v -1.0156 0.1959 2.1275
v -1.0156 0.1949 2.4016
v 1.0140 0.1949 2.4016
v 1.0173 0.1949 2.1275
v 1.0173 0.3223 2.1275
v 1.0140 0.3213 2.4016
v -0.9396 0.7850 -2.1527
v 0.9413 0.7850 -2.1527
v 0.9415 0.5268 -2.1527
v -0.9398 0.5268 -2.1527
v -0.9126 0.9798 0.8577
v -0.9126 0.9454 -0.7721
v -0.3998 0.9553 -0.8589
v 0.4015 0.9553 -0.8589
v -0.9126 0.3036 0.5528
v -0.9126 0.2734 -1.2017
v 0.8367 0.9779 0.9213
v -0.8350 0.9778 0.9213
v -0.8765 0.8680 1.9435
v 0.8782 0.8680 1.9435
v -0.5911 1.5115 -0.3292
v -0.6228 1.5542 -0.2879
v -0.9711 0.9219 -0.7520
v -0.8807 0.9650 -0.7324
v 0.8876 0.9650 -0.7316
v 0.9728 0.9219 -0.7520
v 0.6245 1.5542 -0.2879
v 0.5962 1.5115 -0.3285
v 0.2917 1.5110 -0.3931
v 0.2914 1.5542 -0.3592
v -0.2897 1.5542 -0.3592
v -0.2902 1.5110 -0.3931
v -0.4390 0.9651 -0.8036
v -0.4393 0.9219 -0.8375
v 0.4410 0.9219 -0.8375
v 0.4407 0.9651 -0.8036
v -0.5911 1.5453 -0.3714
v -0.8807 0.9988 -0.7746
v -0.9711 0.9558 -0.7942
v -0.6228 1.5880 -0.3301
v 0.8876 0.9988 -0.7738
v 0.5962 1.5453 -0.3707
v 0.6245 1.5880 -0.3301
v 0.9728 0.9558 -0.7942
v 0.2917 1.5448 -0.4353
v -0.2902 1.5448 -0.4353
v -0.2897 1.5880 -0.4014
v 0.2914 1.5880 -0.4014
v -0.4390 0.9989 -0.8458
v 0.4407 0.9989 -0.8458
v 0.4410 0.9558 -0.8797
v -0.4393 0.9558 -0.8797
v 0.4407 0.9824 -0.8358
v 0.2917 1.5283 -0.4253
v 0.5962 1.5288 -0.3606
v 0.8876 0.9823 -0.7638
v -0.4390 0.9824 -0.8358
v -0.2902 1.5283 -0.4253
v -0.8807 0.9823 -0.7646
v -0.5911 1.5288 -0.3614
v 0.4407 0.9790 -0.8254
v 0.8876 0.9789 -0.7535
v 0.5962 1.5254 -0.3503
v 0.2917 1.5249 -0.4149
v -0.2902 1.5249 -0.4149
v -0.4390 0.9790 -0.8254
v -0.8807 0.9789 -0.7543
v -0.5911 1.5254 -0.3511
vn 0.0000 0.0000 -1.0000
vn 0.0000 0.8944 -0.4472
vn 0.4082 0.4082 -0.8165
vn 0.8944 0.0000 -0.4472
vn 0.7071 0.7071 0.0000
vn 1.0000 0.0000 0.0000
vn 0.0000 1.0000 0.0000
vn -0.4007 -0.8725 0.2794
vn -0.6945 -0.1256 -0.7085
vn 0.4346 -0.7240 -0.5356
vn 0.6584 -0.4559 0.5989
vn 0.6521 0.5232 -0.5487
vn 0.4057 0.7121 0.5730
vn -0.3951 0.8956 -0.2044
vn -0.6639 0.1930 0.7225
vn 0.5260 0.8029 0.2805
vn 0.3231 0.6744 -0.6639
vn -0.5076 0.8213 -0.2606
vn -0.3436 0.5879 0.7324
vn -0.4002 0.4051 -0.8220
vn -0.8198 0.3701 0.4369
vn 0.4097 0.2620 0.8738
vn 0.8001 0.4371 -0.4110
vn 0.0000 0.0000 -1.0000
vn -0.8944 0.0000 -0.4472
vn -0.4082 0.4082 -0.8165
vn 0.0000 0.8944 -0.4472
vn -1.0000 0.0000 0.0000
vn -0.7071 0.7071 0.0000
vn 0.0000 1.0000 0.0000
vn 0.4007 -0.8725 0.2794
vn -0.6584 -0.4559 0.5989
vn -0.4346 -0.7240 -0.5356
vn 0.6945 -0.1256 -0.7085
vn -0.4057 0.7121 0.5730
vn -0.6521 0.5232 -0.5487
vn 0.6639 0.1930 0.7225
vn 0.3951 0.8956 -0.2044
vn -0.5260 0.8029 0.2805
vn 0.3436 0.5879 0.7324
vn 0.5076 0.8213 -0.2606
vn -0.3231 0.6744 -0.6639
vn 0.8198 0.3701 0.4369
vn 0.4002 0.4051 -0.8220
vn -0.4097 0.2620 0.8738
vn -0.8001 0.4371 -0.4110
vn 0.2667 0.5334 -0.8027
vn -0.5335 0.2664 -0.8028
vn -0.4474 0.8943 -0.0065
vn 0.8944 0.4472 -0.0021
vn -0.5547 -0.0000 -0.8320
vn 0.3162 -0.0000 -0.9487
vn -0.2687 -0.4276 -0.8631
vn 0.7448 -0.2963 -0.5980
vn 0.7448 -0.2963 -0.5980
vn -0.2687 -0.4276 -0.8631
vn 0.4472 -0.7116 -0.5419
vn -0.8944 -0.3558 -0.2709
vn 0.4472 -0.7116 -0.5419
vn -0.8937 -0.3561 -0.2729
vn 1.0000 0.0000 0.0000
vn -1.0000 0.0000 0.0000
vn -0.7071 -0.7055 0.0474
vn -0.5602 -0.5658 0.6051
vn -0.7646 0.3942 0.5100
vn -1.0000 0.0014 -0.0003
vn -0.7368 0.4689 -0.4871
vn -0.5520 0.0237 -0.8335
vn -1.0000 0.0017 0.0003
vn -0.8597 0.5105 -0.0162
vn -1.0000 -0.0000 0.0003
vn -1.0000 0.0000 0.0000
vn -1.0000 0.0000 0.0000
vn -0.0265 0.9981 -0.0554
vn -0.1227 0.6729 -0.7295
vn 0.3196 -0.6475 0.6918
vn 0.8944 -0.4462 0.0300
vn -1.0000 0.0001 0.0000
vn -0.3511 0.9061 -0.2363
vn -0.0670 0.8945 0.4420
vn -0.7367 0.3487 0.5794
vn -0.3602 0.6563 -0.6630
vn 0.0279 0.9982 -0.0534
vn 0.1830 0.7682 -0.6135
vn 0.7894 0.3621 0.4957
vn 0.7650 0.0178 -0.6438
vn 0.7380 0.4698 -0.4844
vn 1.0000 0.0014 -0.0003
vn 1.0000 0.0017 0.0003
vn 0.7887 0.6147 -0.0119
vn 1.0000 -0.0000 0.0003
vn 1.0000 0.0000 0.0000
vn 1.0000 0.0000 0.0000
vn 1.0000 0.0001 0.0000
vn 1.0000 -0.0001 -0.0003
vn 0.4472 -0.0631 -0.8922
vn -1.0000 -0.0001 -0.0003
vn -0.7071 -0.0499 -0.7053
vn -0.2884 0.2638 -0.9205
vn -0.0461 0.5230 -0.8511
vn -0.8948 0.4464 0.0000
vn -1.0000 -0.0011 0.0000
vn 0.5861 0.4248 -0.6899
vn -0.0700 0.2792 -0.9577
vn 1.0000 -0.0011 0.0000
vn 0.4474 0.8943 0.0000
vn -1.0000 0.0000 0.0000
vn -1.0000 0.0000 0.0000
vn -0.8944 0.4472 0.0000
vn -0.4472 0.8944 0.0000
vn 1.0000 0.0000 0.0000
vn 0.7071 0.7071 0.0000
vn 0.7071 0.7071 0.0000
vn 1.0000 0.0000 0.0000
vn 0.6660 0.6660 -0.3362
vn 0.7071 0.7071 -0.0034
vn 1.0000 0.0000 0.0000
vn 0.4472 0.0000 -0.8944
vn -0.8899 0.0000 -0.4561
vn -0.9999 0.0000 -0.0125
vn -0.7070 0.7071 -0.0122
vn -0.4059 0.4059 -0.8188
vn 0.7202 0.6904 0.0683
vn -0.7202 0.6904 -0.0683
vn -0.7200 0.6164 0.3187
vn 0.7200 0.5426 0.4327
vn -0.7160 0.3661 0.5945
vn 0.7161 0.2574 0.6488
vn -0.8079 0.0410 0.5879
vn 0.5651 -0.0865 0.8205
vn 0.7961 0.0237 -0.6048
vn -0.5633 -0.0851 -0.8219
vn -0.7174 0.2489 -0.6506
vn 0.7173 0.3546 -0.5997
vn -0.7200 0.5426 -0.4327
vn 0.7200 0.6164 -0.3187
vn 0.8321 -0.3632 -0.4192
vn 0.7156 -0.2847 -0.6379
vn -0.7151 -0.3740 -0.5905
vn -0.9487 -0.2071 -0.2390
vn 0.9017 -0.0079 -0.4323
vn -0.4598 0.0008 -0.8880
vn 0.4644 0.0024 0.8856
vn 0.7195 -0.3739 0.5852
vn -0.7157 -0.2724 0.6431
vn -0.8999 0.0012 0.4361
vn 0.9487 -0.2071 0.2390
vn -0.8321 -0.3633 0.4192
vn 1.0000 0.0000 0.0000
vn -1.0000 0.0000 0.0000
vn 0.0000 0.1423 0.9898
vn -0.9627 -0.0316 0.2687
vn -0.6272 -0.0196 0.7787
vn 0.0000 -0.2381 0.9713
vn -0.7838 -0.2054 0.5861
vn 0.0000 -0.4154 0.9096
vn 0.0000 -0.4154 -0.9096
vn -0.9627 -0.0454 -0.2667
vn -0.6272 -0.2006 -0.7526
vn 0.0000 -0.0452 -0.9990
vn -0.7838 0.0320 -0.6202
vn 0.0000 0.1423 -0.9898
vn 0.5651 -0.0865 0.8205
vn -0.8079 0.0410 0.5879
vn -0.4472 -0.2333 0.8635
vn 0.8944 -0.1167 0.4317
vn -0.4598 0.0008 -0.8880
vn 0.9017 -0.0079 -0.4323
vn 0.4472 0.2333 -0.8635
vn -0.8944 0.1167 -0.4317
vn -0.5633 -0.0851 -0.8219
vn 0.7961 0.0237 -0.6048
vn 0.4411 -0.2231 -0.8693
vn -0.8944 -0.1112 -0.4332
vn -0.8999 0.0012 0.4361
vn -0.4472 0.2223 0.8664
vn 0.4644 0.0024 0.8856
vn 0.9061 0.1051 0.4097
vn -0.7202 0.6904 -0.0683
vn -0.7200 0.5426 -0.4327
vn -0.8321 -0.3633 0.4192
vn -1.0000 0.0000 0.0000
vn 0.7200 0.6164 -0.3187
vn 0.7202 0.6904 0.0683
vn 1.0000 0.0000 0.0000
vn 0.9487 -0.2071 0.2390
vn -0.7174 0.2489 -0.6506
vn -0.7157 -0.2724 0.6431
vn 0.7173 0.3546 -0.5997
vn 0.7195 -0.3739 0.5852
vn -0.7160 0.3661 0.5945
vn -0.7151 -0.3740 -0.5905
vn 0.7161 0.2574 0.6488
vn 0.7156 -0.2847 -0.6379
vn -0.7200 0.6164 0.3187
vn -0.9487 -0.2071 -0.2390
vn 0.7200 0.5426 0.4327
vn 0.8321 -0.3633 -0.4192
vn 0.9061 0.1051 0.4097
vn 0.4411 -0.2231 -0.8693
vn -0.4472 0.2223 0.8664
vn -0.8944 -0.1112 -0.4332
vn 0.8944 -0.1167 0.4317
vn 0.4472 0.2333 -0.8635
vn -0.8944 0.1167 -0.4317
vn -0.4472 -0.2333 0.8635
vn 0.0000 0.2225 -0.9749
vn 0.0000 0.2225 -0.9749
vn 0.0000 0.4917 -0.8708
vn 0.0000 0.7395 -0.6731
vn 0.0000 0.4917 0.8708
vn 0.0000 0.2225 0.9749
vn 0.0000 0.9874 0.1585
vn 0.9687 -0.2089 -0.1343
vn 1.0000 0.0000 0.0000
vn 0.9687 -0.2483 0.0000
vn 0.9687 0.2383 -0.0700
vn 0.7838 -0.2054 0.5861
vn 0.9627 -0.0316 0.2687
vn 0.7838 0.0320 -0.6202
vn 0.6272 -0.2006 -0.7526
vn 0.9687 0.2383 0.0700
vn 0.6272 -0.0196 0.7786
vn 0.9687 -0.2089 0.1343
vn 0.9627 -0.0454 -0.2667
vn 0.0000 -0.0452 -0.9990
vn -0.6272 -0.2006 -0.7526
vn -0.7838 0.0320 -0.6202
vn 0.0000 0.1423 -0.9898
vn -0.0000 -0.4154 -0.9096
vn -0.9627 -0.0454 -0.2667
vn 0.0000 -0.2381 0.9712
vn -0.6272 -0.0196 0.7786
vn -0.7838 -0.2054 0.5861
vn 0.0000 -0.4154 0.9096
vn 0.0000 0.1423 0.9898
vn -0.9627 -0.0316 0.2687
vn -1.0000 0.0000 -0.0000
vn -0.9687 -0.2089 0.1343
vn -0.9687 -0.2483 -0.0000
vn -0.9687 0.2383 0.0700
vn -0.9687 0.2383 -0.0700
vn -0.9687 -0.2089 -0.1343
vn 0.0000 0.7395 0.6731
vn -0.0000 0.9874 -0.1585
vn 0.0000 0.4917 -0.8708
vn 0.0000 0.2225 -0.9749
vn 0.0000 0.2225 0.9749
vn 0.0000 0.4917 0.8708
vn 0.0000 0.2225 0.9749
vn -0.0000 0.7395 -0.6731
vn 0.0000 0.9874 0.1585
vn 0.0000 0.1423 0.9898
vn 0.0000 -0.2381 0.9712
vn 0.0000 -0.4154 0.9096
vn 0.0000 -0.4154 -0.9096
vn 0.0000 -0.0452 -0.9990
vn 0.0000 0.1423 -0.9898
vn 0.0000 0.9874 -0.1585
vn 0.0000 0.7395 0.6731
vn 0.0000 0.2225 0.9749
vn -0.9687 -0.2089 -0.1343
vn -0.9687 -0.2483 0.0000
vn -1.0000 0.0000 0.0000
vn -0.9687 0.2383 -0.0700
vn -0.9687 0.2383 0.0700
vn -0.9687 -0.2089 0.1343
vn 0.0000 -0.0452 -0.9990
vn 0.0000 0.1423 -0.9898
vn 0.7838 0.0320 -0.6202
vn 0.6272 -0.2006 -0.7526
vn 0.0000 -0.4154 -0.9096
vn 0.9627 -0.0454 -0.2667
vn 0.0000 -0.2381 0.9712
vn 0.0000 -0.4154 0.9096
vn 0.7838 -0.2054 0.5861
vn 0.6272 -0.0196 0.7786
vn 0.0000 0.1423 0.9898
vn 0.9627 -0.0316 0.2687
vn 1.0000 0.0000 -0.0000
vn 0.9687 -0.2089 0.1343
vn 0.9687 -0.2483 0.0000
vn 0.9687 0.2383 0.0700
vn 0.9687 0.2383 -0.0700
vn 0.9687 -0.2089 -0.1343
vn 0.0000 0.2225 -0.9749
vn 0.0000 0.4253 0.9050
vn 0.0000 0.4253 0.9050
vn 0.0000 0.4253 0.9050
vn 0.0000 0.4253 0.9050
vn 0.0000 0.4253 0.9050
vn 0.0000 0.4253 0.9050
vn 0.0000 0.4253 0.9050
vn 0.0000 0.4253 0.9050
vn 0.0000 0.4253 0.9050
vn 0.0000 0.4253 0.9050
vn 0.0000 0.4253 0.9050
vn 0.0000 0.4253 0.9050
vn -0.4492 0.0000 0.8934
vn -0.4971 0.8677 0.0036
vn -0.7061 0.6143 -0.3522
vn -0.0028 0.0000 1.0000
vn -0.0002 0.5000 0.8660
vn 0.0041 0.8681 -0.4964
vn 0.4492 0.0000 0.8934
vn 0.7061 0.6143 -0.3522
vn 0.4971 0.8677 0.0036
vn 0.0002 0.5000 0.8660
vn 0.0028 0.0000 1.0000
vn -0.0041 0.8681 -0.4964
vn 0.0000 0.0000 1.0000
vn 0.0000 0.8952 0.4456
vn -0.6676 0.3338 0.6656
vn -0.7078 0.0000 0.7064
vn -0.8938 0.0000 -0.4486
vn -0.3329 0.6657 -0.6679
vn 0.0000 0.0000 -1.0000
vn 0.0000 0.7063 -0.7079
vn 0.0000 0.0000 1.0000
vn 0.7078 0.0000 0.7064
vn 0.6676 0.3338 0.6656
vn 0.0000 0.8952 0.4456
vn 0.8938 0.0000 -0.4486
vn 0.3329 0.6657 -0.6679
vn 0.0000 0.0000 -1.0000
vn 0.0000 0.7063 -0.7079
vn 0.3253 0.1374 0.9356
vn 0.3155 -0.0006 0.9489
vn -0.3203 -0.0006 0.9473
vn -0.3267 0.2753 0.9041
vn -0.7071 0.3029 0.6390
vn 0.4472 0.3831 0.8082
vn -0.2650 0.2597 -0.9286
vn 0.1324 0.2610 -0.9562
vn -0.6661 0.6661 0.3355
vn -0.7071 0.7071 0.0026
vn -1.0000 0.0000 0.0000
vn -0.4472 0.0000 0.8944
vn 0.8901 0.0000 0.4558
vn 0.9999 0.0000 0.0120
vn 0.7070 0.7071 0.0111
vn 0.4061 0.4061 0.8186
vn 0.0000 0.0000 -1.0000
vn 0.0000 0.0000 -1.0000
vn 0.0000 0.0000 -1.0000
vn 0.0000 0.0000 -1.0000
vn 0.0397 0.8880 -0.4581
vn 0.6326 0.7358 0.2418
vn 0.0496 0.7651 0.6420
vn -0.0375 0.5153 0.8562
vn 0.6112 0.7368 -0.2891
vn 0.4000 -0.1497 0.9042
vn -0.0000 0.9943 0.1068
vn -0.0000 0.9943 0.1068
vn -0.0000 0.9943 0.1068
vn 0.0000 0.9943 0.1069
vn 0.5244 -0.8014 0.2878
vn -0.0481 -0.0005 0.9988
vn -0.4559 -0.6052 0.6526
vn 0.4082 -0.1667 0.8976
vn -0.6176 -0.4553 0.6413
vn 0.2099 -0.8987 0.3850
vn 0.3420 -0.1313 0.9305
vn -0.2815 -0.9372 0.2060
vn -0.0073 -0.9935 0.1140
vn -0.1392 0.1126 0.9838
vn 0.0702 0.1152 0.9909
vn 0.0148 -0.9938 0.1103
vn 0.0530 0.1150 0.9920
vn 0.0121 -0.9935 0.1130
vn -0.0060 -0.9935 0.1141
vn -0.1057 0.1142 0.9878
vn 0.0573 0.0099 -0.9983
vn 0.4613 0.6029 -0.6509
vn -0.4117 0.1762 -0.8941
vn -0.5277 0.7995 -0.2868
vn -0.2073 0.9033 -0.3757
vn -0.3385 0.1296 -0.9320
vn 0.2728 0.9412 -0.1993
vn 0.6140 0.4559 -0.6443
vn 0.1007 -0.1135 -0.9884
vn -0.1083 -0.1142 -0.9875
vn 0.0237 0.9930 -0.1153
vn 0.0463 0.9930 -0.1090
vn 0.0176 0.9932 -0.1149
vn 0.0358 0.9931 -0.1120
vn 0.0763 -0.1139 -0.9906
vn -0.0824 -0.1153 -0.9899
vn 0.0953 0.6192 -0.7794
vn 0.0541 0.6095 -0.7909
vn 0.1427 0.6260 -0.7666
vn 0.1235 0.6309 -0.7660
vn -0.0418 0.6077 -0.7930
vn -0.0949 0.6210 -0.7780
vn -0.1420 0.6287 -0.7646
vn -0.1587 0.6393 -0.7524
vn -0.0953 -0.6192 0.7794
vn -0.1235 -0.6309 0.7660
vn -0.1427 -0.6260 0.7666
vn -0.0541 -0.6095 0.7909
vn 0.0949 -0.6210 0.7780
vn 0.0418 -0.6077 0.7930
vn 0.1420 -0.6287 0.7646
vn 0.1587 -0.6393 0.7524

usemtl mat_body
f 1//1 2//2 3//3
f 1//1 3//3 4//4
f 4//4 3//3 5//5
f 4//4 5//5 6//6
f 5//5 3//3 2//2
f 5//5 2//2 7//7
f 8//8 9//9 10//10
f 8//8 10//10 11//11
f 11//11 10//10 12//12
f 11//11 12//12 13//13
f 15//15 9//9 8//8
f 12//12 10//10 9//9
f 12//12 9//9 14//14
f 11//11 13//13 15//15
f 11//11 15//15 8//8
f 24//24 25//25 26//26
f 24//24 26//26 27//27
f 25//25 28//28 29//29
f 25//25 29//29 26//26
f 29//29 30//30 27//27
f 29//29 27//27 26//26
f 31//31 32//32 33//33
f 31//31 33//33 34//34
f 32//32 35//35 36//36
f 32//32 36//36 33//33
f 37//37 31//31 34//34
f 36//36 38//38 34//34
f 36//36 34//34 33//33
f 32//32 31//31 37//37
f 32//32 37//37 35//35
f 53//53 54//54 57//57
f 53//53 57//57 58//58
f 56//56 55//55 59//59
f 56//56 59//59 60//60
f 69//69 70//70 67//67
f 69//69 67//67 66//66
f 70//70 69//69 71//71
f 65//65 73//73 63//63
f 73//73 65//65 72//72
f 67//67 74//74 75//75
f 64//64 63//63 76//76
f 77//77 76//76 63//63
f 78//78 72//72 70//70
f 79//79 80//80 81//81
f 79//79 81//81 82//82
f 74//74 83//83 84//84
f 74//74 84//84 75//75
f 89//89 88//88 87//87
f 89//89 87//87 90//90
f 90//90 91//91 89//89
f 85//85 77//77 93//93
f 93//93 92//92 85//85
f 87//87 84//84 83//83
f 94//94 90//90 92//92
f 68//68 96//96 98//98
f 110//110 109//109 113//113
f 110//110 113//113 112//112
f 123//123 124//124 125//125
f 123//123 125//125 126//126
f 126//126 125//125 127//127
f 126//126 127//127 128//128
f 128//128 127//127 129//129
f 128//128 129//129 130//130
f 131//131 132//132 133//133
f 131//131 133//133 134//134
f 134//134 133//133 135//135
f 134//134 135//135 136//136
f 136//136 135//135 124//124
f 136//136 124//124 123//123
f 137//137 138//138 139//139
f 137//137 139//139 140//140
f 138//138 141//141 142//142
f 138//138 142//142 139//139
f 143//143 144//144 145//145
f 143//143 145//145 146//146
f 144//144 147//147 148//148
f 144//144 148//148 145//145
f 123//123 126//126 137//137
f 123//123 137//137 149//149
f 125//125 124//124 150//150
f 125//125 150//150 140//140
f 126//126 128//128 138//138
f 126//126 138//138 137//137
f 127//127 125//125 140//140
f 127//127 140//140 139//139
f 128//128 141//141 138//138
f 129//129 127//127 139//139
f 131//131 134//134 144//144
f 133//133 146//146 145//145
f 134//134 136//136 147//147
f 134//134 147//147 144//144
f 135//135 133//133 145//145
f 135//135 145//145 148//148
f 136//136 123//123 149//149
f 136//136 149//149 147//147
f 124//124 135//135 148//148
f 124//124 148//148 150//150
f 163//163 164//164 165//165
f 163//163 165//165 166//166
f 167//167 168//168 169//169
f 167//167 169//169 170//170
f 171//171 172//172 173//173
f 171//171 173//173 174//174
f 177//177 175//175 176//176
f 177//177 176//176 178//178
f 179//179 180//180 181//181
f 179//179 181//181 182//182
f 183//183 184//184 185//185
f 164//164 191//191 192//192
f 193//193 168//168 194//194
f 191//191 195//195 196//196
f 191//191 196//196 192//192
f 197//197 193//193 194//194
f 197//197 194//194 198//198
f 195//195 179//179 182//182
f 195//195 182//182 196//196
f 184//184 197//197 198//198
f 184//184 198//198 185//185
f 143//143 146//146 201//201
f 143//143 201//201 199//199
f 132//132 131//131 200//200
f 132//132 200//200 202//202
f 142//142 141//141 204//204
f 142//142 204//204 205//205
f 130//130 129//129 206//206
f 130//130 206//206 203//203
f 194//194 168//168 167//167
f 194//194 167//167 192//192
f 198//198 194//194 192//192
f 198//198 192//192 196//196
f 183//183 180//180 179//179
f 183//183 179//179 184//184
f 193//193 191//191 164//164
f 193//193 164//164 163//163
f 197//197 195//195 191//191
f 197//197 191//191 193//193
f 184//184 179//179 195//195
f 184//184 195//195 197//197
f 207//207 208//208 209//209
f 207//207 209//209 210//210
f 214//214 215//215 216//216
f 219//219 215//215 214//214
f 224//224 216//216 215//215
f 239//239 238//238 240//240
f 239//239 228//228 238//238
f 237//237 243//243 238//238
f 243//243 240//240 238//238
f 249//249 244//244 248//248
f 249//249 248//248 250//250
f 251//251 246//246 245//245
f 251//251 245//245 252//252
f 252//252 245//245 244//244
f 252//252 244//244 249//249
f 213//213 259//259 260//260
f 213//213 260//260 211//211
f 210//210 209//209 259//259
f 210//210 259//259 213//213
f 211//211 260//260 261//261
f 211//211 261//261 212//212
f 262//262 263//263 264//264
f 152//152 262//262 264//264
f 267//267 264//264 263//263
f 281//281 282//282 280//280
f 281//281 280//280 270//270
f 279//279 280//280 285//285
f 285//285 280//280 282//282
f 286//286 247//247 246//246
f 286//286 246//246 251//251
f 333//333 104//104 67//67
f 333//333 67//67 75//75
f 334//334 333//333 75//75
f 334//334 75//75 84//84
f 99//99 334//334 84//84
f 99//99 84//84 87//87
f 335//335 342//342 341//341
f 335//335 341//341 336//336
f 338//338 339//339 342//342
f 338//338 342//342 335//335
f 79//79 347//347 65//65
f 79//79 65//65 85//85
f 349//349 350//350 83//83
f 349//349 83//83 74//74
f 351//351 82//82 81//81
f 351//351 81//81 352//352
f 348//348 347//347 351//351
f 348//348 351//351 352//352
f 350//350 349//349 352//352
f 350//350 352//352 81//81
f 347//347 79//79 82//82
f 347//347 82//82 351//351
f 349//349 348//348 352//352
f 80//80 350//350 81//81
f 353//353 354//354 355//355
f 353//353 355//355 356//356
f 369//369 370//370 371//371
f 369//369 371//371 372//372
f 385//385 386//386 387//387
f 385//385 387//387 388//388
f 369//369 372//372 386//386
f 369//369 386//386 385//385
f 371//371 370//370 388//388
f 371//371 388//388 387//387

usemtl mat_glass
f 13//13 12//12 14//14
f 13//13 14//14 15//15
f 15//15 14//14 9//9
f 16//16 17//17 18//18
f 16//16 18//18 19//19
f 18//18 20//20 21//21
f 18//18 21//21 19//19
f 19//19 21//21 22//22
f 19//19 22//22 16//16
f 17//17 23//23 20//20
f 17//17 20//20 18//18
f 16//16 22//22 23//23
f 16//16 23//23 17//17
f 35//35 37//37 38//38
f 35//35 38//38 36//36
f 37//37 34//34 38//38
f 39//39 40//40 41//41
f 39//39 41//41 42//42
f 41//41 40//40 43//43
f 41//41 43//43 44//44
f 40//40 39//39 45//45
f 40//40 45//45 43//43
f 42//42 41//41 44//44
f 42//42 44//44 46//46
f 39//39 42//42 46//46
f 39//39 46//46 45//45
f 70//70 72//72 65//65
f 67//67 70//70 74//74
f 90//90 85//85 92//92
f 87//87 83//83 90//90
f 299//299 300//300 301//301
f 299//299 302//302 303//303
f 299//299 303//303 300//300
f 300//300 303//303 304//304
f 300//300 304//304 301//301
f 305//305 306//306 307//307
f 305//305 307//307 308//308
f 305//305 308//308 309//309
f 307//307 306//306 310//310
f 307//307 310//310 308//308
f 311//311 312//312 313//313
f 311//311 313//313 314//314
f 315//315 314//314 313//313
f 315//315 313//313 316//316
f 317//317 315//315 316//316
f 317//317 316//316 318//318
f 312//312 318//318 316//316
f 312//312 316//316 313//313
f 319//319 320//320 321//321
f 319//319 321//321 322//322
f 323//323 324//324 321//321
f 323//323 321//321 320//320
f 325//325 326//326 324//324
f 325//325 324//324 323//323
f 322//322 321//321 324//324
f 322//322 324//324 326//326
f 347//347 348//348 70//70
f 347//347 70//70 65//65
f 348//348 349//349 74//74
f 348//348 74//74 70//70
f 80//80 79//79 85//85
f 80//80 85//85 90//90
f 350//350 80//80 90//90
f 350//350 90//90 83//83
f 357//357 358//358 359//359
f 357//357 359//359 360//360
f 361//361 362//362 363//363
f 361//361 363//363 364//364
f 365//365 366//366 367//367
f 365//365 367//367 368//368
f 360//360 359//359 370//370
f 360//360 370//370 369//369
f 368//368 367//367 358//358
f 368//368 358//358 357//357
f 372//372 371//371 362//362
f 372//372 362//362 361//361
f 364//364 363//363 366//366
f 364//364 366//366 365//365
f 373//373 374//374 375//375
f 373//373 375//375 376//376
f 377//377 378//378 379//379
f 377//377 379//379 380//380
f 381//381 382//382 383//383
f 381//381 383//383 384//384
f 374//374 385//385 388//388
f 374//374 388//388 375//375
f 382//382 373//373 376//376
f 382//382 376//376 383//383
f 386//386 377//377 380//380
f 386//386 380//380 387//387
f 378//378 381//381 384//384
f 378//378 384//384 379//379
f 360//360 369//369 385//385
f 360//360 385//385 374//374
f 370//370 359//359 375//375
f 370//370 375//375 388//388
f 368//368 357//357 373//373
f 368//368 373//373 382//382
f 358//358 367//367 383//383
f 358//358 383//383 376//376
f 372//372 361//361 377//377
f 372//372 377//377 386//386
f 362//362 371//371 387//387
f 362//362 387//387 380//380
f 364//364 365//365 381//381
f 364//364 381//381 378//378
f 357//357 360//360 374//374
f 357//357 374//374 373//373
f 366//366 363//363 379//379
f 366//366 379//379 384//384
f 359//359 358//358 376//376
f 359//359 376//376 375//375
f 361//361 364//364 378//378
f 361//361 378//378 377//377
f 363//363 362//362 380//380
f 363//363 380//380 379//379
f 365//365 368//368 382//382
f 365//365 382//382 381//381
f 367//367 366//366 384//384
f 367//367 384//384 383//383
f 389//389 390//390 391//391
f 389//389 391//391 392//392
f 390//390 389//389 393//393
f 390//390 393//393 394//394
f 395//395 396//396 394//394
f 395//395 394//394 393//393
f 397//397 398//398 399//399
f 397//397 399//399 400//400
f 400//400 401//401 402//402
f 400//400 402//402 397//397
f 403//403 402//402 401//401
f 403//403 401//401 404//404

usemtl mat_tires
f 151//151 152//152 153//153
f 151//151 153//153 154//154
f 154//154 153//153 155//155
f 154//154 155//155 156//156
f 157//157 158//158 159//159
f 157//157 159//159 160//160
f 226//226 227//227 228//228
f 226//226 228//228 229//229
f 230//230 231//231 227//227
f 230//230 227//227 226//226
f 232//232 233//233 234//234
f 232//232 234//234 235//235
f 236//236 237//237 233//233
f 236//236 233//233 232//232
f 253//253 254//254 223//223
f 253//253 223//223 219//219
f 254//254 255//255 218//218
f 254//254 218//218 223//223
f 256//256 257//257 221//221
f 256//256 221//221 225//225
f 268//268 269//269 270//270
f 268//268 270//270 271//271
f 272//272 268//268 271//271
f 272//272 271//271 273//273
f 274//274 275//275 276//276
f 274//274 276//276 277//277
f 278//278 274//274 277//277
f 278//278 277//277 279//279

usemtl mat_rims
f 78//78 70//70 71//71
f 94//94 91//91 90//90
f 95//95 96//96 86//86
f 97//97 68//68 98//98
f 107//107 108//108 109//109
f 107//107 109//109 110//110
f 111//111 112//112 113//113
f 111//111 113//113 114//114
f 128//128 130//130 141//141
f 129//129 139//139 142//142
f 131//131 144//144 143//143
f 133//133 132//132 146//146
f 164//164 167//167 170//170
f 164//164 170//170 165//165
f 168//168 163//163 166//166
f 168//168 166//166 169//169
f 175//175 171//171 174//174
f 175//175 174//174 176//176
f 172//172 177//177 178//178
f 172//172 178//178 173//173
f 164//164 192//192 167//167
f 193//193 163//163 168//168
f 131//131 143//143 199//199
f 131//131 199//199 200//200
f 146//146 132//132 202//202
f 146//146 202//202 201//201
f 141//141 130//130 203//203
f 141//141 203//203 204//204
f 129//129 142//142 205//205
f 129//129 205//205 206//206
f 217//217 215//215 218//218
f 222//222 215//215 217//217
f 223//223 215//215 219//219
f 225//225 215//215 222//222
f 223//223 218//218 215//215
f 221//221 215//215 225//225
f 227//227 231//231 238//238
f 233//233 238//238 234//234
f 231//231 241//241 238//238
f 233//233 237//237 238//238
f 241//241 242//242 238//238
f 228//228 227//227 238//238
f 242//242 234//234 238//238
f 265//265 155//155 264//264
f 266//266 265//265 264//264
f 153//153 152//152 264//264
f 158//158 266//266 264//264
f 153//153 264//264 155//155
f 159//159 158//158 264//264
f 271//271 280//280 273//273
f 277//277 276//276 280//280
f 273//273 280//280 283//283
f 277//277 280//280 279//279
f 283//283 280//280 284//284
f 270//270 280//280 271//271
f 284//284 280//280 276//276
f 335//335 336//336 337//337
f 335//335 337//337 338//338
f 339//339 340//340 341//341
f 339//339 341//341 342//342

usemtl mat_headlights
f 47//47 48//48 49//49
f 47//47 49//49 50//50
f 51//51 52//52 48//48
f 51//51 48//48 47//47
f 53//53 51//51 47//47
f 53//53 47//47 54//54
f 52//52 55//55 56//56
f 52//52 56//56 48//48
f 50//50 57//57 54//54
f 50//50 54//54 47//47
f 48//48 56//56 60//60
f 48//48 60//60 49//49
f 55//55 52//52 61//61
f 55//55 61//61 59//59
f 51//51 53//53 58//58
f 51//51 58//58 62//62
f 66//66 67//67 68//68
f 86//86 87//87 88//88
f 95//95 86//86 88//88
f 97//97 66//66 68//68
f 68//68 86//86 96//96
f 99//99 100//100 101//101
f 99//99 101//101 102//102
f 103//103 104//104 105//105
f 103//103 105//105 106//106
f 115//115 116//116 117//117
f 115//115 117//117 118//118
f 119//119 120//120 121//121
f 119//119 121//121 122//122
f 160//160 159//159 161//161
f 160//160 161//161 162//162
f 183//183 185//185 186//186
f 180//180 187//187 188//188
f 180//180 188//188 181//181
f 189//189 183//183 186//186
f 189//189 186//186 190//190
f 187//187 171//171 175//175
f 187//187 175//175 188//188
f 172//172 189//189 190//190
f 172//172 190//190 177//177
f 190//190 186//186 181//181
f 190//190 181//181 188//188
f 177//177 190//190 188//188
f 177//177 188//188 175//175
f 189//189 187//187 180//180
f 189//189 180//180 183//183
f 172//172 171//171 187//187
f 172//172 187//187 189//189
f 220//220 215//215 221//221
f 224//224 215//215 220//220
f 257//257 258//258 220//220
f 257//257 220//220 221//221
f 161//161 159//159 264//264
f 267//267 161//161 264//264
f 115//115 122//122 121//121
f 115//115 121//121 116//116
f 118//118 119//119 122//122
f 118//118 122//122 115//115
f 100//100 103//103 106//106
f 100//100 106//106 101//101
f 100//100 99//99 87//87
f 100//100 87//87 86//86
f 104//104 103//103 68//68
f 104//104 68//68 67//67
f 100//100 86//86 68//68
f 100//100 68//68 103//103
f 343//343 344//344 345//345
f 343//343 345//345 346//346

usemtl mat_taillights
f 63//63 64//64 65//65
f 77//77 85//85 76//76
f 287//287 288//288 289//289
f 287//287 289//289 290//290
f 288//288 291//291 292//292
f 288//288 292//292 289//289
f 293//293 294//294 295//295
f 293//293 295//295 296//296
f 296//296 295//295 297//297
f 296//296 297//297 298//298
f 327//327 328//328 65//65
f 327//327 65//65 64//64
f 329//329 330//330 76//76
f 329//329 76//76 85//85
f 328//328 329//329 85//85
f 328//328 85//85 65//65
f 330//330 331//331 332//332
f 330//330 332//332 327//327
f 330//330 329//329 331//331
f 328//328 327//327 332//332
