# Cleaned 3D Model: bot_car
mtllib bot_car.mtl

v -0.9725 0.1728 1.6457
v -0.9725 0.3505 2.4576
v -0.9725 0.9447 2.4576
v -0.9728 0.7025 -1.8132
v -0.9725 0.7863 -2.0699
v -0.9725 0.5532 -2.1567
v -0.9728 0.6443 -1.2579
v -0.9725 0.9447 -0.7237
v -0.9727 0.1403 -1.1715
v -0.9725 0.6596 0.9313
v -0.9725 0.6764 1.4956
v -0.4172 0.9545 -0.8137
v -0.4521 0.8266 -2.2881
v 0.9760 0.3505 2.4576
v 0.9760 0.1728 1.6457
v -0.9725 0.1365 0.8099
v 0.9760 0.9447 2.4576
v 0.9760 0.9447 -0.7237
v 0.4207 0.9545 -0.8137
v 0.4556 0.8266 -2.2881
v 0.9760 0.5532 -2.1567
v 0.9760 0.7863 -2.0699
v 0.9762 0.7025 -1.8132
v 0.9762 0.6443 -1.2579
v 0.9761 0.1403 -1.1715
v 0.9760 0.6596 0.9313
v 0.9760 0.6764 1.4956
v 0.9760 0.1365 0.8099
v 0.9760 0.1431 -1.9919
v 0.9760 0.1431 -2.1324
v -0.9725 0.1431 -1.9919
v -0.9725 0.1431 -2.1324
v -0.4521 0.5650 -2.3749
v 0.4556 0.5650 -2.3749
v 0.4556 0.1431 -2.3506
v -0.4521 0.1431 -2.3506
v 0.9397 0.5112 -2.1695
v 0.9397 0.1860 -2.1501
v 0.9397 0.1931 -2.0288
v 0.9397 0.5183 -2.0481
v -0.9913 0.1317 -1.2188
v -0.9913 0.1317 0.8635
v -0.9913 0.2366 0.8635
v -0.9913 0.2366 -1.2188
v 0.9948 0.1317 -1.2188
v 0.9948 0.2366 -1.2188
v 0.9948 0.2366 0.8635
v 0.9948 0.1317 0.8635
v -0.4492 0.1261 -2.4576
v -1.0131 0.1261 -2.2830
v -1.0131 0.2524 -2.2830
v -0.4492 0.2524 -2.4576
v 1.0165 0.2534 -2.0089
v -1.0165 0.2534 -2.0089
v 1.0165 0.2524 -2.2830
v 1.0165 0.1271 -2.0089
v 1.0165 0.1261 -2.2830
v -1.0165 0.1261 -2.0089
v -0.9209 0.1731 -2.2598
v -0.9209 0.2056 -2.2598
v -0.9209 0.2056 -2.3271
v -0.9209 0.1731 -2.3271
v -0.7446 0.1731 -2.3672
v -0.7446 0.2053 -2.3672
v -0.7446 0.1731 -2.3002
v -0.7446 0.2053 -2.3002
v 0.9243 0.1731 -2.2598
v 0.9243 0.1731 -2.3271
v 0.9243 0.2056 -2.3271
v 0.9243 0.2056 -2.2598
v 0.7480 0.1731 -2.3672
v 0.7480 0.2053 -2.3672
v 0.7480 0.1731 -2.3002
v 0.7480 0.2053 -2.3002
v 1.0085 0.7882 1.2191
v -1.0051 0.7882 1.2191
v -1.0051 0.7141 1.4688
v 1.0085 0.7141 1.4688
v -1.0051 0.5154 1.6392
v 1.0085 0.5154 1.6392
v -1.0051 0.3164 1.6867
v 1.0052 0.3164 1.6867
v 1.0052 0.3062 0.7574
v -1.0051 0.3062 0.7574
v -1.0051 0.5154 0.7989
v 1.0085 0.5154 0.7989
v -1.0051 0.7141 0.9694
v 1.0085 0.7141 0.9694
v 1.0085 0.6074 1.4147
v 1.0085 0.4544 1.5473
v -1.0051 0.4544 1.5473
v -1.0051 0.6074 1.4147
v 1.0052 0.3164 1.5844
v -1.0051 0.3164 1.5844
v 1.0085 0.3112 0.8577
v 1.0085 0.4544 0.8936
v -1.0051 0.4544 0.8936
v -1.0051 0.3112 0.8577
v 1.0085 0.6074 1.0262
v -1.0051 0.6074 1.0262
v 1.0085 0.6645 1.2205
v -1.0051 0.6645 1.2205
v -0.7035 0.4511 -1.2682
v -0.9851 0.4511 -1.2682
v -0.9851 0.2681 -1.2419
v -0.7035 0.2681 -1.2419
v -0.9851 0.0999 -1.3187
v -0.7035 0.0999 -1.3187
v -0.7035 0.0999 -1.8146
v -0.9851 0.0999 -1.8146
v -0.9851 0.2681 -1.8914
v -0.7035 0.2681 -1.8914
v -0.9851 0.4511 -1.8651
v -0.7035 0.4511 -1.8651
v 1.0052 0.3164 -1.0947
v -1.0051 0.3164 -1.0947
v -1.0051 0.1393 -1.1426
v 1.0052 0.1393 -1.1426
v -1.0051 0.3164 -1.1970
v 1.0052 0.3164 -1.1970
v 1.0052 0.1393 -1.2449
v -1.0051 0.1393 -1.2449
v -1.0051 0.3062 -2.0240
v 1.0052 0.3062 -2.0240
v 1.0052 0.1305 -1.9789
v -1.0051 0.1305 -1.9789
v -1.0051 0.3112 -1.9237
v -1.0051 0.1355 -1.8786
v 1.0085 0.3112 -1.9237
v 1.0085 0.1355 -1.8786
v -1.0051 0.7882 -1.5623
v -1.0051 0.7141 -1.8120
v -1.0051 0.6074 -1.7552
v -1.0051 0.6645 -1.5609
v 1.0085 0.7141 -1.8120
v 1.0085 0.7882 -1.5623
v 1.0085 0.6645 -1.5609
v 1.0085 0.6074 -1.7552
v -1.0051 0.5154 -1.9825
v -1.0051 0.4544 -1.8878
v 1.0085 0.5154 -1.9825
v 1.0085 0.4544 -1.8878
v -1.0051 0.5154 -1.1422
v -1.0051 0.4544 -1.2341
v 1.0085 0.5154 -1.1422
v 1.0085 0.4544 -1.2341
v -1.0051 0.7141 -1.3126
v -1.0051 0.6074 -1.3667
v 1.0085 0.7141 -1.3126
v 1.0085 0.6074 -1.3667
v 1.0085 0.1355 0.9028
v 1.0052 0.1305 0.8025
v -1.0051 0.1355 0.9028
v -1.0051 0.1305 0.8025
v 1.0052 0.1393 1.6388
v 1.0052 0.1393 1.5365
v -1.0051 0.1393 1.5365
v -1.0051 0.1393 1.6388
v 1.0017 0.2927 -1.6667
v -0.9983 0.2927 -1.6667
v -0.9983 0.3798 -1.6468
v 1.0017 0.3798 -1.6468
v 1.0017 0.3798 -1.4856
v 1.0017 0.2927 -1.4657
v 1.0017 0.4186 -1.5662
v 0.9885 0.5908 -1.3893
v 0.9044 0.3148 -1.5667
v 0.9885 0.6429 -1.5667
v 0.9885 0.0000 -1.4742
v 0.9885 0.0999 -1.3187
v 0.9885 0.4511 -1.2682
v 0.9885 0.4511 -1.8651
v 0.9885 0.2681 -1.8914
v 0.9885 0.0000 -1.6591
v 0.9885 0.2681 -1.2419
v 0.9885 0.5908 -1.7440
v 0.9885 0.0999 -1.8146
v -0.7035 0.2681 0.8900
v -0.9851 0.2681 0.8900
v -0.9851 0.4511 0.9163
v -0.7035 0.4511 0.9163
v -0.7035 0.0999 0.9668
v -0.9851 0.0999 0.9668
v -0.7035 0.2681 1.5395
v -0.9851 0.2681 1.5395
v -0.9851 0.0999 1.4627
v -0.7035 0.0999 1.4627
v -0.7035 0.4511 1.5132
v -0.9851 0.4511 1.5132
v -0.9010 0.3148 1.2147
v -0.9851 0.5908 1.0374
v -0.9851 0.6429 1.2147
v -0.9851 0.0000 1.1223
v -0.9851 0.0000 1.3072
v -0.9851 0.5908 1.3921
v -0.9983 0.3798 1.2958
v -0.9983 0.4186 1.2152
v -0.9983 0.3798 1.1346
v -0.9983 0.2927 1.1147
v -0.9983 0.2927 1.3157
v 1.0017 0.3798 1.2958
v 1.0017 0.2927 1.3157
v 1.0017 0.3798 1.1346
v 1.0017 0.4186 1.2152
v 0.7069 0.4511 -1.2682
v 0.7069 0.2681 -1.2419
v 0.7069 0.0999 -1.3187
v 0.7069 0.0999 -1.8146
v 0.7069 0.2681 -1.8914
v 0.7069 0.4511 -1.8651
v -0.9983 0.4186 -1.5662
v -0.9983 0.3798 -1.4856
v -0.9983 0.2927 -1.4657
v -0.9851 0.5908 -1.3893
v -0.9851 0.6429 -1.5667
v -0.9010 0.3148 -1.5667
v -0.9851 0.0000 -1.4742
v -0.9851 0.0000 -1.6591
v -0.9851 0.5908 -1.7440
v 0.7069 0.2681 0.8900
v 0.7069 0.4511 0.9163
v 0.9885 0.4511 0.9163
v 0.9885 0.2681 0.8900
v 0.7069 0.0999 0.9668
v 0.9885 0.0999 0.9668
v 0.7069 0.2681 1.5395
v 0.7069 0.0999 1.4627
v 0.9885 0.0999 1.4627
v 0.9885 0.2681 1.5395
v 0.7069 0.4511 1.5132
v 0.9885 0.4511 1.5132
v 0.9044 0.3148 1.2147
v 0.9885 0.5908 1.0374
v 0.9885 0.6429 1.2147
v 0.9885 0.0000 1.1223
v 0.9885 0.0000 1.3072
v 0.9885 0.5908 1.3921
v 1.0017 0.2927 1.1147
v -0.9086 0.5039 2.4174
v -0.8246 0.5039 2.4174
v -0.8246 0.6710 2.3312
v -0.9086 0.6710 2.3312
v -0.5674 0.5039 2.4174
v -0.5674 0.6710 2.3312
v 0.9120 0.5039 2.4174
v 0.9120 0.6710 2.3312
v 0.8280 0.6710 2.3312
v 0.8280 0.5039 2.4174
v 0.5708 0.6710 2.3312
v 0.5708 0.5039 2.4174
v -1.0128 0.9998 -0.4619
v -1.0128 1.0743 -0.4619
v -1.0128 0.9998 -0.5918
v -0.8612 0.9998 -0.4615
v -0.8612 1.0736 -0.4615
v -0.8612 0.9998 -0.5909
v 1.0162 0.9998 -0.4619
v 1.0162 0.9998 -0.5918
v 1.0162 1.0743 -0.4619
v 0.8646 1.0736 -0.4615
v 0.8646 0.9998 -0.4615
v 0.8646 0.9998 -0.5909
v -0.9313 0.8291 0.7854
v -0.9313 0.8778 0.7854
v -0.9921 0.8778 0.7854
v -0.9921 0.8291 0.7854
v -0.9917 0.8291 0.5903
v -0.9917 0.8773 0.5903
v -0.9310 0.8291 0.5903
v -0.9310 0.8773 0.5903
v 0.9347 0.8291 0.7854
v 0.9955 0.8291 0.7854
v 0.9955 0.8778 0.7854
v 0.9347 0.8778 0.7854
v 0.9951 0.8291 0.5903
v 0.9951 0.8773 0.5903
v 0.9344 0.8291 0.5903
v 0.9344 0.8773 0.5903
v 0.4526 0.2524 -2.4576
v 0.4526 0.1261 -2.4576
v -0.9564 0.9435 -0.7136
v -0.6063 1.4400 -0.2370
v -0.5845 1.4149 -0.2604
v -0.9022 0.9741 -0.6825
v -0.9664 0.9354 1.5596
v -0.6035 1.4400 0.9615
v -0.6311 1.3983 0.7672
v -0.9316 0.9886 0.7672
v -0.6311 1.3983 -0.2229
v -0.9316 0.9886 -0.6077
v -0.5845 1.4149 -0.1683
v -0.9022 0.9741 -0.5904
v -0.9316 0.9886 -0.2239
v -0.9316 0.9886 -0.1816
v -0.6311 1.3983 -0.1816
v -0.6311 1.3983 -0.2239
v 0.4037 1.4400 -0.3040
v -0.4003 1.4400 -0.3040
v 0.6345 1.3983 0.7672
v 0.9351 0.9886 0.7672
v -0.4001 1.4149 -0.3275
v 0.4036 1.4149 -0.3275
v 0.6345 1.3983 -0.2239
v 0.6345 1.3983 -0.1816
v 0.9351 0.9886 -0.2239
v 0.9351 0.9886 -0.1816
v 0.6069 1.4400 0.9615
v 0.6097 1.4400 -0.2370
v 0.9351 0.9886 -0.6077
v 0.6345 1.3983 -0.2229
v 0.9698 0.9354 1.5596
v 0.9598 0.9435 -0.7136
v 0.9056 0.9741 -0.6825
v 0.5879 1.4149 -0.2604
v 0.9056 0.9741 -0.5904
v 0.5879 1.4149 -0.1683
v 0.9266 0.9545 -0.6719
v 0.5952 1.4149 -0.2302
v 0.5952 1.4149 0.9391
v 0.9170 0.9741 1.0224
v -0.5918 1.4149 -0.2302
v -0.9232 0.9545 -0.6719
v -0.9136 0.9741 1.0224
v -0.5918 1.4149 0.9391
v 0.4207 0.9545 -0.7533
v 0.4152 1.4149 -0.2981
v -0.4172 0.9545 -0.7533
v -0.4117 1.4149 -0.2981
v -0.9084 0.4215 2.4568
v -0.9084 0.8208 2.4576
v 0.9119 0.4215 2.4568
v 0.9119 0.8208 2.4576
v 0.9119 0.8006 2.2613
v -0.9084 0.8006 2.2613
v 0.4919 0.5283 -2.2358
v 0.4919 0.1931 -2.2165
v -0.9363 0.5183 -2.0481
v -0.4885 0.5283 -2.2358
v -0.4885 0.1931 -2.2165
v -0.9363 0.1931 -2.0288
v 0.4919 0.5212 -2.3572
v -0.4885 0.5212 -2.3572
v -0.9363 0.5112 -2.1695
v -0.4885 0.1860 -2.3379
v 0.4919 0.1860 -2.3379
v -0.9363 0.1860 -2.1501
vn -0.7071 -0.6907 0.1512
vn -0.2826 -0.2732 0.9195
vn -0.7994 -0.0004 0.6008
vn -1.0000 0.0015 -0.0003
vn -0.8117 0.5305 -0.2444
vn -0.7356 0.0677 -0.6741
vn -1.0000 0.0017 0.0003
vn -0.9808 0.1935 -0.0227
vn -1.0000 -0.0000 0.0003
vn -1.0000 0.0000 0.0000
vn -1.0000 0.0000 0.0000
vn -0.0371 0.9949 -0.0934
vn -0.2092 0.6978 -0.6850
vn 0.2426 -0.4787 0.8438
vn 0.8944 -0.4369 0.0956
vn -1.0000 0.0001 0.0000
vn 0.8000 -0.0000 0.6000
vn 0.9808 0.1935 -0.0227
vn 0.0495 0.9942 -0.0956
vn 0.1503 0.7268 -0.6702
vn 0.7356 0.0676 -0.6740
vn 0.8117 0.5305 -0.2444
vn 1.0000 0.0015 -0.0003
vn 1.0000 0.0017 0.0003
vn 1.0000 -0.0000 0.0003
vn 1.0000 0.0000 0.0000
vn 1.0000 0.0000 0.0000
vn 1.0000 0.0001 0.0000
vn 1.0000 -0.0001 -0.0003
vn 0.8323 -0.0328 -0.5534
vn -1.0000 -0.0001 -0.0003
vn -0.6927 -0.0428 -0.7200
vn -0.1983 0.0839 -0.9765
vn 0.2636 0.0671 -0.9623
vn 0.1963 -0.0564 -0.9789
vn -0.1960 -0.0565 -0.9790
vn -0.2913 -0.0558 -0.9550
vn -0.1225 -0.0589 -0.9907
vn -0.5543 -0.0486 -0.8309
vn -0.5545 -0.0494 -0.8307
vn -1.0000 0.0000 0.0000
vn -1.0000 0.0000 0.0000
vn -0.8944 0.4472 0.0000
vn -0.4472 0.8944 0.0000
vn 1.0000 0.0000 0.0000
vn 0.7071 0.7071 0.0000
vn 0.7071 0.7071 0.0000
vn 1.0000 0.0000 0.0000
vn -0.1992 0.0000 -0.9800
vn -0.9197 0.0000 -0.3927
vn -0.4972 0.6247 -0.6021
vn -0.0826 0.5581 -0.8256
vn 0.2427 0.9701 -0.0026
vn -0.8943 0.4472 -0.0128
vn 0.8563 0.3728 -0.3575
vn 1.0000 0.0000 0.0000
vn 0.6400 0.0000 -0.7683
vn -0.9999 0.0000 -0.0125
vn -1.0000 0.0000 0.0000
vn -0.4460 0.8950 0.0000
vn -0.7443 0.3047 -0.5943
vn -0.7817 0.0000 -0.6237
vn 0.2741 0.0000 -0.9617
vn 0.6250 0.7017 -0.3421
vn 1.0000 0.0000 0.0000
vn 0.7077 0.7065 0.0000
vn 1.0000 0.0000 0.0000
vn 0.7817 0.0000 -0.6237
vn 0.7443 0.3047 -0.5943
vn 0.4460 0.8950 0.0000
vn -0.2741 0.0000 -0.9617
vn -0.6250 0.7017 -0.3421
vn -1.0000 0.0000 0.0000
vn -0.7077 0.7065 0.0000
vn 0.7202 0.6904 0.0683
vn -0.7202 0.6904 -0.0683
vn -0.7200 0.6164 0.3187
vn 0.7200 0.5426 0.4327
vn -0.7160 0.3661 0.5945
vn 0.7161 0.2574 0.6488
vn -0.8079 0.0410 0.5879
vn 0.5651 -0.0865 0.8205
vn 0.7961 0.0237 -0.6048
vn -0.5633 -0.0851 -0.8219
vn -0.7174 0.2489 -0.6506
vn 0.7173 0.3546 -0.5997
vn -0.7200 0.5426 -0.4327
vn 0.7200 0.6164 -0.3187
vn 0.8321 -0.3633 -0.4192
vn 0.7156 -0.2847 -0.6379
vn -0.7151 -0.3740 -0.5905
vn -0.9487 -0.2071 -0.2390
vn 0.9017 -0.0079 -0.4323
vn -0.4598 0.0008 -0.8880
vn 0.4644 0.0024 0.8856
vn 0.7195 -0.3739 0.5852
vn -0.7157 -0.2724 0.6431
vn -0.8999 0.0012 0.4361
vn 0.9487 -0.2071 0.2390
vn -0.8321 -0.3633 0.4192
vn 1.0000 0.0000 0.0000
vn -1.0000 0.0000 0.0000
vn 0.0000 0.1423 0.9898
vn -0.9627 -0.0316 0.2687
vn -0.6272 -0.0196 0.7787
vn 0.0000 -0.2381 0.9713
vn -0.7838 -0.2054 0.5861
vn 0.0000 -0.4154 0.9096
vn -0.0000 -0.4154 -0.9096
vn -0.9627 -0.0454 -0.2667
vn -0.6272 -0.2006 -0.7526
vn -0.0000 -0.0452 -0.9990
vn -0.7838 0.0320 -0.6202
vn 0.0000 0.1423 -0.9898
vn 0.5651 -0.0865 0.8205
vn -0.8079 0.0410 0.5879
vn -0.4472 -0.2333 0.8635
vn 0.8944 -0.1167 0.4317
vn -0.4598 0.0008 -0.8880
vn 0.9017 -0.0079 -0.4323
vn 0.4472 0.2333 -0.8635
vn -0.8944 0.1166 -0.4317
vn -0.5633 -0.0851 -0.8219
vn 0.7961 0.0237 -0.6048
vn 0.4411 -0.2231 -0.8693
vn -0.8944 -0.1112 -0.4332
vn -0.8999 0.0012 0.4361
vn -0.4472 0.2223 0.8664
vn 0.4644 0.0024 0.8856
vn 0.9061 0.1051 0.4097
vn -0.7202 0.6904 -0.0683
vn -0.7200 0.5426 -0.4327
vn -0.8321 -0.3633 0.4192
vn -1.0000 0.0000 0.0000
vn 0.7200 0.6164 -0.3187
vn 0.7202 0.6904 0.0683
vn 1.0000 0.0000 0.0000
vn 0.9487 -0.2071 0.2390
vn -0.7174 0.2489 -0.6506
vn -0.7157 -0.2724 0.6431
vn 0.7173 0.3546 -0.5997
vn 0.7195 -0.3739 0.5852
vn -0.7160 0.3661 0.5945
vn -0.7151 -0.3740 -0.5905
vn 0.7161 0.2574 0.6488
vn 0.7156 -0.2847 -0.6379
vn -0.7200 0.6164 0.3187
vn -0.9487 -0.2071 -0.2390
vn 0.7200 0.5426 0.4327
vn 0.8321 -0.3633 -0.4192
vn 0.9061 0.1051 0.4097
vn 0.4411 -0.2231 -0.8693
vn -0.4472 0.2223 0.8664
vn -0.8944 -0.1112 -0.4332
vn 0.8944 -0.1167 0.4317
vn 0.4472 0.2333 -0.8635
vn -0.8944 0.1167 -0.4317
vn -0.4472 -0.2333 0.8635
vn 0.0000 0.2225 -0.9749
vn 0.0000 0.2225 -0.9749
vn 0.0000 0.4917 -0.8708
vn -0.0000 0.7395 -0.6731
vn 0.0000 0.4917 0.8708
vn 0.0000 0.2225 0.9749
vn 0.0000 0.9874 0.1585
vn 0.9687 -0.2089 -0.1343
vn 1.0000 -0.0000 0.0000
vn 0.9687 -0.2483 0.0000
vn 0.9687 0.2383 -0.0700
vn 0.7838 -0.2054 0.5861
vn 0.9627 -0.0316 0.2687
vn 0.7838 0.0320 -0.6202
vn 0.6272 -0.2006 -0.7526
vn 0.9687 0.2383 0.0700
vn 0.6272 -0.0196 0.7786
vn 0.9687 -0.2089 0.1343
vn 0.9627 -0.0454 -0.2667
vn 0.0000 -0.0452 -0.9990
vn -0.6272 -0.2006 -0.7526
vn -0.7838 0.0320 -0.6202
vn 0.0000 0.1423 -0.9898
vn -0.0000 -0.4154 -0.9096
vn -0.9627 -0.0454 -0.2667
vn 0.0000 -0.2381 0.9713
vn -0.6272 -0.0196 0.7787
vn -0.7838 -0.2054 0.5861
vn 0.0000 -0.4154 0.9096
vn 0.0000 0.1423 0.9898
vn -0.9627 -0.0316 0.2687
vn -1.0000 -0.0000 0.0000
vn -0.9687 -0.2089 0.1343
vn -0.9687 -0.2483 -0.0000
vn -0.9687 0.2383 0.0700
vn -0.9687 0.2383 -0.0700
vn -0.9687 -0.2089 -0.1343
vn 0.0000 0.7395 0.6731
vn -0.0000 0.9874 -0.1585
vn 0.0000 0.4917 -0.8708
vn 0.0000 0.2225 -0.9749
vn 0.0000 0.2225 0.9749
vn 0.0000 0.4917 0.8708
vn 0.0000 0.2225 0.9749
vn -0.0000 0.7395 -0.6731
vn -0.0000 0.9874 0.1585
vn 0.0000 0.1423 0.9898
vn 0.0000 -0.2381 0.9712
vn 0.0000 -0.4154 0.9096
vn 0.0000 -0.4154 -0.9096
vn 0.0000 -0.0452 -0.9990
vn 0.0000 0.1423 -0.9898
vn -0.0000 0.9874 -0.1585
vn 0.0000 0.7395 0.6731
vn 0.0000 0.2225 0.9749
vn -0.9687 -0.2089 -0.1343
vn -0.9687 -0.2483 0.0000
vn -1.0000 -0.0000 0.0000
vn -0.9687 0.2383 -0.0700
vn -0.9687 0.2383 0.0700
vn -0.9687 -0.2089 0.1343
vn 0.0000 -0.0452 -0.9990
vn 0.0000 0.1423 -0.9898
vn 0.7838 0.0320 -0.6202
vn 0.6272 -0.2006 -0.7526
vn 0.0000 -0.4154 -0.9096
vn 0.9627 -0.0454 -0.2667
vn 0.0000 -0.2381 0.9712
vn 0.0000 -0.4154 0.9096
vn 0.7838 -0.2054 0.5861
vn 0.6272 -0.0196 0.7786
vn 0.0000 0.1423 0.9898
vn 0.9627 -0.0316 0.2687
vn 1.0000 -0.0000 0.0000
vn 0.9687 -0.2089 0.1343
vn 0.9687 -0.2483 0.0000
vn 0.9687 0.2383 0.0700
vn 0.9687 0.2383 -0.0700
vn 0.9687 -0.2089 -0.1343
vn 0.0000 0.2225 -0.9749
vn 0.0000 0.4586 0.8886
vn 0.0000 0.4586 0.8886
vn 0.0000 0.4586 0.8886
vn 0.0000 0.4586 0.8886
vn 0.0000 0.4586 0.8886
vn 0.0000 0.4586 0.8886
vn 0.0000 0.4587 0.8886
vn 0.0000 0.4587 0.8886
vn 0.0000 0.4587 0.8886
vn 0.0000 0.4587 0.8886
vn 0.0000 0.4587 0.8886
vn 0.0000 0.4587 0.8886
vn -0.4492 0.0000 0.8934
vn -0.4971 0.8677 0.0036
vn -0.7061 0.6143 -0.3522
vn -0.0028 0.0000 1.0000
vn -0.0002 0.5000 0.8660
vn 0.0041 0.8681 -0.4964
vn 0.4492 0.0000 0.8934
vn 0.7061 0.6143 -0.3522
vn 0.4971 0.8677 0.0036
vn 0.0002 0.5000 0.8660
vn 0.0028 0.0000 1.0000
vn -0.0041 0.8681 -0.4964
vn 0.0000 0.0000 1.0000
vn 0.0000 0.8952 0.4456
vn -0.6676 0.3338 0.6655
vn -0.7078 0.0000 0.7064
vn -0.8938 0.0000 -0.4486
vn -0.3329 0.6657 -0.6679
vn 0.0000 0.0000 -1.0000
vn 0.0000 0.7063 -0.7079
vn 0.0000 0.0000 1.0000
vn 0.7078 0.0000 0.7064
vn 0.6676 0.3338 0.6656
vn 0.0000 0.8952 0.4456
vn 0.8938 0.0000 -0.4486
vn 0.3329 0.6657 -0.6679
vn 0.0000 0.0000 -1.0000
vn 0.0000 0.7063 -0.7079
vn 0.1653 0.5578 -0.8134
vn 0.0996 0.0000 -0.9950
vn -0.5863 0.7196 -0.3721
vn -0.5466 0.7792 -0.3067
vn 0.0963 0.5475 -0.8312
vn 0.8825 -0.2621 -0.3906
vn -0.6971 0.6939 0.1802
vn -0.3258 0.9306 0.1666
vn -0.7767 0.5441 -0.3174
vn -0.6113 0.6276 -0.4822
vn -0.8505 0.0756 0.5206
vn -0.6331 0.7512 0.1864
vn 0.8112 -0.5848 0.0000
vn 0.8112 -0.5848 0.0000
vn -0.6261 0.0711 -0.7765
vn -0.3130 -0.5468 0.7765
vn -0.4352 0.8590 0.2699
vn -0.3942 0.7782 -0.4889
vn 0.1157 0.8588 -0.4991
vn -0.0954 0.8328 -0.5452
vn 0.6810 0.4771 -0.5555
vn 0.5612 0.7977 -0.2210
vn -0.1298 0.6764 -0.7250
vn 0.0865 0.6798 -0.7283
vn 0.2392 0.7687 -0.5932
vn 0.4783 0.6475 0.5932
vn 0.7806 -0.3954 -0.4841
vn 0.5982 -0.3030 0.7419
vn 0.5867 0.7959 0.1493
vn 0.4699 0.8424 -0.2637
vn 0.7893 0.4029 0.4633
vn 0.9002 0.3230 0.2922
vn 0.5801 0.7568 0.3013
vn 0.5863 0.7196 -0.3721
vn -0.8825 -0.2621 -0.3906
vn -0.0962 0.5475 -0.8312
vn -0.8112 -0.5848 0.0000
vn -0.8112 -0.5848 0.0000
vn 0.6503 0.7154 -0.2555
vn 0.4388 0.7418 -0.5071
vn 0.8097 0.5868 -0.0011
vn 0.8079 0.5894 -0.0022
vn -0.6742 0.7036 -0.2244
vn -0.4293 0.7580 -0.4910
vn -0.8091 0.5876 -0.0011
vn -0.8077 0.5896 0.0000
vn 0.1232 0.7081 -0.6953
vn 0.0868 0.7009 -0.7079
vn -0.0379 0.7028 -0.7104
vn -0.1156 0.7233 -0.6807
vn 0.2493 0.1156 0.9615
vn 0.3152 -0.0006 0.9490
vn -0.2040 0.1884 0.9607
vn -0.3203 -0.0006 0.9473
vn -0.7071 0.3241 0.6285
vn 0.4472 0.4100 0.7949
vn 0.8323 -0.0324 -0.5533
vn 0.8325 -0.0318 -0.5531
vn 0.5542 -0.0486 -0.8309
vn -0.8322 -0.0318 -0.5536
vn -0.8324 -0.0324 -0.5533
vn 0.5540 -0.0494 -0.8311
vn 0.6142 -0.0455 -0.7879
vn -0.7518 -0.0380 -0.6583
vn -0.0566 -0.0586 -0.9967
vn -0.6922 -0.0415 -0.7205
vn 0.9325 -0.0207 -0.3605
vn 0.8682 -0.0295 -0.4953

usemtl mat_body
f 7//7 5//5 4//4
f 8//8 7//7 9//9
f 11//11 3//3 10//10
f 5//5 12//12 13//13
f 2//2 1//1 14//14
f 15//15 14//14 1//1
f 16//16 10//10 8//8
f 12//12 19//19 20//20
f 12//12 20//20 13//13
f 24//24 23//23 22//22
f 18//18 25//25 24//24
f 27//27 26//26 17//17
f 22//22 20//20 19//19
f 28//28 18//18 26//26
f 33//33 35//35 36//36
f 6//6 5//5 13//13
f 33//33 13//13 20//20
f 22//22 21//21 20//20
f 44//44 43//43 47//47
f 44//44 47//47 46//46
f 53//53 52//52 51//51
f 53//53 51//51 54//54
f 75//75 76//76 77//77
f 75//75 77//77 78//78
f 78//78 77//77 79//79
f 78//78 79//79 80//80
f 80//80 79//79 81//81
f 80//80 81//81 82//82
f 83//83 84//84 85//85
f 83//83 85//85 86//86
f 86//86 85//85 87//87
f 86//86 87//87 88//88
f 88//88 87//87 76//76
f 88//88 76//76 75//75
f 89//89 90//90 91//91
f 89//89 91//91 92//92
f 90//90 93//93 94//94
f 90//90 94//94 91//91
f 95//95 96//96 97//97
f 95//95 97//97 98//98
f 96//96 99//99 100//100
f 96//96 100//100 97//97
f 75//75 78//78 89//89
f 75//75 89//89 101//101
f 77//77 76//76 102//102
f 77//77 102//102 92//92
f 78//78 80//80 90//90
f 78//78 90//90 89//89
f 79//79 77//77 92//92
f 79//79 92//92 91//91
f 80//80 93//93 90//90
f 81//81 79//79 91//91
f 83//83 86//86 96//96
f 85//85 98//98 97//97
f 86//86 88//88 99//99
f 86//86 99//99 96//96
f 87//87 85//85 97//97
f 87//87 97//97 100//100
f 88//88 75//75 101//101
f 88//88 101//101 99//99
f 76//76 87//87 100//100
f 76//76 100//100 102//102
f 115//115 116//116 117//117
f 115//115 117//117 118//118
f 119//119 120//120 121//121
f 119//119 121//121 122//122
f 123//123 124//124 125//125
f 123//123 125//125 126//126
f 129//129 127//127 128//128
f 129//129 128//128 130//130
f 131//131 132//132 133//133
f 131//131 133//133 134//134
f 135//135 136//136 137//137
f 135//135 137//137 138//138
f 116//116 143//143 144//144
f 145//145 120//120 146//146
f 143//143 147//147 148//148
f 143//143 148//148 144//144
f 149//149 145//145 146//146
f 149//149 146//146 150//150
f 147//147 131//131 134//134
f 147//147 134//134 148//148
f 136//136 149//149 150//150
f 136//136 150//150 137//137
f 142//142 138//138 133//133
f 95//95 98//98 153//153
f 95//95 153//153 151//151
f 84//84 83//83 152//152
f 84//84 152//152 154//154
f 94//94 93//93 156//156
f 94//94 156//156 157//157
f 82//82 81//81 158//158
f 82//82 158//158 155//155
f 146//146 120//120 119//119
f 146//146 119//119 144//144
f 150//150 146//146 144//144
f 150//150 144//144 148//148
f 135//135 132//132 131//131
f 135//135 131//131 136//136
f 145//145 143//143 116//116
f 145//145 116//116 115//115
f 149//149 147//147 143//143
f 149//149 143//143 145//145
f 136//136 131//131 147//147
f 136//136 147//147 149//149
f 159//159 160//160 161//161
f 159//159 161//161 162//162
f 166//166 167//167 168//168
f 171//171 167//167 166//166
f 176//176 167//167 172//172
f 176//176 168//168 167//167
f 191//191 190//190 192//192
f 191//191 180//180 190//190
f 189//189 195//195 190//190
f 195//195 192//192 190//190
f 201//201 196//196 200//200
f 201//201 200//200 202//202
f 203//203 198//198 197//197
f 203//203 197//197 204//204
f 204//204 197//197 196//196
f 204//204 196//196 201//201
f 165//165 211//211 212//212
f 165//165 212//212 163//163
f 162//162 161//161 211//211
f 162//162 211//211 165//165
f 163//163 212//212 213//213
f 163//163 213//213 164//164
f 214//214 215//215 216//216
f 104//104 214//214 216//216
f 219//219 113//113 216//216
f 219//219 216//216 215//215
f 233//233 234//234 232//232
f 233//233 232//232 222//222
f 231//231 232//232 237//237
f 237//237 232//232 234//234
f 238//238 199//199 198//198
f 238//238 198//198 203//203
f 53//53 279//279 52//52
f 280//280 49//49 52//52
f 280//280 52//52 279//279
f 294//294 293//293 305//305
f 294//294 305//305 306//306
f 300//300 309//309 290//290
f 300//300 290//290 288//288
f 331//331 329//329 2//2
f 331//331 2//2 14//14
f 330//330 332//332 17//17
f 330//330 17//17 3//3
f 344//344 33//33 36//36
f 341//341 345//345 35//35

usemtl mat_glass
f 7//7 8//8 5//5
f 8//8 10//10 3//3
f 5//5 8//8 12//12
f 24//24 22//22 18//18
f 18//18 17//17 26//26
f 22//22 19//19 18//18
f 251//251 252//252 253//253
f 251//251 254//254 255//255
f 251//251 255//255 252//252
f 252//252 255//255 256//256
f 252//252 256//256 253//253
f 257//257 258//258 259//259
f 257//257 259//259 260//260
f 257//257 260//260 261//261
f 259//259 258//258 262//262
f 259//259 262//262 260//260
f 263//263 264//264 265//265
f 263//263 265//265 266//266
f 267//267 266//266 265//265
f 267//267 265//265 268//268
f 269//269 267//267 268//268
f 269//269 268//268 270//270
f 264//264 270//270 268//268
f 264//264 268//268 265//265
f 271//271 272//272 273//273
f 271//271 273//273 274//274
f 275//275 276//276 273//273
f 275//275 273//273 272//272
f 277//277 278//278 276//276
f 277//277 276//276 275//275
f 274//274 273//273 276//276
f 274//274 276//276 278//278
f 281//281 282//282 283//283
f 281//281 283//283 284//284
f 285//285 286//286 287//287
f 285//285 287//287 288//288
f 286//286 282//282 289//289
f 286//286 289//289 287//287
f 282//282 281//281 290//290
f 282//282 290//290 289//289
f 281//281 285//285 288//288
f 281//281 288//288 290//290
f 284//284 283//283 291//291
f 284//284 291//291 292//292
f 293//293 294//294 295//295
f 293//293 295//295 296//296
f 286//286 297//297 298//298
f 299//299 300//300 288//288
f 299//299 288//288 287//287
f 298//298 301//301 283//283
f 298//298 283//283 282//282
f 302//302 301//301 298//298
f 302//302 298//298 297//297
f 303//303 296//296 295//295
f 303//303 295//295 304//304
f 303//303 305//305 293//293
f 303//303 293//293 296//296
f 286//286 307//307 308//308
f 286//286 308//308 297//297
f 309//309 310//310 289//289
f 309//309 289//289 290//290
f 304//304 295//295 294//294
f 304//304 294//294 306//306
f 286//286 311//311 307//307
f 312//312 313//313 314//314
f 312//312 314//314 308//308
f 311//311 300//300 299//299
f 311//311 299//299 307//307
f 307//307 299//299 310//310
f 307//307 310//310 308//308
f 308//308 310//310 309//309
f 308//308 309//309 312//312
f 312//312 309//309 300//300
f 312//312 300//300 311//311
f 313//313 315//315 316//316
f 313//313 316//316 314//314
f 305//305 303//303 304//304
f 305//305 304//304 306//306
f 286//286 298//298 282//282
f 297//297 308//308 314//314
f 297//297 314//314 302//302
f 317//317 318//318 319//319
f 317//317 319//319 320//320
f 321//321 322//322 323//323
f 321//321 323//323 324//324
f 325//325 326//326 318//318
f 325//325 318//318 317//317
f 326//326 325//325 327//327
f 326//326 327//327 328//328
f 322//322 321//321 328//328
f 322//322 328//328 327//327
f 311//311 286//286 285//285

usemtl mat_tires
f 37//37 38//38 39//39
f 49//49 50//50 51//51
f 49//49 51//51 52//52
f 59//59 60//60 61//61
f 59//59 61//61 62//62
f 63//63 62//62 61//61
f 63//63 61//61 64//64
f 65//65 63//63 64//64
f 65//65 64//64 66//66
f 60//60 66//66 64//64
f 60//60 64//64 61//61
f 67//67 68//68 69//69
f 67//67 69//69 70//70
f 71//71 72//72 69//69
f 71//71 69//69 68//68
f 73//73 74//74 72//72
f 73//73 72//72 71//71
f 70//70 69//69 72//72
f 70//70 72//72 74//74
f 103//103 104//104 105//105
f 103//103 105//105 106//106
f 106//106 105//105 107//107
f 106//106 107//107 108//108
f 109//109 110//110 111//111
f 109//109 111//111 112//112
f 178//178 179//179 180//180
f 178//178 180//180 181//181
f 182//182 183//183 179//179
f 182//182 179//179 178//178
f 184//184 185//185 186//186
f 184//184 186//186 187//187
f 188//188 189//189 185//185
f 188//188 185//185 184//184
f 205//205 206//206 175//175
f 205//205 175//175 171//171
f 206//206 207//207 170//170
f 206//206 170//170 175//175
f 208//208 209//209 173//173
f 208//208 173//173 177//177
f 220//220 221//221 222//222
f 220//220 222//222 223//223
f 224//224 220//220 223//223
f 224//224 223//223 225//225
f 226//226 227//227 228//228
f 226//226 228//228 229//229
f 230//230 226//226 229//229
f 230//230 229//229 231//231
f 53//53 55//55 279//279
f 57//57 280//280 279//279
f 57//57 279//279 55//55
f 343//343 346//346 32//32
f 346//346 337//337 340//340

usemtl mat_rims
f 16//16 8//8 9//9
f 28//28 25//25 18//18
f 29//29 30//30 21//21
f 31//31 6//6 32//32
f 41//41 42//42 43//43
f 41//41 43//43 44//44
f 45//45 46//46 47//47
f 45//45 47//47 48//48
f 55//55 53//53 56//56
f 55//55 56//56 57//57
f 50//50 58//58 54//54
f 50//50 54//54 51//51
f 80//80 82//82 93//93
f 81//81 91//91 94//94
f 83//83 96//96 95//95
f 85//85 84//84 98//98
f 116//116 119//119 122//122
f 116//116 122//122 117//117
f 120//120 115//115 118//118
f 120//120 118//118 121//121
f 127//127 123//123 126//126
f 127//127 126//126 128//128
f 124//124 129//129 130//130
f 124//124 130//130 125//125
f 116//116 144//144 119//119
f 145//145 115//115 120//120
f 83//83 95//95 151//151
f 83//83 151//151 152//152
f 98//98 84//84 154//154
f 98//98 154//154 153//153
f 93//93 82//82 155//155
f 93//93 155//155 156//156
f 81//81 94//94 157//157
f 81//81 157//157 158//158
f 169//169 167//167 170//170
f 172//172 167//167 173//173
f 174//174 167//167 169//169
f 175//175 167//167 171//171
f 177//177 167//167 174//174
f 175//175 170//170 167//167
f 173//173 167//167 177//177
f 179//179 183//183 190//190
f 185//185 190//190 186//186
f 183//183 193//193 190//190
f 185//185 189//189 190//190
f 193//193 194//194 190//190
f 180//180 179//179 190//190
f 194//194 186//186 190//190
f 217//217 107//107 216//216
f 113//113 111//111 216//216
f 218//218 217//217 216//216
f 105//105 104//104 216//216
f 110//110 218//218 216//216
f 105//105 216//216 107//107
f 111//111 110//110 216//216
f 223//223 232//232 225//225
f 229//229 228//228 232//232
f 225//225 232//232 235//235
f 229//229 232//232 231//231
f 235//235 232//232 236//236
f 222//222 232//232 223//223
f 236//236 232//232 228//228
f 38//38 21//21 30//30

usemtl mat_headlights
f 4//4 5//5 6//6
f 21//21 22//22 23//23
f 33//33 34//34 35//35
f 37//37 39//39 40//40
f 29//29 21//21 23//23
f 31//31 4//4 6//6
f 33//33 6//6 13//13
f 34//34 33//33 20//20
f 21//21 34//34 20//20
f 112//112 111//111 113//113
f 112//112 113//113 114//114
f 132//132 139//139 140//140
f 132//132 140//140 133//133
f 141//141 135//135 138//138
f 141//141 138//138 142//142
f 139//139 123//123 127//127
f 139//139 127//127 140//140
f 124//124 141//141 142//142
f 124//124 142//142 129//129
f 142//142 133//133 140//140
f 129//129 142//142 140//140
f 129//129 140//140 127//127
f 141//141 139//139 132//132
f 141//141 132//132 135//135
f 124//124 123//123 139//139
f 124//124 139//139 141//141
f 209//209 210//210 172//172
f 209//209 172//172 173//173
f 335//335 40//40 39//39
f 335//335 39//39 336//336
f 337//337 338//338 339//339
f 337//337 339//339 340//340
f 37//37 341//341 34//34
f 37//37 34//34 21//21
f 342//342 343//343 6//6
f 342//342 6//6 33//33
f 38//38 37//37 21//21
f 344//344 342//342 33//33
f 341//341 35//35 34//34
f 343//343 32//32 6//6
f 346//346 343//343 337//337
f 342//342 344//344 339//339
f 342//342 339//339 338//338
f 345//345 341//341 335//335
f 345//345 335//335 336//336

usemtl mat_taillights
f 1//1 2//2 3//3
f 3//3 11//11 1//1
f 15//15 17//17 14//14
f 17//17 15//15 27//27
f 239//239 240//240 241//241
f 239//239 241//241 242//242
f 240//240 243//243 244//244
f 240//240 244//244 241//241
f 245//245 246//246 247//247
f 245//245 247//247 248//248
f 248//248 247//247 249//249
f 248//248 249//249 250//250
f 329//329 330//330 3//3
f 329//329 3//3 2//2
f 332//332 331//331 14//14
f 332//332 14//14 17//17
f 331//331 333//333 334//334
f 331//331 334//334 329//329
f 331//331 332//332 333//333
f 330//330 329//329 334//334
