# 3D Model: player_car
mtllib player_car.mtl

v -0.8826 0.9124 -0.6242
v -0.5689 1.2269 0.0642
v -0.5689 1.2269 0.8047
v -0.8826 0.9124 0.8047
v 0.8825 0.9124 -0.6242
v 0.8825 0.9124 0.8047
v 0.5688 1.2269 0.8047
v 0.5688 1.2269 0.0642
v 1.0736 0.1753 1.6492
v 1.0781 0.5120 2.2588
v 1.0781 0.8944 2.2588
v -1.0782 0.5120 2.2588
v -1.0782 0.8944 2.2588
v 1.0781 0.1457 -1.6825
v 1.0783 0.5973 -1.5531
v 1.0781 0.4927 -2.2707
v 1.0781 0.1457 -2.2707
v 1.0783 0.5914 -1.0608
v 1.0781 0.8944 -0.8526
v 1.0782 0.1428 -0.9267
v 0.7286 0.4504 2.1471
v 0.7286 0.2370 1.7608
v 0.7286 0.3041 1.7238
v 0.7286 0.5175 2.1100
v 1.0781 0.6621 0.9348
v 1.0781 0.6789 1.4991
v -1.0827 0.1753 1.6492
v -1.0782 0.1457 -1.6825
v -1.0782 0.1457 -2.2707
v -1.0782 0.4927 -2.2707
v -1.0784 0.5973 -1.5531
v -1.0784 0.5914 -1.0608
v -1.0782 0.8944 -0.8526
v -1.0782 0.1391 0.8133
v -1.0783 0.1428 -0.9268
v -1.0782 0.6621 0.9348
v -1.0782 0.6789 1.4991
v -1.0234 0.4380 -2.2707
v -1.0234 0.2004 -2.2707
v -1.0234 0.2004 -2.2257
v -1.0234 0.4380 -2.2257
v -0.7287 0.4504 2.1471
v -0.7287 0.2370 1.7608
v -0.7287 0.3041 1.7238
v -0.7287 0.5175 2.1100
v 0.9596 0.6370 0.6997
v 1.0781 0.2701 0.6293
v 1.0781 0.6569 0.7853
v 1.0781 0.1391 0.8133
v 1.0782 0.2735 -0.7807
v 1.1402 0.1343 -0.9740
v 1.1402 0.1343 0.8669
v 1.1402 0.2391 0.8669
v 1.1402 0.2391 -0.9740
v -1.1402 0.1343 -0.9740
v -1.1402 0.2391 -0.9740
v -1.1402 0.2391 0.8669
v -1.1402 0.1343 0.8669
v -0.8162 0.2354 -2.2310
v -0.8162 0.2354 -2.2983
v -0.8162 0.3153 -2.2983
v -0.8162 0.3153 -2.2310
v 0.6601 0.2354 -2.2978
v 0.8161 0.2354 -2.2983
v 0.8161 0.3153 -2.2983
v 0.6601 0.3146 -2.2978
v 0.6601 0.2354 -2.2307
v 0.6601 0.3146 -2.2307
v 0.8161 0.3153 -2.2310
v 0.8161 0.2354 -2.2310
v 1.0020 0.2354 -2.2310
v 1.0020 0.3153 -2.2310
v 1.0020 0.3153 -2.2983
v 1.0020 0.2354 -2.2983
v 0.8448 0.2354 -2.2978
v 0.8448 0.3146 -2.2978
v 0.8448 0.2354 -2.2307
v 0.8448 0.3146 -2.2307
v -1.0021 0.2354 -2.2310
v -1.0021 0.2354 -2.2983
v -1.0021 0.3153 -2.2983
v -1.0021 0.3153 -2.2310
v -0.8449 0.2354 -2.2978
v -0.8449 0.3146 -2.2978
v -0.8449 0.2354 -2.2307
v -0.8449 0.3146 -2.2307
v 1.1239 0.1435 -1.6590
v 1.1239 0.2797 -1.6590
v 1.1239 0.1862 -2.3397
v 1.1239 0.1435 -2.3397
v 0.8871 0.1435 -2.3392
v 0.8871 0.1858 -2.3392
v 0.4703 0.1435 -1.6588
v 0.4703 0.2794 -1.6588
v -1.0834 0.1435 -1.6590
v -1.0834 0.1435 -2.3397
v -1.0834 0.1862 -2.3397
v -1.0834 0.2797 -1.6590
v -0.8720 0.1435 -2.3392
v -0.8720 0.1858 -2.3392
v -0.4997 0.1435 -1.6588
v -0.4997 0.2794 -1.6588
v -1.1420 0.7908 1.2225
v 1.1420 0.7908 1.2225
v 1.1420 0.7167 1.4723
v -1.1420 0.7167 1.4723
v 1.1420 0.5179 1.6427
v -1.1420 0.5179 1.6427
v 1.1420 0.3190 1.6901
v -1.1382 0.3190 1.6901
v -1.1382 0.3088 0.7608
v 1.1420 0.3088 0.7608
v 1.1420 0.5179 0.8024
v -1.1420 0.5179 0.8024
v 1.1420 0.7167 0.9728
v -1.1420 0.7167 0.9728
v -1.1420 0.6100 1.4182
v -1.0786 0.4570 1.5508
v 1.0784 0.4570 1.5508
v 1.1420 0.6100 1.4182
v -1.1382 0.3190 1.5878
v 1.1420 0.3190 1.5878
v -1.1420 0.3138 0.8611
v -1.1420 0.4570 0.8971
v 1.1420 0.4570 0.8971
v 1.1420 0.3138 0.8611
v -1.1420 0.6100 1.0297
v 1.1420 0.6100 1.0297
v -1.1420 0.6670 1.2239
v 1.1420 0.6670 1.2239
v -0.7214 0.2715 -1.7271
v -1.1361 0.2715 -1.7271
v -1.1361 0.1391 -1.6786
v -0.7214 0.1391 -1.6786
v -1.1398 0.4627 -1.6837
v -0.7232 0.4627 -1.6837
v -0.7232 0.6409 -1.5310
v -1.1398 0.6409 -1.5310
v -1.1398 0.5453 -1.1318
v -1.1398 0.4081 -1.0129
v 1.1397 0.4081 -1.0129
v 1.1397 0.5453 -1.1318
v -1.1361 0.2844 -0.9798
v 1.1397 0.2844 -0.9798
v -1.1398 0.2715 -1.6371
v -1.1398 0.4081 -1.5989
v 1.1397 0.4081 -1.5989
v 1.1397 0.2715 -1.6371
v -1.1398 0.5453 -1.4800
v 1.1397 0.5453 -1.4800
v -1.1398 0.7073 -1.3072
v -1.1398 0.6409 -1.0833
v -1.1398 0.5964 -1.3059
v 1.1397 0.6409 -1.0833
v 1.1397 0.7073 -1.3072
v 1.1397 0.5964 -1.3059
v -1.1398 0.4627 -0.9306
v 1.1397 0.4627 -0.9306
v -1.1361 0.2844 -0.8880
v 1.1397 0.2844 -0.8880
v 1.1397 0.4627 -1.6837
v 1.1397 0.2715 -1.7271
v 1.1397 0.6409 -1.5310
v -0.7232 0.7073 -1.3072
v -0.7232 0.4627 -0.9306
v -0.7214 0.2844 -0.8880
v -0.7214 0.1336 -0.9255
v -1.1361 0.1336 -0.9255
v -1.1361 0.1336 -1.0172
v 1.1397 0.1336 -1.0172
v 1.1397 0.1336 -0.9255
v 1.1397 0.1391 -1.6786
v 1.1397 0.1391 -1.5887
v -1.1398 0.1391 -1.5887
v 0.7249 0.2715 -1.7271
v 0.7249 0.1391 -1.6786
v -1.1420 0.1380 0.9062
v -1.1382 0.1330 0.8059
v 1.1420 0.1380 0.9062
v 1.1420 0.1330 0.8059
v -1.0698 0.4949 2.1902
v -1.1356 0.1220 1.5399
v 1.1392 0.1617 1.5399
v 1.1595 0.4985 1.6531
v -0.7232 0.6409 -1.0833
v 0.7249 0.2844 -0.8880
v 0.7249 0.1336 -0.9255
v 0.7231 0.4627 -0.9306
v 0.7231 0.6409 -1.0833
v 0.7231 0.6409 -1.5310
v 0.7231 0.7073 -1.3072
v 0.7231 0.4627 -1.6837
v 0.8233 0.3895 -1.5655
v 1.0967 0.3895 -1.5655
v 1.0967 0.5101 -1.4610
v 0.8233 0.5101 -1.4610
v 0.8233 0.2315 -1.5882
v 1.0967 0.2315 -1.5882
v 0.8233 0.0863 -1.5219
v 1.0967 0.0863 -1.5219
v 0.8233 0.0000 -1.3877
v 1.0967 0.0000 -1.3877
v 0.8233 0.0000 -1.2280
v 1.0967 0.0000 -1.2280
v 0.8233 0.0863 -1.0938
v 1.0967 0.0863 -1.0938
v 0.8233 0.2315 -1.0275
v 1.0967 0.2315 -1.0275
v 0.8233 0.3895 -1.0502
v 1.0967 0.3895 -1.0502
v 0.8233 0.5101 -1.1547
v 1.0967 0.5101 -1.1547
v 0.8233 0.5551 -1.3079
v 1.0967 0.5551 -1.3079
v 0.9947 0.2718 -1.3079
v 1.0743 0.4265 -1.0864
v 1.0743 0.5311 -1.3793
v 1.0743 0.2847 -1.5693
v 1.0743 0.0280 -1.3937
v 1.0743 0.1156 -1.0952
v 1.1005 0.3169 -1.2550
v 1.1005 0.3408 -1.3048
v 1.1005 0.3169 -1.3545
v 1.1005 0.2630 -1.3668
v 1.1005 0.2198 -1.3324
v 1.1005 0.2198 -1.2772
v 1.1005 0.2630 -1.2428
v 0.7929 0.4536 0.9198
v 1.1098 0.4536 0.9198
v 1.1098 0.5933 1.0408
v 0.7929 0.5933 1.0408
v 0.7929 0.2707 0.8934
v 1.1098 0.2707 0.8934
v 0.7929 0.1025 0.9702
v 1.1098 0.1025 0.9702
v 0.7929 0.0026 1.1258
v 1.1098 0.0025 1.1258
v 0.7929 0.0025 1.3106
v 1.1098 0.0025 1.3106
v 0.7929 0.1025 1.4661
v 1.1098 0.1025 1.4661
v 0.7929 0.2707 1.5429
v 1.1098 0.2707 1.5429
v 0.7929 0.4536 1.5166
v 1.1098 0.4536 1.5166
v 0.7929 0.5933 1.3956
v 1.1098 0.5933 1.3956
v 0.7929 0.6454 1.2182
v 1.1098 0.6454 1.2182
v 1.0151 0.3173 1.2182
v 1.0833 0.4966 1.4747
v 1.0833 0.6177 1.1354
v 1.0833 0.3323 0.9154
v 1.0833 0.0349 1.1187
v 1.0833 0.1364 1.4644
v 1.1246 0.3824 1.2992
v 1.1246 0.4212 1.2186
v 1.1246 0.3824 1.1381
v 1.1246 0.2952 1.1182
v 1.1246 0.2253 1.1739
v 1.1246 0.2253 1.2634
v 1.1246 0.2952 1.3191
v -1.1247 0.2253 1.1739
v -1.1247 0.2952 1.1182
v -1.1247 0.2253 1.2634
v -1.1247 0.2952 1.3191
v -1.1247 0.3824 1.2992
v -1.1247 0.3824 1.1381
v -1.1247 0.4212 1.2186
v -1.1007 0.2630 -1.3668
v -1.1007 0.3169 -1.3545
v -1.1007 0.2199 -1.3324
v -1.1007 0.2199 -1.2772
v -1.1007 0.2630 -1.2428
v -1.1007 0.3169 -1.2550
v -1.1007 0.3408 -1.3048
v -0.8234 0.3895 -1.5655
v -0.8234 0.5101 -1.4610
v -1.0969 0.5101 -1.4610
v -1.0969 0.3895 -1.5655
v -0.8234 0.2315 -1.5882
v -1.0969 0.2315 -1.5882
v -0.8234 0.0863 -1.5219
v -1.0969 0.0863 -1.5219
v -0.8234 0.0000 -1.3877
v -1.0969 0.0000 -1.3877
v -0.8234 0.0000 -1.2280
v -1.0969 0.0000 -1.2280
v -0.8234 0.0863 -1.0938
v -1.0969 0.0863 -1.0938
v -0.8234 0.2315 -1.0275
v -1.0969 0.2315 -1.0275
v -0.8234 0.3895 -1.0502
v -1.0969 0.3895 -1.0502
v -0.8234 0.5101 -1.1547
v -1.0969 0.5101 -1.1547
v -0.8234 0.5551 -1.3079
v -1.0969 0.5551 -1.3079
v -0.9948 0.2718 -1.3079
v -1.0744 0.4265 -1.0864
v -1.0744 0.1156 -1.0952
v -1.0744 0.0280 -1.3937
v -1.0744 0.2847 -1.5693
v -1.0744 0.5311 -1.3793
v -0.7930 0.4536 0.9198
v -0.7930 0.5933 1.0408
v -1.1098 0.5933 1.0408
v -1.1098 0.4536 0.9198
v -0.7930 0.2707 0.8934
v -1.1098 0.2707 0.8934
v -0.7930 0.1025 0.9702
v -1.1098 0.1025 0.9702
v -0.7930 0.0026 1.1258
v -1.1098 0.0026 1.1258
v -0.7930 0.0026 1.3106
v -1.1098 0.0026 1.3106
v -0.7930 0.1025 1.4661
v -1.1098 0.1025 1.4661
v -0.7930 0.2707 1.5429
v -1.1098 0.2707 1.5429
v -0.7930 0.4536 1.5166
v -1.1098 0.4536 1.5166
v -0.7930 0.5933 1.3956
v -1.1098 0.5933 1.3956
v -0.7930 0.6454 1.2182
v -1.1098 0.6454 1.2182
v -1.0151 0.3173 1.2182
v -1.0833 0.4966 1.4747
v -1.0833 0.1364 1.4644
v -1.0833 0.0349 1.1187
v -1.0833 0.3323 0.9154
v -1.0833 0.6177 1.1354
v 0.5823 1.2489 0.8137
v -0.5825 1.2489 0.8137
v -0.5825 1.2489 0.0626
v 0.5823 1.2489 0.0626
v -0.6098 1.2190 0.7707
v -0.6098 1.2190 0.0767
v -0.9376 0.8939 0.8137
v -0.9101 0.9255 0.7707
v -0.9376 0.8931 -0.7102
v -0.9101 0.9255 -0.5687
v -0.5582 1.2309 0.0243
v 0.5580 1.2309 0.0243
v -0.8776 0.9151 -0.6622
v 0.9374 0.8931 -0.7102
v 0.8775 0.9151 -0.6622
v 0.9374 0.8939 0.8137
v 0.6097 1.2190 0.7707
v 0.9100 0.9255 0.7707
v 0.6097 1.2190 0.0767
v 0.9100 0.9255 -0.5687
v 0.6697 1.2489 0.9649
v -0.6699 1.2489 0.9649
v -0.6699 1.2489 0.8137
v 0.6697 1.2489 0.8137
v 1.0694 0.8909 0.8137
v 1.0713 0.8874 2.1950
v 0.5973 1.2204 1.0565
v 0.9457 0.9586 1.9652
v 0.9457 0.9052 1.9443
v 0.5973 1.1671 1.0356
v -1.0694 0.8909 0.8137
v -1.0714 0.8874 2.1950
v 1.0314 0.8903 0.8137
v 0.6589 1.2225 0.8137
v 0.6589 1.2225 0.9501
v 1.0314 0.8903 0.9501
v -0.6590 1.2225 0.8137
v -1.0315 0.8903 0.8137
v -0.6590 1.2225 0.9501
v -1.0315 0.8903 0.9501
v -0.9459 0.9586 1.9652
v -0.5975 1.2204 1.0565
v -0.5975 1.1671 1.0356
v -0.9459 0.9052 1.9443
v -0.8819 1.0190 1.6423
v 0.8818 1.0190 1.6423
v 0.8818 1.0013 1.8037
v -0.8819 1.0013 1.8037
v -0.7585 1.1134 1.3383
v 0.7584 1.1134 1.3383
v 0.7584 1.0957 1.4996
v -0.7585 1.0957 1.4996
v -0.9436 0.9718 1.7943
v 0.9434 0.9718 1.7943
v 0.9434 0.9541 1.9557
v -0.9436 0.9541 1.9557
v -0.8201 1.0662 1.4903
v 0.8200 1.0662 1.4903
v 0.8200 1.0485 1.6517
v -0.8201 1.0485 1.6517
v -0.6966 1.1606 1.1862
v 0.6966 1.1606 1.1862
v 0.6966 1.1429 1.3476
v -0.6966 1.1429 1.3476
v -0.6669 1.2067 1.0496
v 0.6668 1.2067 1.0496
v 0.6668 1.1890 1.2110
v -0.6669 1.1890 1.2110
v 0.5241 0.2370 1.7608
v 0.5241 0.4504 2.1471
v 0.5241 0.5175 2.1100
v 0.5241 0.3041 1.7238
v -0.5242 0.2370 1.7608
v -0.5242 0.3041 1.7238
v -0.5242 0.5175 2.1100
v -0.5242 0.4504 2.1471
v 1.0073 0.7972 2.3397
v 1.0073 0.7972 2.2313
v 1.0073 0.6092 2.2313
v 1.0073 0.6092 2.3397
v 0.9144 0.7972 2.3397
v 0.9144 0.7972 2.2313
v 0.6930 0.7972 2.3397
v 0.6930 0.7972 2.2313
v 0.9144 0.6092 2.3397
v -0.0001 0.7972 2.3397
v -0.0001 0.7972 2.2313
v 0.6930 0.6092 2.3397
v -0.0001 0.6092 2.3397
v -1.0073 0.7972 2.3397
v -1.0073 0.6092 2.3397
v -1.0073 0.6092 2.2313
v -1.0073 0.7972 2.2313
v -0.9144 0.7972 2.3397
v -0.9144 0.7972 2.2313
v -0.6932 0.7972 2.3397
v -0.6932 0.7972 2.2313
v -0.9144 0.6092 2.3397
v -0.6932 0.6092 2.3397
v 1.0562 0.6866 -1.6075
v 1.0562 0.5719 -2.0051
v 0.6699 0.5719 -2.0051
v 0.6699 0.6866 -1.6075
v 0.6775 0.6852 -1.6076
v 0.6775 0.6774 -1.9953
v 1.0486 0.6774 -1.9953
v 1.0486 0.6852 -1.6076
v 0.6775 0.5734 -1.9953
v 1.0486 0.5734 -1.9953
v 1.0332 0.6648 -2.0238
v 0.6929 0.6648 -2.0238
v 0.6929 0.5860 -2.0238
v 1.0332 0.5860 -2.0238
v 0.6929 0.6648 -1.9877
v 0.6929 0.5860 -1.9877
v 1.0332 0.6648 -1.9877
v 1.0332 0.5860 -1.9877
v 0.6836 0.8825 -0.8975
v 0.2972 0.8825 -0.8975
v 0.2972 0.8715 -0.9355
v 0.6836 0.8715 -0.9355
v -1.0563 0.6866 -1.6075
v -0.6700 0.6866 -1.6075
v -0.6700 0.5719 -2.0051
v -1.0563 0.5719 -2.0051
v -0.6777 0.6852 -1.6076
v -1.0487 0.6852 -1.6076
v -1.0487 0.6774 -1.9953
v -0.6777 0.6774 -1.9953
v -0.6777 0.5734 -1.9953
v -1.0487 0.5734 -1.9953
v -1.0333 0.6648 -2.0238
v -1.0333 0.5860 -2.0238
v -0.6931 0.5860 -2.0238
v -0.6931 0.6648 -2.0238
v -0.6931 0.5860 -1.9877
v -0.6931 0.6648 -1.9877
v -1.0333 0.6648 -1.9877
v -1.0333 0.5860 -1.9877
v -0.6838 0.8825 -0.8975
v -0.6838 0.8715 -0.9355
v -0.2973 0.8715 -0.9355
v -0.2973 0.8825 -0.8975
v 0.9029 1.1137 2.0676
v -0.9030 1.1137 2.0676
v -0.9030 1.1376 2.3070
v 0.9029 1.1376 2.3070
v 0.9090 1.1823 2.3026
v 0.9090 1.1584 2.0632
v 1.0572 1.1177 2.0690
v 1.0572 1.1416 2.3084
v -0.9091 1.1823 2.3026
v -1.0573 1.1416 2.3084
v -1.0573 1.1177 2.0690
v -0.9091 1.1584 2.0632
v 1.0452 1.0985 2.3127
v 1.0452 1.0746 2.0733
v -1.0454 1.0747 2.0733
v -1.0454 1.0985 2.3127
v 0.6614 1.1137 2.0829
v 0.6614 0.8381 1.9773
v 0.6614 0.7632 2.1738
v 0.6614 1.1376 2.2902
v 0.6183 1.1137 2.0829
v 0.6183 1.1376 2.2902
v 0.6183 0.7632 2.1738
v 0.6183 0.8381 1.9773
v -0.6616 1.1137 2.0829
v -0.6616 1.1376 2.2902
v -0.6616 0.7632 2.1738
v -0.6616 0.8381 1.9773
v -0.6185 1.1137 2.0829
v -0.6185 0.8381 1.9773
v -0.6185 0.7632 2.1738
v -0.6185 1.1376 2.2902
v 1.1927 0.8948 -0.5003
v 1.1927 0.9693 -0.5003
v 1.1927 0.8948 -0.6785
v 0.9625 0.8948 -0.4997
v 0.9625 0.9686 -0.4997
v 0.9625 0.8948 -0.6772
v -1.1927 0.8948 -0.5003
v -1.1927 0.8948 -0.6785
v -1.1927 0.9693 -0.5003
v -0.9626 0.9686 -0.4997
v -0.9626 0.8948 -0.4997
v -0.9626 0.8948 -0.6772
v 1.0324 0.7915 0.7888
v 1.0324 0.8197 0.7888
v 1.0997 0.8197 0.7888
v 1.0997 0.7915 0.7888
v 1.0993 0.7915 0.5937
v 1.0993 0.8194 0.5937
v 1.0322 0.7915 0.5937
v 1.0322 0.8194 0.5937
v -1.0325 0.7915 0.7888
v -1.0998 0.7915 0.7888
v -1.0998 0.8197 0.7888
v -1.0325 0.8197 0.7888
v -1.0993 0.7915 0.5937
v -1.0993 0.8194 0.5937
v -1.0323 0.7915 0.5937
v -1.0323 0.8194 0.5937
v -0.6602 0.2354 -2.2978
v -0.6602 0.3146 -2.2978
v -0.6602 0.2354 -2.2307
v -0.6602 0.3146 -2.2307
v 1.0234 0.4380 -2.2707
v 1.0234 0.2004 -2.2707
v 1.0234 0.4380 -2.2257
v 1.0234 0.2004 -2.2257
v 0.3163 0.5098 -2.3356
v 0.7905 0.8931 -0.8591
v -0.7906 0.8931 -0.8591
v -0.3165 0.5098 -2.3356
v 0.3163 0.1651 -2.2511
v -0.3165 0.1651 -2.2511
vn -0.3907 0.8915 -0.2293
vn -0.3907 0.8915 -0.2293
vn -0.7080 0.7062 0.0000
vn -0.7080 0.7062 0.0000
vn 0.2573 0.9179 -0.3021
vn 0.7080 0.7062 0.0000
vn 0.7080 0.7062 0.0000
vn 0.5147 0.8440 -0.1510
vn 0.4467 -0.7840 0.4311
vn 0.2792 -0.4890 0.8264
vn 0.9435 0.2339 0.2347
vn -0.2136 -0.7482 0.6282
vn -0.8156 0.4095 0.4088
vn 1.0000 -0.0002 -0.0001
vn 1.0000 0.0008 -0.0003
vn 0.5966 0.3830 -0.7052
vn 0.3162 0.0000 -0.9487
vn 1.0000 0.0003 0.0005
vn 0.9202 0.3898 -0.0358
vn 1.0000 0.0000 0.0003
vn -0.4473 -0.7830 0.4322
vn -0.3332 -0.2615 0.9059
vn -0.6665 -0.4225 0.6142
vn -0.7071 -0.6189 0.3420
vn 1.0000 0.0000 0.0000
vn 1.0000 -0.0041 0.0012
vn -0.7079 -0.6168 0.3442
vn -1.0000 -0.0002 -0.0001
vn -0.3162 0.0000 -0.9487
vn -0.6603 0.2121 -0.7204
vn -1.0000 0.0008 -0.0003
vn -1.0000 0.0003 0.0005
vn -0.8958 0.4370 -0.0813
vn -1.0000 0.0001 0.0000
vn -1.0000 0.0001 0.0005
vn -1.0000 0.0000 0.0000
vn -1.0000 0.0041 -0.0012
vn 0.3162 0.0000 -0.9487
vn 0.4851 0.4851 -0.7276
vn 0.5774 0.5774 -0.5774
vn 0.7071 0.0000 -0.7071
vn 0.4473 -0.7830 0.4322
vn 0.4364 -0.6585 0.6131
vn 0.4081 0.0369 0.9122
vn 0.7071 -0.6189 0.3420
vn 0.8243 0.3514 -0.4439
vn 0.9754 0.1368 -0.1728
vn 0.9717 0.0883 -0.2189
vn 1.0000 0.0000 0.0000
vn 0.9981 0.0620 0.0002
vn 1.0000 0.0000 0.0000
vn 1.0000 0.0000 0.0000
vn 0.8944 0.4472 0.0000
vn 0.4472 0.8944 0.0000
vn -1.0000 0.0000 0.0000
vn -0.7071 0.7071 0.0000
vn -0.7071 0.7071 0.0000
vn -1.0000 0.0000 0.0000
vn -1.0000 0.0000 0.0000
vn -0.7060 0.0000 -0.7082
vn -0.5744 0.5788 -0.5788
vn -0.7055 0.7087 0.0000
vn -0.7082 0.0000 -0.7060
vn 0.4449 0.0000 -0.8956
vn 0.6644 0.6685 -0.3342
vn -0.6687 0.3325 -0.6651
vn -1.0000 0.0000 0.0000
vn -0.4504 0.8928 0.0000
vn 0.7055 0.7087 0.0000
vn 1.0000 0.0000 0.0000
vn 1.0000 0.0000 0.0000
vn 0.7055 0.7087 0.0000
vn 0.6644 0.6685 -0.3342
vn 0.4449 0.0000 -0.8956
vn -0.7082 0.0000 -0.7060
vn -0.6687 0.3325 -0.6651
vn -1.0000 0.0000 0.0000
vn -0.4504 0.8928 0.0000
vn -1.0000 0.0000 0.0000
vn -0.4449 0.0000 -0.8956
vn -0.6644 0.6685 -0.3342
vn -0.7055 0.7087 0.0000
vn 0.8947 0.0000 -0.4466
vn 0.4119 0.4075 -0.8150
vn 1.0000 0.0000 0.0000
vn 0.7087 0.7055 0.0000
vn 1.0000 0.0000 0.0000
vn 0.7067 0.7009 -0.0965
vn 0.3889 0.3876 -0.8358
vn 0.8942 0.0000 -0.4476
vn -0.3217 0.0000 -0.9468
vn -0.4892 0.5668 -0.6629
vn -0.8527 0.0000 -0.5224
vn -0.5828 0.6766 -0.4501
vn -1.0000 0.0000 0.0000
vn -0.4455 0.0000 -0.8953
vn -0.7979 0.3962 -0.4543
vn -0.4462 0.8866 -0.1220
vn 0.6675 0.0000 -0.7446
vn 0.2524 0.5653 -0.7853
vn 0.8773 0.0000 -0.4800
vn 0.7649 0.4318 -0.4780
vn -0.7202 0.6904 0.0682
vn 0.7202 0.6904 -0.0683
vn 0.5689 0.7305 0.3778
vn -0.7200 0.5425 0.4327
vn 0.6706 0.2797 0.6870
vn -0.9323 0.0763 0.3536
vn 0.3133 0.8172 -0.4838
vn -0.4402 0.6831 0.5827
vn -0.7044 -0.0747 -0.7058
vn 0.7150 0.0338 -0.6983
vn 0.8404 0.2370 -0.4874
vn -0.6125 0.3421 -0.7126
vn 0.7200 0.5425 -0.4327
vn -0.5689 0.7305 -0.3778
vn -0.8789 -0.3685 -0.3029
vn -0.4866 -0.3929 -0.7803
vn 0.6906 -0.3066 -0.6551
vn 0.8344 -0.4016 -0.3775
vn -0.3328 0.0878 -0.9389
vn 0.1321 0.1382 -0.9816
vn -0.7300 -0.0606 0.6807
vn -0.8440 -0.2548 0.4719
vn 0.6106 -0.3658 0.7024
vn 0.7168 0.0605 0.6946
vn -0.8944 -0.2929 0.3380
vn 0.9487 -0.2071 0.2390
vn -1.0000 0.0000 0.0000
vn 1.0000 0.0000 0.0000
vn 0.0000 -0.1614 -0.9869
vn -0.7088 0.0185 -0.7051
vn -0.6915 -0.2485 -0.6783
vn 0.0000 -0.3440 -0.9390
vn -0.8392 0.2392 -0.4883
vn 0.0000 0.4492 -0.8934
vn 0.0000 0.8882 -0.4594
vn -0.5689 0.6429 -0.5129
vn -0.9487 -0.2071 -0.2390
vn -0.6086 -0.3804 -0.6963
vn 0.8386 -0.2553 -0.4813
vn 0.8944 -0.2929 -0.3380
vn -0.8400 -0.0133 -0.5424
vn 0.6123 -0.0073 -0.7906
vn -0.6311 0.0273 0.7752
vn -0.8436 -0.2615 0.4689
vn 0.6094 -0.3755 0.6983
vn 0.8443 0.0208 0.5354
vn -0.8944 -0.2929 0.3380
vn 0.9487 -0.2071 0.2390
vn -0.6162 0.7876 -0.0000
vn -0.7200 0.5425 0.4328
vn -1.0000 0.0000 0.0000
vn 0.5689 0.7305 0.3778
vn 0.8426 0.5385 -0.0000
vn 1.0000 0.0000 0.0000
vn -0.7154 0.2617 0.6478
vn 0.7159 0.3660 0.5945
vn -0.8376 -0.0158 0.5460
vn 0.6111 -0.0036 0.7916
vn 0.6114 0.3554 -0.7070
vn 0.7201 -0.1120 -0.6848
vn 0.7200 0.6164 -0.3188
vn 0.0000 1.0000 -0.0001
vn 0.0000 0.5243 0.8516
vn 0.0000 -0.0046 1.0000
vn 0.0000 -0.2413 0.9704
vn -0.7071 -0.1706 0.6862
vn -0.4472 0.2153 -0.8681
vn 0.7071 0.1702 -0.6863
vn 0.8944 -0.1079 0.4340
vn 0.8944 -0.1538 -0.4199
vn 0.4472 0.3071 0.8401
vn -0.7224 0.2374 0.6494
vn 0.0000 0.0342 -0.9994
vn 0.0000 -0.3440 -0.9390
vn -0.4539 0.2214 0.8631
vn -0.8803 -0.1179 -0.4596
vn 0.7071 0.1757 0.6849
vn 0.7071 -0.1757 -0.6849
vn -0.2311 0.2894 -0.9289
vn -0.7536 0.1459 -0.6409
vn 0.2010 0.2630 -0.9436
vn -0.3465 0.0805 -0.9346
vn 0.0000 0.8883 0.4593
vn 0.0000 -0.0046 1.0000
vn 0.0000 -0.2413 0.9704
vn 0.0000 0.3813 0.9245
vn 0.0000 0.7817 0.6236
vn 0.0000 0.7817 -0.6237
vn 0.0000 1.0000 -0.0001
vn 0.0000 0.4492 -0.8934
vn 0.0000 0.4154 -0.9097
vn 0.8328 0.2299 -0.5035
vn 0.6444 0.5857 -0.4917
vn 0.0000 0.8898 -0.4563
vn 0.0000 -0.1423 -0.9898
vn 0.5093 -0.1225 -0.8518
vn 0.0000 -0.6547 -0.7559
vn 0.8328 -0.3625 -0.4184
vn 0.0000 -0.9824 -0.1870
vn 0.6444 -0.7004 -0.3069
vn 0.0000 -0.9274 0.3740
vn 0.6444 -0.7551 0.1207
vn 0.0000 -0.6547 0.7559
vn 0.5093 -0.5634 0.6505
vn 0.0000 -0.2380 0.9713
vn 0.6444 -0.0120 0.7646
vn 0.0000 0.3248 0.9458
vn 0.6444 0.4033 0.6497
vn 0.0000 0.8412 0.5407
vn 0.8328 0.4657 0.2993
vn 0.0000 1.0000 -0.0001
vn 0.5094 0.8606 -0.0001
vn 1.0000 0.0000 0.0000
vn 1.0000 0.0000 0.0000
vn 1.0000 0.0000 0.0000
vn 1.0000 0.0000 0.0000
vn 1.0000 0.0000 0.0000
vn 1.0000 0.0000 0.0000
vn 0.5902 0.5972 0.5432
vn 0.7386 0.6657 -0.1069
vn 0.3432 0.4619 -0.8178
vn 0.5899 -0.3021 -0.7488
vn 0.8253 -0.5412 -0.1614
vn 0.3431 -0.7709 0.5366
vn 0.5897 -0.0535 0.8058
vn 0.0000 0.4156 -0.9096
vn 0.8141 0.2413 -0.5282
vn 0.6329 0.5962 -0.4939
vn 0.0000 0.8899 -0.4562
vn 0.0000 -0.1420 -0.9899
vn 0.5037 -0.1227 -0.8551
vn 0.0000 -0.5782 -0.8159
vn 0.6329 -0.5738 -0.5198
vn -0.0002 -0.9595 -0.2818
vn 0.8140 -0.5573 -0.1636
vn 0.0000 -0.9595 0.2816
vn 0.5036 -0.8289 0.2434
vn 0.0000 -0.7252 0.6885
vn 0.6329 -0.4329 0.6419
vn 0.0000 -0.1423 0.9898
vn 0.8141 -0.0826 0.5748
vn 0.0000 0.4153 0.9097
vn 0.5036 0.3588 0.7859
vn 0.0000 0.7845 0.6201
vn 0.6329 0.6969 0.3373
vn 0.0000 0.9952 0.0974
vn 0.6329 0.7686 -0.0931
vn 1.0000 -0.0000 -0.0000
vn 1.0000 0.0000 0.0000
vn 1.0000 0.0000 0.0000
vn 1.0000 0.0000 0.0000
vn 1.0000 0.0000 0.0000
vn 1.0000 0.0000 0.0000
vn 0.5899 0.3970 0.7031
vn 0.7387 0.6655 0.1067
vn 0.3431 0.6945 -0.6324
vn 0.5899 -0.0526 -0.8058
vn 0.8253 -0.4635 -0.3227
vn 0.3431 -0.9001 0.2684
vn 0.5899 -0.3020 0.7489
vn -0.5900 -0.7738 -0.2307
vn -0.8252 -0.2112 -0.5238
vn -0.3431 -0.7708 0.5367
vn -0.7387 -0.0439 0.6727
vn -0.5899 0.5972 0.5435
vn -0.3431 0.4617 -0.8180
vn -0.5899 0.7972 -0.1282
vn -0.8253 -0.0369 -0.5635
vn -0.3432 0.6949 -0.6320
vn -0.5899 -0.6627 -0.4613
vn -0.3431 -0.9002 0.2681
vn -0.7386 -0.2526 0.6251
vn -0.5902 0.3963 0.7033
vn -0.5898 0.7975 0.1274
vn 0.0000 0.5020 -0.8649
vn 0.0000 0.8898 -0.4563
vn -0.6444 0.5856 -0.4917
vn -0.6444 0.2268 -0.7302
vn 0.0000 -0.0453 -0.9990
vn -0.6444 -0.2039 -0.7370
vn 0.0000 -0.5780 -0.8160
vn -0.6444 -0.5699 -0.5098
vn 0.0000 -0.9595 -0.2819
vn -0.8329 -0.5310 -0.1560
vn 0.0000 -0.9595 0.2819
vn -0.5094 -0.8257 0.2426
vn 0.0000 -0.7252 0.6885
vn -0.6444 -0.4234 0.6368
vn 0.0000 -0.2380 0.9713
vn -0.6444 -0.0120 0.7646
vn 0.0000 0.3248 0.9458
vn -0.6444 0.4033 0.6497
vn 0.0000 0.7846 0.6200
vn -0.6444 0.6905 0.3286
vn 0.0000 0.9952 0.0974
vn -0.6444 0.7585 -0.0971
vn -1.0000 0.0000 0.0000
vn -1.0000 0.0000 0.0000
vn -1.0000 0.0000 0.0000
vn -1.0000 0.0000 0.0000
vn -1.0000 0.0000 0.0000
vn -1.0000 0.0000 0.0000
vn 0.0000 0.5021 -0.8648
vn 0.0000 0.8899 -0.4562
vn -0.6329 0.5962 -0.4939
vn -0.6329 0.2348 -0.7378
vn 0.0000 -0.0448 -0.9990
vn -0.6330 -0.2014 -0.7475
vn 0.0000 -0.5782 -0.8159
vn -0.6330 -0.5738 -0.5197
vn 0.0000 -0.9276 -0.3736
vn -0.6329 -0.7637 -0.1271
vn 0.0000 -0.9824 0.1869
vn -0.6329 -0.7112 0.3058
vn 0.0000 -0.7254 0.6883
vn -0.6330 -0.4329 0.6418
vn 0.0000 -0.1423 0.9898
vn -0.8141 -0.0826 0.5748
vn 0.0000 0.4153 0.9097
vn -0.5036 0.3588 0.7859
vn 0.0000 0.7845 0.6201
vn -0.6329 0.6969 0.3373
vn 0.0000 0.9952 0.0974
vn -0.6329 0.7686 -0.0931
vn -1.0000 0.0000 -0.0000
vn -1.0000 0.0000 0.0000
vn -1.0000 0.0000 0.0000
vn -1.0000 0.0000 0.0000
vn -1.0000 0.0000 0.0000
vn -1.0000 0.0000 0.0000
vn 0.5165 0.8563 0.0031
vn -0.5187 0.8548 -0.0154
vn -0.2703 0.9407 -0.2049
vn 0.3897 0.9071 -0.1590
vn -0.6470 0.6218 -0.4413
vn -0.8566 0.4916 0.1567
vn -0.7206 0.6932 0.0117
vn -0.4733 0.8586 -0.1971
vn -0.4566 0.8663 -0.2026
vn -0.8203 0.3474 0.4544
vn 0.0041 0.9060 -0.4232
vn -0.0025 0.9063 -0.4226
vn 0.0035 0.9080 -0.4189
vn 0.4006 0.8840 -0.2410
vn -0.0007 0.9088 -0.4173
vn 0.7314 0.6810 0.0344
vn 0.6357 0.6155 -0.4659
vn 0.5697 0.7252 -0.3866
vn 0.9283 0.0899 0.3609
vn 0.5580 0.8234 0.1032
vn 0.2360 0.9661 0.1045
vn -0.2363 0.9588 0.1578
vn -0.1620 0.6661 -0.7281
vn 0.1511 0.3952 -0.9061
vn 0.5970 0.6663 -0.4469
vn 0.2059 0.9549 0.2140
vn -0.3574 0.5779 0.7337
vn -0.2510 0.9657 0.0659
vn -0.7377 0.5650 -0.3694
vn -0.3769 0.5746 0.7265
vn -0.5971 0.6662 -0.4469
vn -0.1637 0.9588 0.2320
vn -0.4706 -0.5277 -0.7071
vn -0.2977 -0.3338 -0.8944
vn -0.4706 -0.5277 -0.7071
vn -0.4706 -0.5277 -0.7071
vn 0.3692 -0.4140 -0.8321
vn 0.2977 -0.3338 -0.8944
vn 0.4706 -0.5277 -0.7071
vn 0.4706 -0.5277 -0.7071
vn 0.5737 0.7869 -0.2272
vn 0.2525 0.7315 0.6334
vn 0.5586 -0.0067 0.8294
vn 0.3982 0.9170 -0.0230
vn 0.0000 0.9940 0.1090
vn 0.0000 0.9940 0.1090
vn 0.0000 0.9940 0.1090
vn 0.0000 0.9940 0.1090
vn 0.0000 0.9940 0.1091
vn 0.0000 0.9940 0.1091
vn 0.0000 0.9940 0.1091
vn 0.0000 0.9940 0.1091
vn 0.0000 0.9940 0.1090
vn 0.0000 0.9940 0.1090
vn 0.0000 0.9940 0.1090
vn 0.0000 0.9940 0.1090
vn 0.0000 0.9940 0.1090
vn 0.0000 0.9940 0.1090
vn 0.0000 0.9940 0.1090
vn 0.0000 0.9940 0.1090
vn 0.0000 0.9940 0.1090
vn 0.0000 0.9940 0.1090
vn 0.0000 0.9940 0.1090
vn 0.0000 0.9940 0.1090
vn 0.0000 0.9940 0.1090
vn 0.0000 0.9940 0.1090
vn 0.0000 0.9940 0.1090
vn 0.0000 0.9940 0.1090
vn 0.8944 -0.3915 0.2162
vn 0.4472 -0.7829 0.4325
vn 1.0000 0.0000 0.0000
vn 1.0000 0.0000 0.0000
vn -0.7071 -0.6189 0.3419
vn -1.0000 0.0000 0.0000
vn -1.0000 0.0000 0.0000
vn -0.7071 -0.6189 0.3419
vn 0.4082 0.4082 0.8165
vn 0.7071 0.7071 0.0000
vn 1.0000 0.0000 0.0000
vn 0.8944 0.0000 0.4472
vn 0.0000 0.8944 0.4472
vn 0.0000 1.0000 0.0000
vn 0.0000 0.7071 0.7071
vn 0.0000 1.0000 0.0000
vn 0.0000 0.0000 1.0000
vn 0.0000 0.4472 0.8944
vn 0.0000 1.0000 0.0000
vn 0.0000 0.0000 1.0000
vn 0.0000 0.0000 1.0000
vn -0.4082 0.4082 0.8165
vn -0.8944 0.0000 0.4472
vn -1.0000 0.0000 0.0000
vn -0.7071 0.7071 0.0000
vn 0.0000 0.8944 0.4472
vn 0.0000 1.0000 0.0000
vn 0.0000 0.7071 0.7071
vn 0.0000 1.0000 0.0000
vn 0.0000 0.0000 1.0000
vn 0.0000 0.0000 1.0000
vn 0.0000 -0.9608 0.2772
vn 0.0000 -0.9608 0.2772
vn 0.0000 -0.9608 0.2772
vn 0.0000 -0.9608 0.2772
vn -0.4472 0.8942 -0.0180
vn -0.5735 0.5734 -0.5851
vn 0.3304 0.6607 -0.6741
vn 0.7071 0.7070 -0.0142
vn -0.4472 0.0000 -0.8944
vn 0.7071 0.0000 -0.7071
vn 0.3333 0.6667 -0.6667
vn -0.8165 0.4082 -0.4082
vn -0.4472 0.0000 -0.8944
vn 0.8944 0.0000 -0.4472
vn -0.4472 0.8944 0.0000
vn -1.0000 0.0000 0.0000
vn 0.8944 0.4472 0.0000
vn 1.0000 0.0000 0.0000
vn 0.0000 0.9606 -0.2781
vn 0.0000 0.9606 -0.2781
vn 0.0000 0.9606 -0.2781
vn 0.0000 0.9606 -0.2781
vn 0.0000 -0.9608 0.2772
vn 0.0000 -0.9608 0.2772
vn 0.0000 -0.9608 0.2772
vn 0.0000 -0.9608 0.2772
vn 0.4472 0.8942 -0.0180
vn -0.7071 0.7070 -0.0142
vn -0.3304 0.6607 -0.6741
vn 0.5735 0.5734 -0.5851
vn 0.4472 0.0000 -0.8944
vn -0.7071 0.0000 -0.7071
vn -0.3333 0.6667 -0.6667
vn -0.8944 0.0000 -0.4472
vn 0.4472 0.0000 -0.8944
vn 0.8165 0.4082 -0.4082
vn 1.0000 0.0000 0.0000
vn 0.4472 0.8944 0.0000
vn -0.8944 0.4472 0.0000
vn -1.0000 0.0000 0.0000
vn 0.0000 0.9606 -0.2781
vn 0.0000 0.9606 -0.2781
vn 0.0000 0.9606 -0.2781
vn 0.0000 0.9606 -0.2781
vn -0.0679 -0.6270 -0.7761
vn 0.0488 -0.6715 -0.7394
vn 0.1318 -0.6182 0.7749
vn -0.0990 -0.6231 0.7758
vn 0.1459 0.8682 0.4743
vn 0.0659 0.6276 -0.7757
vn 0.7142 0.3404 -0.6116
vn 0.4951 0.3671 0.7875
vn -0.1052 0.8462 0.5224
vn -0.7278 0.2121 0.6522
vn -0.5054 0.4821 -0.7157
vn -0.0989 0.6234 -0.7756
vn 0.6758 -0.5689 0.4687
vn 0.1796 -0.9314 -0.3165
vn -0.4679 -0.8478 -0.2498
vn -0.3977 -0.6499 0.6476
vn 0.7071 0.2530 -0.6603
vn 0.7071 0.2530 -0.6603
vn 0.8944 -0.1328 0.4271
vn 0.4472 -0.2655 0.8541
vn -0.8944 0.1600 -0.4176
vn -0.7071 -0.2099 0.6752
vn -0.7071 -0.2099 0.6752
vn -0.4472 0.3200 -0.8352
vn -0.7071 0.2530 -0.6603
vn -0.4472 -0.2655 0.8541
vn -0.8944 -0.1328 0.4271
vn -0.7071 0.2530 -0.6603
vn 0.8944 0.1600 -0.4176
vn 0.4472 0.3200 -0.8352
vn 0.7071 -0.2099 0.6752
vn 0.7071 -0.2099 0.6752
vn 0.7080 0.0000 0.7062
vn 0.4107 0.7587 0.5057
vn 0.7063 0.6531 -0.2730
vn -0.4453 0.0000 0.8954
vn -0.6698 0.6177 0.4121
vn -0.4494 0.8246 -0.3438
vn -0.7080 0.0000 0.7062
vn -0.7063 0.6531 -0.2730
vn -0.4107 0.7587 0.5057
vn 0.6698 0.6177 0.4121
vn 0.4453 0.0000 0.8954
vn 0.4494 0.8246 -0.3438
vn 0.0000 0.0000 1.0000
vn 0.0000 0.7077 0.7066
vn 0.5780 0.5780 0.5760
vn 0.7078 0.0000 0.7064
vn 0.4468 0.0000 -0.8946
vn 0.6661 0.6661 -0.3355
vn 0.0000 0.0000 -1.0000
vn 0.0000 0.4469 -0.8946
vn 0.0000 0.0000 1.0000
vn -0.7080 0.0000 0.7062
vn -0.5781 0.5781 0.5758
vn 0.0000 0.7077 0.7066
vn -0.4468 0.0000 -0.8947
vn -0.6661 0.6661 -0.3358
vn 0.0000 0.0000 -1.0000
vn 0.0000 0.4469 -0.8946
vn 0.7082 0.0000 -0.7060
vn 0.5803 0.5759 -0.5759
vn 1.0000 0.0000 0.0000
vn 0.7087 0.7055 0.0000
vn -0.5547 0.0000 -0.8321
vn -0.3015 0.3015 -0.9045
vn -0.7071 0.0000 -0.7071
vn -0.5774 0.5774 -0.5774
vn 0.5013 0.3460 -0.7931
vn 0.4264 0.8328 -0.3531
vn -0.6739 0.6332 -0.3808
vn -0.2974 0.4325 -0.8512
vn 0.3839 -0.2198 -0.8968
vn -0.5930 -0.1917 -0.7821
vt 0.0000 0.0000

usemtl mat_3E49AB
f 4/1/4 3/1/3 2/1/2
f 4/1/4 2/1/2 1/1/1
f 8/1/8 7/1/7 6/1/6
f 8/1/8 6/1/6 5/1/5
f 5/1/5 1/1/1 2/1/2
f 5/1/5 2/1/2 8/1/8
f 509/1/509 512/1/512 511/1/511
f 508/1/508 509/1/509 511/1/511
f 518/1/518 517/1/517 516/1/516
f 514/1/514 518/1/518 516/1/516

usemtl mat_484848
f 9/1/9 11/1/11 10/1/10
f 10/1/10 11/1/11 13/1/13
f 12/1/12 10/1/10 13/1/13
f 16/1/16 15/1/15 14/1/14
f 14/1/14 17/1/17 16/1/16
f 19/1/19 18/1/18 15/1/15
f 19/1/19 15/1/15 16/1/16
f 19/1/19 20/1/20 18/1/18
f 21/1/21 24/1/24 23/1/23
f 22/1/22 21/1/21 23/1/23
f 11/1/11 25/1/25 19/1/19
f 26/1/26 11/1/11 9/1/9
f 11/1/11 26/1/26 25/1/25
f 27/1/27 12/1/12 13/1/13
f 28/1/28 31/1/31 30/1/30
f 28/1/28 30/1/30 29/1/29
f 31/1/31 32/1/32 33/1/33
f 31/1/31 33/1/33 30/1/30
f 33/1/33 35/1/35 34/1/34
f 33/1/33 32/1/32 35/1/35
f 33/1/33 34/1/34 36/1/36
f 36/1/36 13/1/13 33/1/33
f 27/1/27 13/1/13 37/1/37
f 36/1/36 37/1/37 13/1/13
f 16/1/16 30/1/30 33/1/33
f 19/1/19 16/1/16 33/1/33
f 41/1/41 40/1/40 39/1/39
f 38/1/38 41/1/41 39/1/39
f 19/1/19 33/1/33 13/1/13
f 11/1/11 19/1/19 13/1/13
f 12/1/12 27/1/27 43/1/43
f 43/1/43 42/1/42 12/1/12
f 21/1/21 10/1/10 12/1/12
f 42/1/42 21/1/21 12/1/12
f 9/1/9 10/1/10 21/1/21
f 21/1/21 22/1/22 9/1/9
f 43/1/43 27/1/27 9/1/9
f 22/1/22 43/1/43 9/1/9
f 23/1/23 24/1/24 45/1/45
f 44/1/44 23/1/23 45/1/45
f 43/1/43 44/1/44 45/1/45
f 42/1/42 43/1/43 45/1/45
f 22/1/22 23/1/23 44/1/44
f 43/1/43 22/1/22 44/1/44
f 48/1/48 47/1/47 46/1/46
f 25/1/25 49/1/49 47/1/47
f 25/1/25 47/1/47 48/1/48
f 49/1/49 20/1/20 50/1/50
f 49/1/49 50/1/50 47/1/47
f 19/1/19 50/1/50 20/1/20
f 19/1/19 48/1/48 50/1/50
f 47/1/47 50/1/50 46/1/46
f 25/1/25 48/1/48 19/1/19
f 51/1/51 54/1/54 53/1/53
f 52/1/52 51/1/51 53/1/53
f 55/1/55 58/1/58 57/1/57
f 56/1/56 55/1/55 57/1/57
f 57/1/57 53/1/53 54/1/54
f 56/1/56 57/1/57 54/1/54
f 88/1/88 87/1/87 90/1/90
f 90/1/90 89/1/89 88/1/88
f 91/1/91 92/1/92 89/1/89
f 90/1/90 91/1/91 89/1/89
f 93/1/93 94/1/94 92/1/92
f 92/1/92 91/1/91 93/1/93
f 92/1/92 94/1/94 88/1/88
f 92/1/92 88/1/88 89/1/89
f 95/1/95 98/1/98 97/1/97
f 97/1/97 96/1/96 95/1/95
f 96/1/96 97/1/97 100/1/100
f 99/1/99 96/1/96 100/1/100
f 102/1/102 101/1/101 99/1/99
f 99/1/99 100/1/100 102/1/102
f 98/1/98 102/1/102 100/1/100
f 100/1/100 97/1/97 98/1/98
f 105/1/105 104/1/104 103/1/103
f 106/1/106 105/1/105 103/1/103
f 107/1/107 105/1/105 106/1/106
f 108/1/108 107/1/107 106/1/106
f 110/1/110 109/1/109 107/1/107
f 108/1/108 110/1/110 107/1/107
f 114/1/114 113/1/113 112/1/112
f 111/1/111 114/1/114 112/1/112
f 115/1/115 113/1/113 114/1/114
f 116/1/116 115/1/115 114/1/114
f 104/1/104 115/1/115 116/1/116
f 103/1/103 104/1/104 116/1/116
f 120/1/120 119/1/119 118/1/118
f 117/1/117 120/1/120 118/1/118
f 118/1/118 119/1/119 122/1/122
f 121/1/121 118/1/118 122/1/122
f 123/1/123 126/1/126 125/1/125
f 124/1/124 123/1/123 125/1/125
f 125/1/125 128/1/128 127/1/127
f 124/1/124 125/1/125 127/1/127
f 106/1/106 103/1/103 129/1/129
f 117/1/117 106/1/106 129/1/129
f 104/1/104 105/1/105 120/1/120
f 120/1/120 130/1/130 104/1/104
f 108/1/108 106/1/106 117/1/117
f 118/1/118 108/1/108 117/1/117
f 120/1/120 105/1/105 107/1/107
f 107/1/107 119/1/119 120/1/120
f 110/1/110 108/1/108 118/1/118
f 118/1/118 121/1/121 110/1/110
f 119/1/119 107/1/107 109/1/109
f 119/1/119 109/1/109 122/1/122
f 124/1/124 114/1/114 111/1/111
f 123/1/123 124/1/124 111/1/111
f 112/1/112 113/1/113 125/1/125
f 125/1/125 126/1/126 112/1/112
f 127/1/127 116/1/116 114/1/114
f 127/1/127 114/1/114 124/1/124
f 113/1/113 115/1/115 128/1/128
f 128/1/128 125/1/125 113/1/113
f 103/1/103 116/1/116 127/1/127
f 129/1/129 103/1/103 127/1/127
f 115/1/115 104/1/104 130/1/130
f 128/1/128 115/1/115 130/1/130
f 133/1/133 132/1/132 131/1/131
f 134/1/134 133/1/133 131/1/131
f 138/1/138 137/1/137 136/1/136
f 135/1/135 138/1/138 136/1/136
f 136/1/136 131/1/131 132/1/132
f 135/1/135 136/1/136 132/1/132
f 142/1/142 141/1/141 140/1/140
f 139/1/139 142/1/142 140/1/140
f 140/1/140 141/1/141 144/1/144
f 143/1/143 140/1/140 144/1/144
f 145/1/145 148/1/148 147/1/147
f 146/1/146 145/1/145 147/1/147
f 147/1/147 150/1/150 149/1/149
f 146/1/146 147/1/147 149/1/149
f 152/1/152 151/1/151 153/1/153
f 139/1/139 152/1/152 153/1/153
f 155/1/155 154/1/154 142/1/142
f 142/1/142 156/1/156 155/1/155
f 157/1/157 152/1/152 139/1/139
f 140/1/140 157/1/157 139/1/139
f 142/1/142 154/1/154 158/1/158
f 158/1/158 141/1/141 142/1/142
f 159/1/159 157/1/157 140/1/140
f 140/1/140 143/1/143 159/1/159
f 141/1/141 158/1/158 160/1/160
f 141/1/141 160/1/160 144/1/144
f 146/1/146 135/1/135 132/1/132
f 146/1/146 132/1/132 145/1/145
f 162/1/162 161/1/161 147/1/147
f 148/1/148 162/1/162 147/1/147
f 149/1/149 138/1/138 135/1/135
f 149/1/149 135/1/135 146/1/146
f 161/1/161 163/1/163 150/1/150
f 150/1/150 147/1/147 161/1/161
f 151/1/151 138/1/138 149/1/149
f 153/1/153 151/1/151 149/1/149
f 163/1/163 155/1/155 156/1/156
f 150/1/150 163/1/163 156/1/156
f 151/1/151 164/1/164 137/1/137
f 138/1/138 151/1/151 137/1/137
f 166/1/166 165/1/165 157/1/157
f 159/1/159 166/1/166 157/1/157
f 166/1/166 159/1/159 168/1/168
f 168/1/168 167/1/167 166/1/166
f 143/1/143 169/1/169 168/1/168
f 159/1/159 143/1/143 168/1/168
f 144/1/144 170/1/170 169/1/169
f 143/1/143 144/1/144 169/1/169
f 144/1/144 160/1/160 171/1/171
f 171/1/171 170/1/170 144/1/144
f 172/1/172 162/1/162 148/1/148
f 173/1/173 172/1/172 148/1/148
f 145/1/145 132/1/132 133/1/133
f 133/1/133 174/1/174 145/1/145
f 145/1/145 174/1/174 173/1/173
f 148/1/148 145/1/145 173/1/173
f 176/1/176 175/1/175 162/1/162
f 172/1/172 176/1/176 162/1/162
f 178/1/178 177/1/177 123/1/123
f 111/1/111 178/1/178 123/1/123
f 177/1/177 179/1/179 126/1/126
f 123/1/123 177/1/177 126/1/126
f 180/1/180 112/1/112 126/1/126
f 179/1/179 180/1/180 126/1/126
f 180/1/180 178/1/178 111/1/111
f 112/1/112 180/1/180 111/1/111
f 181/1/181 110/1/110 121/1/121
f 182/1/182 181/1/181 121/1/121
f 122/1/122 109/1/109 184/1/184
f 184/1/184 183/1/183 122/1/122
f 183/1/183 182/1/182 121/1/121
f 122/1/122 183/1/183 121/1/121
f 181/1/181 184/1/184 109/1/109
f 110/1/110 181/1/181 109/1/109
f 165/1/165 185/1/185 152/1/152
f 157/1/157 165/1/165 152/1/152
f 160/1/160 186/1/186 187/1/187
f 187/1/187 171/1/171 160/1/160
f 160/1/160 158/1/158 188/1/188
f 186/1/186 160/1/160 188/1/188
f 158/1/158 154/1/154 189/1/189
f 188/1/188 158/1/158 189/1/189
f 191/1/191 155/1/155 163/1/163
f 190/1/190 191/1/191 163/1/163
f 185/1/185 164/1/164 151/1/151
f 152/1/152 185/1/185 151/1/151
f 161/1/161 162/1/162 175/1/175
f 192/1/192 161/1/161 175/1/175
f 190/1/190 163/1/163 161/1/161
f 192/1/192 190/1/190 161/1/161
f 154/1/154 155/1/155 191/1/191
f 189/1/189 154/1/154 191/1/191
f 195/1/195 194/1/194 193/1/193
f 196/1/196 195/1/195 193/1/193
f 193/1/193 194/1/194 198/1/198
f 197/1/197 193/1/193 198/1/198
f 198/1/198 200/1/200 199/1/199
f 197/1/197 198/1/198 199/1/199
f 199/1/199 200/1/200 202/1/202
f 201/1/201 199/1/199 202/1/202
f 201/1/201 202/1/202 204/1/204
f 203/1/203 201/1/201 204/1/204
f 203/1/203 204/1/204 206/1/206
f 205/1/205 203/1/203 206/1/206
f 206/1/206 208/1/208 207/1/207
f 205/1/205 206/1/206 207/1/207
f 208/1/208 210/1/210 209/1/209
f 207/1/207 208/1/208 209/1/209
f 210/1/210 212/1/212 211/1/211
f 209/1/209 210/1/210 211/1/211
f 211/1/211 212/1/212 214/1/214
f 213/1/213 211/1/211 214/1/214
f 214/1/214 195/1/195 196/1/196
f 196/1/196 213/1/213 214/1/214
f 200/1/200 198/1/198 215/1/215
f 215/1/215 195/1/195 214/1/214
f 215/1/215 208/1/208 206/1/206
f 202/1/202 200/1/200 215/1/215
f 194/1/194 195/1/195 215/1/215
f 210/1/210 208/1/208 215/1/215
f 204/1/204 202/1/202 215/1/215
f 198/1/198 194/1/194 215/1/215
f 212/1/212 210/1/210 215/1/215
f 206/1/206 204/1/204 215/1/215
f 214/1/214 212/1/212 215/1/215
f 230/1/230 229/1/229 228/1/228
f 231/1/231 230/1/230 228/1/228
f 228/1/228 229/1/229 233/1/233
f 232/1/232 228/1/228 233/1/233
f 233/1/233 235/1/235 234/1/234
f 232/1/232 233/1/233 234/1/234
f 235/1/235 237/1/237 236/1/236
f 234/1/234 235/1/235 236/1/236
f 236/1/236 237/1/237 239/1/239
f 238/1/238 236/1/236 239/1/239
f 239/1/239 241/1/241 240/1/240
f 238/1/238 239/1/239 240/1/240
f 241/1/241 243/1/243 242/1/242
f 240/1/240 241/1/241 242/1/242
f 242/1/242 243/1/243 245/1/245
f 244/1/244 242/1/242 245/1/245
f 245/1/245 247/1/247 246/1/246
f 244/1/244 245/1/245 246/1/246
f 247/1/247 249/1/249 248/1/248
f 246/1/246 247/1/247 248/1/248
f 249/1/249 230/1/230 231/1/231
f 248/1/248 249/1/249 231/1/231
f 235/1/235 233/1/233 250/1/250
f 250/1/250 230/1/230 249/1/249
f 250/1/250 243/1/243 241/1/241
f 237/1/237 235/1/235 250/1/250
f 229/1/229 230/1/230 250/1/250
f 245/1/245 243/1/243 250/1/250
f 239/1/239 237/1/237 250/1/250
f 233/1/233 229/1/229 250/1/250
f 247/1/247 245/1/245 250/1/250
f 241/1/241 239/1/239 250/1/250
f 249/1/249 247/1/247 250/1/250
f 279/1/279 278/1/278 277/1/277
f 280/1/280 279/1/279 277/1/277
f 280/1/280 277/1/277 281/1/281
f 282/1/282 280/1/280 281/1/281
f 282/1/282 281/1/281 283/1/283
f 284/1/284 282/1/282 283/1/283
f 284/1/284 283/1/283 285/1/285
f 286/1/286 284/1/284 285/1/285
f 288/1/288 286/1/286 285/1/285
f 287/1/287 288/1/288 285/1/285
f 288/1/288 287/1/287 289/1/289
f 290/1/290 288/1/288 289/1/289
f 290/1/290 289/1/289 291/1/291
f 292/1/292 290/1/290 291/1/291
f 292/1/292 291/1/291 293/1/293
f 294/1/294 292/1/292 293/1/293
f 294/1/294 293/1/293 295/1/295
f 296/1/296 294/1/294 295/1/295
f 296/1/296 295/1/295 297/1/297
f 298/1/298 296/1/296 297/1/297
f 298/1/298 297/1/297 278/1/278
f 279/1/279 298/1/298 278/1/278
f 299/1/299 282/1/282 284/1/284
f 298/1/298 279/1/279 299/1/299
f 290/1/290 292/1/292 299/1/299
f 299/1/299 284/1/284 286/1/286
f 299/1/299 279/1/279 280/1/280
f 299/1/299 292/1/292 294/1/294
f 299/1/299 286/1/286 288/1/288
f 299/1/299 280/1/280 282/1/282
f 299/1/299 294/1/294 296/1/296
f 299/1/299 288/1/288 290/1/290
f 299/1/299 296/1/296 298/1/298
f 307/1/307 306/1/306 305/1/305
f 308/1/308 307/1/307 305/1/305
f 308/1/308 305/1/305 309/1/309
f 310/1/310 308/1/308 309/1/309
f 310/1/310 309/1/309 311/1/311
f 312/1/312 310/1/310 311/1/311
f 312/1/312 311/1/311 313/1/313
f 314/1/314 312/1/312 313/1/313
f 314/1/314 313/1/313 315/1/315
f 316/1/316 314/1/314 315/1/315
f 316/1/316 315/1/315 317/1/317
f 318/1/318 316/1/316 317/1/317
f 318/1/318 317/1/317 319/1/319
f 320/1/320 318/1/318 319/1/319
f 322/1/322 320/1/320 319/1/319
f 321/1/321 322/1/322 319/1/319
f 322/1/322 321/1/321 323/1/323
f 324/1/324 322/1/322 323/1/323
f 324/1/324 323/1/323 325/1/325
f 326/1/326 324/1/324 325/1/325
f 326/1/326 325/1/325 306/1/306
f 307/1/307 326/1/326 306/1/306
f 327/1/327 310/1/310 312/1/312
f 326/1/326 307/1/307 327/1/327
f 318/1/318 320/1/320 327/1/327
f 327/1/327 312/1/312 314/1/314
f 327/1/327 307/1/307 308/1/308
f 327/1/327 320/1/320 322/1/322
f 327/1/327 314/1/314 316/1/316
f 327/1/327 308/1/308 310/1/310
f 327/1/327 322/1/322 324/1/324
f 327/1/327 316/1/316 318/1/318
f 327/1/327 324/1/324 326/1/326
f 335/1/335 334/1/334 333/1/333
f 336/1/336 335/1/335 333/1/333
f 335/1/335 338/1/338 337/1/337
f 335/1/335 337/1/337 334/1/334
f 339/1/339 334/1/334 337/1/337
f 337/1/337 340/1/340 339/1/339
f 341/1/341 339/1/339 340/1/340
f 340/1/340 342/1/342 341/1/341
f 338/1/338 335/1/335 341/1/341
f 342/1/342 338/1/338 341/1/341
f 335/1/335 336/1/336 344/1/344
f 335/1/335 344/1/344 343/1/343
f 335/1/335 343/1/343 345/1/345
f 345/1/345 341/1/341 335/1/335
f 347/1/347 346/1/346 341/1/341
f 341/1/341 345/1/345 347/1/347
f 344/1/344 336/1/336 346/1/346
f 346/1/346 347/1/347 344/1/344
f 333/1/333 348/1/348 350/1/350
f 349/1/349 333/1/333 350/1/350
f 351/1/351 336/1/336 333/1/333
f 349/1/349 351/1/351 333/1/333
f 336/1/336 351/1/351 352/1/352
f 336/1/336 352/1/352 346/1/346
f 350/1/350 348/1/348 346/1/346
f 350/1/350 346/1/346 352/1/352
f 352/1/352 342/1/342 340/1/340
f 350/1/350 352/1/352 340/1/340
f 350/1/350 340/1/340 337/1/337
f 337/1/337 349/1/349 350/1/350
f 342/1/342 352/1/352 351/1/351
f 351/1/351 338/1/338 342/1/342
f 355/1/355 354/1/354 353/1/353
f 356/1/356 355/1/355 353/1/353
f 353/1/353 358/1/358 357/1/357
f 357/1/357 356/1/356 353/1/353
f 359/1/359 362/1/362 361/1/361
f 360/1/360 359/1/359 361/1/361
f 363/1/363 364/1/364 354/1/354
f 354/1/354 355/1/355 363/1/363
f 365/1/365 368/1/368 367/1/367
f 366/1/366 365/1/365 367/1/367
f 356/1/356 366/1/366 369/1/369
f 355/1/355 356/1/356 369/1/369
f 365/1/365 366/1/366 356/1/356
f 357/1/357 365/1/365 356/1/356
f 355/1/355 369/1/369 370/1/370
f 370/1/370 363/1/363 355/1/355
f 369/1/369 371/1/371 372/1/372
f 370/1/370 369/1/369 372/1/372
f 364/1/364 358/1/358 360/1/360
f 364/1/364 360/1/360 373/1/373
f 359/1/359 353/1/353 354/1/354
f 374/1/374 359/1/359 354/1/354
f 358/1/358 353/1/353 359/1/359
f 358/1/358 359/1/359 360/1/360
f 374/1/374 354/1/354 364/1/364
f 364/1/364 373/1/373 374/1/374
f 376/1/376 361/1/361 362/1/362
f 362/1/362 375/1/375 376/1/376
f 373/1/373 360/1/360 361/1/361
f 361/1/361 376/1/376 373/1/373
f 373/1/373 376/1/376 375/1/375
f 374/1/374 373/1/373 375/1/375
f 359/1/359 374/1/374 375/1/375
f 375/1/375 362/1/362 359/1/359
f 380/1/380 379/1/379 378/1/378
f 377/1/377 380/1/380 378/1/378
f 383/1/383 382/1/382 381/1/381
f 384/1/384 383/1/383 381/1/381
f 388/1/388 387/1/387 386/1/386
f 385/1/385 388/1/388 386/1/386
f 392/1/392 391/1/391 390/1/390
f 389/1/389 392/1/392 390/1/390
f 395/1/395 394/1/394 393/1/393
f 396/1/396 395/1/395 393/1/393
f 399/1/399 398/1/398 397/1/397
f 400/1/400 399/1/399 397/1/397
f 401/1/401 404/1/404 403/1/403
f 402/1/402 401/1/401 403/1/403
f 405/1/405 408/1/408 407/1/407
f 406/1/406 405/1/405 407/1/407
f 405/1/405 401/1/401 402/1/402
f 408/1/408 405/1/405 402/1/402
f 412/1/412 411/1/411 410/1/410
f 409/1/409 412/1/412 410/1/410
f 410/1/410 414/1/414 413/1/413
f 409/1/409 410/1/410 413/1/413
f 417/1/417 412/1/412 409/1/409
f 409/1/409 413/1/413 417/1/417
f 419/1/419 418/1/418 415/1/415
f 415/1/415 416/1/416 419/1/419
f 420/1/420 415/1/415 418/1/418
f 421/1/421 420/1/420 418/1/418
f 425/1/425 424/1/424 423/1/423
f 422/1/422 425/1/425 423/1/423
f 425/1/425 422/1/422 426/1/426
f 427/1/427 425/1/425 426/1/426
f 422/1/422 423/1/423 430/1/430
f 430/1/430 426/1/426 422/1/422
f 428/1/428 418/1/418 419/1/419
f 419/1/419 429/1/429 428/1/428
f 431/1/431 421/1/421 418/1/418
f 428/1/428 431/1/431 418/1/418
f 438/1/438 437/1/437 436/1/436
f 439/1/439 438/1/438 436/1/436
f 437/1/437 440/1/440 436/1/436
f 439/1/439 441/1/441 438/1/438
f 438/1/438 441/1/441 440/1/440
f 437/1/437 438/1/438 440/1/440
f 453/1/453 452/1/452 451/1/451
f 450/1/450 453/1/453 451/1/451
f 460/1/460 459/1/459 458/1/458
f 461/1/461 460/1/460 458/1/458
f 461/1/461 458/1/458 462/1/462
f 459/1/459 460/1/460 463/1/463
f 460/1/460 461/1/461 462/1/462
f 463/1/463 460/1/460 462/1/462
f 475/1/475 474/1/474 473/1/473
f 472/1/472 475/1/475 473/1/473
f 477/1/477 476/1/476 479/1/479
f 479/1/479 478/1/478 477/1/477
f 482/1/482 481/1/481 480/1/480
f 483/1/483 482/1/482 480/1/480
f 486/1/486 485/1/485 484/1/484
f 487/1/487 486/1/486 484/1/484
f 477/1/477 487/1/487 481/1/481
f 476/1/476 477/1/477 481/1/481
f 489/1/489 488/1/488 479/1/479
f 476/1/476 489/1/489 479/1/479
f 490/1/490 477/1/477 478/1/478
f 491/1/491 490/1/490 478/1/478
f 479/1/479 480/1/480 484/1/484
f 478/1/478 479/1/479 484/1/484
f 488/1/488 489/1/489 482/1/482
f 483/1/483 488/1/488 482/1/482
f 479/1/479 488/1/488 483/1/483
f 480/1/480 479/1/479 483/1/483
f 482/1/482 489/1/489 476/1/476
f 481/1/481 482/1/482 476/1/476
f 490/1/490 491/1/491 485/1/485
f 486/1/486 490/1/490 485/1/485
f 485/1/485 491/1/491 478/1/478
f 484/1/484 485/1/485 478/1/478
f 477/1/477 490/1/490 486/1/486
f 487/1/487 477/1/477 486/1/486
f 484/1/484 480/1/480 481/1/481
f 481/1/481 487/1/487 484/1/484
f 494/1/494 493/1/493 492/1/492
f 495/1/495 494/1/494 492/1/492
f 498/1/498 497/1/497 496/1/496
f 499/1/499 498/1/498 496/1/496
f 492/1/492 493/1/493 499/1/499
f 499/1/499 496/1/496 492/1/492
f 498/1/498 494/1/494 495/1/495
f 497/1/497 498/1/498 495/1/495
f 502/1/502 501/1/501 500/1/500
f 503/1/503 502/1/502 500/1/500
f 506/1/506 505/1/505 504/1/504
f 507/1/507 506/1/506 504/1/504
f 505/1/505 503/1/503 500/1/500
f 500/1/500 504/1/504 505/1/505
f 506/1/506 507/1/507 501/1/501
f 502/1/502 506/1/506 501/1/501
f 508/1/508 510/1/510 509/1/509
f 511/1/511 512/1/512 513/1/513
f 513/1/513 512/1/512 509/1/509
f 510/1/510 513/1/513 509/1/509
f 514/1/514 516/1/516 515/1/515
f 518/1/518 519/1/519 517/1/517
f 519/1/519 515/1/515 516/1/516
f 517/1/517 519/1/519 516/1/516
f 523/1/523 522/1/522 521/1/521
f 520/1/520 523/1/523 521/1/521
f 523/1/523 524/1/524 525/1/525
f 525/1/525 522/1/522 523/1/523
f 527/1/527 525/1/525 524/1/524
f 526/1/526 527/1/527 524/1/524
f 525/1/525 527/1/527 521/1/521
f 522/1/522 525/1/525 521/1/521
f 531/1/531 530/1/530 529/1/529
f 528/1/528 531/1/531 529/1/529
f 533/1/533 532/1/532 529/1/529
f 529/1/529 530/1/530 533/1/533
f 532/1/532 533/1/533 535/1/535
f 534/1/534 532/1/532 535/1/535
f 533/1/533 530/1/530 531/1/531
f 535/1/535 533/1/533 531/1/531
f 16/1/16 17/1/17 541/1/541
f 540/1/540 16/1/16 541/1/541
f 30/1/30 16/1/16 540/1/540
f 540/1/540 38/1/38 30/1/30
f 17/1/17 29/1/29 39/1/39
f 39/1/39 541/1/541 17/1/17
f 29/1/29 30/1/30 38/1/38
f 39/1/39 29/1/29 38/1/38
f 543/1/543 41/1/41 542/1/542
f 543/1/543 40/1/40 41/1/41
f 543/1/543 541/1/541 39/1/39
f 40/1/40 543/1/543 39/1/39
f 543/1/543 542/1/542 540/1/540
f 541/1/541 543/1/543 540/1/540
f 547/1/547 546/1/546 545/1/545
f 547/1/547 545/1/545 544/1/544
f 545/1/545 548/1/548 544/1/544
f 547/1/547 549/1/549 546/1/546
f 548/1/548 549/1/549 547/1/547
f 544/1/544 548/1/548 547/1/547

usemtl mat_FFFFFF
f 61/1/61 60/1/60 59/1/59
f 62/1/62 61/1/61 59/1/59
f 64/1/64 63/1/63 66/1/66
f 66/1/66 65/1/65 64/1/64
f 66/1/66 63/1/63 67/1/67
f 68/1/68 66/1/66 67/1/67
f 65/1/65 66/1/66 68/1/68
f 69/1/69 65/1/65 68/1/68
f 65/1/65 69/1/69 70/1/70
f 64/1/64 65/1/65 70/1/70
f 73/1/73 72/1/72 71/1/71
f 74/1/74 73/1/73 71/1/71
f 74/1/74 75/1/75 76/1/76
f 76/1/76 73/1/73 74/1/74
f 76/1/76 75/1/75 77/1/77
f 78/1/78 76/1/76 77/1/77
f 73/1/73 76/1/76 78/1/78
f 72/1/72 73/1/73 78/1/78
f 81/1/81 80/1/80 79/1/79
f 82/1/82 81/1/81 79/1/79
f 84/1/84 83/1/83 80/1/80
f 80/1/80 81/1/81 84/1/84
f 83/1/83 84/1/84 86/1/86
f 85/1/85 83/1/83 86/1/86
f 86/1/86 84/1/84 81/1/81
f 82/1/82 86/1/86 81/1/81
f 367/1/367 368/1/368 372/1/372
f 367/1/367 372/1/372 371/1/371
f 444/1/444 443/1/443 442/1/442
f 445/1/445 444/1/444 442/1/442
f 447/1/447 446/1/446 443/1/443
f 444/1/444 447/1/447 443/1/443
f 446/1/446 448/1/448 442/1/442
f 443/1/443 446/1/446 442/1/442
f 448/1/448 449/1/449 445/1/445
f 442/1/442 448/1/448 445/1/445
f 466/1/466 465/1/465 464/1/464
f 467/1/467 466/1/466 464/1/464
f 468/1/468 466/1/466 467/1/467
f 469/1/469 468/1/468 467/1/467
f 469/1/469 467/1/467 464/1/464
f 470/1/470 469/1/469 464/1/464
f 470/1/470 464/1/464 465/1/465
f 471/1/471 470/1/470 465/1/465
f 536/1/536 60/1/60 61/1/61
f 61/1/61 537/1/537 536/1/536
f 536/1/536 537/1/537 539/1/539
f 538/1/538 536/1/536 539/1/539
f 539/1/539 537/1/537 61/1/61
f 62/1/62 539/1/539 61/1/61

usemtl mat_D3D3D3
f 216/1/216 220/1/220 219/1/219
f 217/1/217 216/1/216 219/1/219
f 219/1/219 218/1/218 217/1/217
f 251/1/251 255/1/255 254/1/254
f 252/1/252 251/1/251 254/1/254
f 254/1/254 253/1/253 252/1/252
f 304/1/304 303/1/303 302/1/302
f 300/1/300 304/1/304 302/1/302
f 301/1/301 300/1/300 302/1/302
f 332/1/332 331/1/331 330/1/330
f 328/1/328 332/1/332 330/1/330
f 330/1/330 329/1/329 328/1/328

usemtl mat_A0A0A0
f 227/1/227 226/1/226 225/1/225
f 221/1/221 227/1/227 225/1/225
f 222/1/222 221/1/221 225/1/225
f 224/1/224 223/1/223 222/1/222
f 225/1/225 224/1/224 222/1/222
f 262/1/262 261/1/261 260/1/260
f 256/1/256 262/1/262 260/1/260
f 257/1/257 256/1/256 260/1/260
f 259/1/259 258/1/258 257/1/257
f 260/1/260 259/1/259 257/1/257
f 260/1/260 263/1/263 264/1/264
f 264/1/264 259/1/259 260/1/260
f 261/1/261 265/1/265 263/1/263
f 263/1/263 260/1/260 261/1/261
f 262/1/262 266/1/266 265/1/265
f 265/1/265 261/1/261 262/1/262
f 256/1/256 267/1/267 266/1/266
f 266/1/266 262/1/262 256/1/256
f 258/1/258 268/1/268 269/1/269
f 269/1/269 257/1/257 258/1/258
f 257/1/257 269/1/269 267/1/267
f 267/1/267 256/1/256 257/1/257
f 223/1/223 224/1/224 270/1/270
f 271/1/271 223/1/223 270/1/270
f 224/1/224 225/1/225 272/1/272
f 270/1/270 224/1/224 272/1/272
f 225/1/225 226/1/226 273/1/273
f 272/1/272 225/1/225 273/1/273
f 226/1/226 227/1/227 274/1/274
f 273/1/273 226/1/226 274/1/274
f 227/1/227 221/1/221 275/1/275
f 274/1/274 227/1/227 275/1/275
f 222/1/222 223/1/223 271/1/271
f 276/1/276 222/1/222 271/1/271
f 221/1/221 222/1/222 276/1/276
f 275/1/275 221/1/221 276/1/276
f 276/1/276 271/1/271 270/1/270
f 275/1/275 276/1/276 270/1/270
f 274/1/274 275/1/275 270/1/270
f 272/1/272 273/1/273 274/1/274
f 270/1/270 272/1/272 274/1/274
f 269/1/269 268/1/268 264/1/264
f 267/1/267 269/1/269 264/1/264
f 266/1/266 267/1/267 264/1/264
f 263/1/263 265/1/265 266/1/266
f 264/1/264 263/1/263 266/1/266
f 259/1/259 264/1/264 268/1/268
f 268/1/268 258/1/258 259/1/259
f 434/1/434 433/1/433 432/1/432
f 435/1/435 434/1/434 432/1/432
f 456/1/456 455/1/455 454/1/454
f 457/1/457 456/1/456 454/1/454

usemtl mat_DF250B
f 416/1/416 415/1/415 413/1/413
f 413/1/413 414/1/414 416/1/416
f 415/1/415 420/1/420 417/1/417
f 413/1/413 415/1/415 417/1/417
f 426/1/426 428/1/428 429/1/429
f 429/1/429 427/1/427 426/1/426
f 428/1/428 426/1/426 430/1/430
f 431/1/431 428/1/428 430/1/430
